M48
;DRILL file {kicad 0.201501102116+5363~20~ubuntu14.04.1-product} date Wed 21 Jan 2015 18:10:26 CET
;FORMAT={-:-/ absolute / metric / decimal}
FMAT,2
METRIC,TZ
T1C0.500
T2C0.550
T3C0.635
T4C0.800
T5C1.016
T6C1.143
%
G90
G05
M71
T3
X125.541Y-105.546
X138.241Y-105.546
X144.4Y-125.358
X150.75Y-86.75
X154.116Y-138.058
X155.386Y-136.788
X160.212Y-136.026
X161.736Y-120.532
X164.784Y-134.756
X165.038Y-119.008
X168.022Y-104.911
X168.594Y-118.5
X169.356Y-106.943
X169.356Y-114.436
X170.435Y-113.102
X170.626Y-117.484
X170.689Y-105.673
X173.928Y-109.102
X175.96Y-109.102
X180.024Y-108.594
X183.072Y-108.594
X194.311Y-109.991
X197.74Y-113.293
X201.868Y-98.434
X204.98Y-107.832
X205.932Y-98.434
X207.71Y-101.482
X207.71Y-104.784
T4
X153.242Y-126.273
X153.242Y-131.155
T5
X118.81Y-126.12
X118.81Y-128.66
X118.81Y-131.2
X118.81Y-135.01
X118.81Y-137.55
X118.81Y-140.09
X118.81Y-145.17
X121.35Y-145.17
X122.19Y-119.5
X122.452Y-79.184
X122.452Y-81.724
X124.73Y-119.5
X124.992Y-79.184
X124.992Y-81.724
X127.27Y-119.5
X129.81Y-119.5
X141.502Y-91.884
X141.502Y-94.424
X141.502Y-96.964
X146.582Y-105.6
X148.02Y-143.9
X150.56Y-143.9
X153.1Y-143.9
X159.45Y-143.9
X161.99Y-143.9
X164.53Y-143.9
X165.8Y-71.129
X168.34Y-71.129
X169.483Y-91.83
X169.483Y-94.37
X169.483Y-96.91
X169.483Y-99.45
X169.61Y-123.58
X169.61Y-126.12
X169.61Y-128.66
X169.61Y-131.2
X170.88Y-71.129
T6
X128.802Y-91.884
X131.342Y-91.884
X133.882Y-91.884
T1
X117.19Y-106.727G85X117.84Y-106.727
G05
X117.19Y-113.727G85X117.84Y-113.727
G05
T2
X120.215Y-107.577G85X120.215Y-107.877
G05
X120.215Y-112.577G85X120.215Y-112.877
G05
T0
M30
