G04 #@! TF.FileFunction,Legend,Bot*
%FSLAX46Y46*%
G04 Gerber Fmt 4.6, Leading zero omitted, Abs format (unit mm)*
G04 Created by KiCad (PCBNEW 0.201501102116+5363~20~ubuntu14.04.1-product) date Wed 21 Jan 2015 18:10:41 CET*
%MOMM*%
G01*
G04 APERTURE LIST*
%ADD10C,0.100000*%
%ADD11C,0.300000*%
%ADD12C,0.150000*%
G04 APERTURE END LIST*
D10*
D11*
X169500000Y-68250000D02*
X168785714Y-68250000D01*
X169642857Y-68678571D02*
X169142857Y-67178571D01*
X168642857Y-68678571D01*
X168142857Y-68678571D02*
X168142857Y-67178571D01*
X167428571Y-68678571D02*
X167428571Y-67178571D01*
X166571428Y-68678571D01*
X166571428Y-67178571D01*
X120142857Y-81250000D02*
X120285714Y-81178571D01*
X120500000Y-81178571D01*
X120714285Y-81250000D01*
X120857143Y-81392857D01*
X120928571Y-81535714D01*
X121000000Y-81821429D01*
X121000000Y-82035714D01*
X120928571Y-82321429D01*
X120857143Y-82464286D01*
X120714285Y-82607143D01*
X120500000Y-82678571D01*
X120357143Y-82678571D01*
X120142857Y-82607143D01*
X120071428Y-82535714D01*
X120071428Y-82035714D01*
X120357143Y-82035714D01*
X119428571Y-82678571D02*
X119428571Y-81178571D01*
X118571428Y-82678571D01*
X118571428Y-81178571D01*
X117857142Y-82678571D02*
X117857142Y-81178571D01*
X117499999Y-81178571D01*
X117285714Y-81250000D01*
X117142856Y-81392857D01*
X117071428Y-81535714D01*
X116999999Y-81821429D01*
X116999999Y-82035714D01*
X117071428Y-82321429D01*
X117142856Y-82464286D01*
X117285714Y-82607143D01*
X117499999Y-82678571D01*
X117857142Y-82678571D01*
X119571428Y-79107143D02*
X118428571Y-79107143D01*
X119000000Y-79678571D02*
X119000000Y-78535714D01*
X126000000Y-76678571D02*
X126000000Y-75178571D01*
X125428572Y-75178571D01*
X125285714Y-75250000D01*
X125214286Y-75321429D01*
X125142857Y-75464286D01*
X125142857Y-75678571D01*
X125214286Y-75821429D01*
X125285714Y-75892857D01*
X125428572Y-75964286D01*
X126000000Y-75964286D01*
X124642857Y-75178571D02*
X124285714Y-76678571D01*
X124000000Y-75607143D01*
X123714286Y-76678571D01*
X123357143Y-75178571D01*
X121928571Y-76678571D02*
X122428571Y-75964286D01*
X122785714Y-76678571D02*
X122785714Y-75178571D01*
X122214286Y-75178571D01*
X122071428Y-75250000D01*
X122000000Y-75321429D01*
X121928571Y-75464286D01*
X121928571Y-75678571D01*
X122000000Y-75821429D01*
X122071428Y-75892857D01*
X122214286Y-75964286D01*
X122785714Y-75964286D01*
X139678571Y-91178572D02*
X138178571Y-91178572D01*
X138178571Y-91750000D01*
X138250000Y-91892858D01*
X138321429Y-91964286D01*
X138464286Y-92035715D01*
X138678571Y-92035715D01*
X138821429Y-91964286D01*
X138892857Y-91892858D01*
X138964286Y-91750000D01*
X138964286Y-91178572D01*
X138178571Y-92535715D02*
X139678571Y-92892858D01*
X138607143Y-93178572D01*
X139678571Y-93464286D01*
X138178571Y-93821429D01*
X139821429Y-94035715D02*
X139821429Y-95178572D01*
X139607143Y-95464286D02*
X139678571Y-95678572D01*
X139678571Y-96035715D01*
X139607143Y-96178572D01*
X139535714Y-96250001D01*
X139392857Y-96321429D01*
X139250000Y-96321429D01*
X139107143Y-96250001D01*
X139035714Y-96178572D01*
X138964286Y-96035715D01*
X138892857Y-95750001D01*
X138821429Y-95607143D01*
X138750000Y-95535715D01*
X138607143Y-95464286D01*
X138464286Y-95464286D01*
X138321429Y-95535715D01*
X138250000Y-95607143D01*
X138178571Y-95750001D01*
X138178571Y-96107143D01*
X138250000Y-96321429D01*
X138892857Y-96964286D02*
X138892857Y-97464286D01*
X139678571Y-97678572D02*
X139678571Y-96964286D01*
X138178571Y-96964286D01*
X138178571Y-97678572D01*
X139678571Y-99035715D02*
X139678571Y-98321429D01*
X138178571Y-98321429D01*
X127535714Y-123607143D02*
X127321428Y-123678571D01*
X126964285Y-123678571D01*
X126821428Y-123607143D01*
X126749999Y-123535714D01*
X126678571Y-123392857D01*
X126678571Y-123250000D01*
X126749999Y-123107143D01*
X126821428Y-123035714D01*
X126964285Y-122964286D01*
X127249999Y-122892857D01*
X127392857Y-122821429D01*
X127464285Y-122750000D01*
X127535714Y-122607143D01*
X127535714Y-122464286D01*
X127464285Y-122321429D01*
X127392857Y-122250000D01*
X127249999Y-122178571D01*
X126892857Y-122178571D01*
X126678571Y-122250000D01*
X126035714Y-123678571D02*
X126035714Y-122178571D01*
X125464286Y-122178571D01*
X125321428Y-122250000D01*
X125250000Y-122321429D01*
X125178571Y-122464286D01*
X125178571Y-122678571D01*
X125250000Y-122821429D01*
X125321428Y-122892857D01*
X125464286Y-122964286D01*
X126035714Y-122964286D01*
X124535714Y-123678571D02*
X124535714Y-122178571D01*
X122678571Y-127821429D02*
X122678571Y-126964286D01*
X122678571Y-127392858D02*
X121178571Y-127392858D01*
X121392857Y-127250001D01*
X121535714Y-127107143D01*
X121607143Y-126964286D01*
X121178571Y-128321429D02*
X122678571Y-128678572D01*
X121607143Y-128964286D01*
X122678571Y-129250000D01*
X121178571Y-129607143D01*
X122678571Y-131035715D02*
X121964286Y-130535715D01*
X122678571Y-130178572D02*
X121178571Y-130178572D01*
X121178571Y-130750000D01*
X121250000Y-130892858D01*
X121321429Y-130964286D01*
X121464286Y-131035715D01*
X121678571Y-131035715D01*
X121821429Y-130964286D01*
X121892857Y-130892858D01*
X121964286Y-130750000D01*
X121964286Y-130178572D01*
X127142857Y-144250000D02*
X127285714Y-144178571D01*
X127500000Y-144178571D01*
X127714285Y-144250000D01*
X127857143Y-144392857D01*
X127928571Y-144535714D01*
X128000000Y-144821429D01*
X128000000Y-145035714D01*
X127928571Y-145321429D01*
X127857143Y-145464286D01*
X127714285Y-145607143D01*
X127500000Y-145678571D01*
X127357143Y-145678571D01*
X127142857Y-145607143D01*
X127071428Y-145535714D01*
X127071428Y-145035714D01*
X127357143Y-145035714D01*
X126428571Y-145678571D02*
X126428571Y-144178571D01*
X125571428Y-145678571D01*
X125571428Y-144178571D01*
X124857142Y-145678571D02*
X124857142Y-144178571D01*
X124499999Y-144178571D01*
X124285714Y-144250000D01*
X124142856Y-144392857D01*
X124071428Y-144535714D01*
X123999999Y-144821429D01*
X123999999Y-145035714D01*
X124071428Y-145321429D01*
X124142856Y-145464286D01*
X124285714Y-145607143D01*
X124499999Y-145678571D01*
X124857142Y-145678571D01*
X122678571Y-136178572D02*
X121964286Y-135678572D01*
X122678571Y-135321429D02*
X121178571Y-135321429D01*
X121178571Y-135892857D01*
X121250000Y-136035715D01*
X121321429Y-136107143D01*
X121464286Y-136178572D01*
X121678571Y-136178572D01*
X121821429Y-136107143D01*
X121892857Y-136035715D01*
X121964286Y-135892857D01*
X121964286Y-135321429D01*
X122607143Y-136750000D02*
X122678571Y-136964286D01*
X122678571Y-137321429D01*
X122607143Y-137464286D01*
X122535714Y-137535715D01*
X122392857Y-137607143D01*
X122250000Y-137607143D01*
X122107143Y-137535715D01*
X122035714Y-137464286D01*
X121964286Y-137321429D01*
X121892857Y-137035715D01*
X121821429Y-136892857D01*
X121750000Y-136821429D01*
X121607143Y-136750000D01*
X121464286Y-136750000D01*
X121321429Y-136821429D01*
X121250000Y-136892857D01*
X121178571Y-137035715D01*
X121178571Y-137392857D01*
X121250000Y-137607143D01*
X121178571Y-138035714D02*
X121178571Y-138892857D01*
X122678571Y-138464286D02*
X121178571Y-138464286D01*
X151642857Y-140178571D02*
X150785714Y-140178571D01*
X151214285Y-141678571D02*
X151214285Y-140178571D01*
X150428571Y-140178571D02*
X150071428Y-141678571D01*
X149785714Y-140607143D01*
X149500000Y-141678571D01*
X149142857Y-140178571D01*
X148571428Y-141678571D02*
X148571428Y-140178571D01*
X163857143Y-141607143D02*
X163642857Y-141678571D01*
X163285714Y-141678571D01*
X163142857Y-141607143D01*
X163071428Y-141535714D01*
X163000000Y-141392857D01*
X163000000Y-141250000D01*
X163071428Y-141107143D01*
X163142857Y-141035714D01*
X163285714Y-140964286D01*
X163571428Y-140892857D01*
X163714286Y-140821429D01*
X163785714Y-140750000D01*
X163857143Y-140607143D01*
X163857143Y-140464286D01*
X163785714Y-140321429D01*
X163714286Y-140250000D01*
X163571428Y-140178571D01*
X163214286Y-140178571D01*
X163000000Y-140250000D01*
X162357143Y-140892857D02*
X161857143Y-140892857D01*
X161642857Y-141678571D02*
X162357143Y-141678571D01*
X162357143Y-140178571D01*
X161642857Y-140178571D01*
X160142857Y-141678571D02*
X160642857Y-140964286D01*
X161000000Y-141678571D02*
X161000000Y-140178571D01*
X160428572Y-140178571D01*
X160285714Y-140250000D01*
X160214286Y-140321429D01*
X160142857Y-140464286D01*
X160142857Y-140678571D01*
X160214286Y-140821429D01*
X160285714Y-140892857D01*
X160428572Y-140964286D01*
X161000000Y-140964286D01*
D12*
X120080000Y-136280000D02*
X120080000Y-141360000D01*
X120080000Y-141360000D02*
X117540000Y-141360000D01*
X117540000Y-141360000D02*
X117540000Y-136280000D01*
X117540000Y-133740000D02*
X117540000Y-136280000D01*
X117540000Y-136280000D02*
X120080000Y-136280000D01*
X117540000Y-133740000D02*
X120080000Y-133740000D01*
X120080000Y-133740000D02*
X120080000Y-136280000D01*
X145312000Y-106870000D02*
X145312000Y-104330000D01*
X145312000Y-104330000D02*
X147852000Y-104330000D01*
X147852000Y-104330000D02*
X147852000Y-106870000D01*
X147852000Y-106870000D02*
X145312000Y-106870000D01*
X140232000Y-95694000D02*
X140232000Y-90614000D01*
X140232000Y-90614000D02*
X142772000Y-90614000D01*
X142772000Y-90614000D02*
X142772000Y-95694000D01*
X142772000Y-98234000D02*
X142772000Y-95694000D01*
X142772000Y-95694000D02*
X140232000Y-95694000D01*
X142772000Y-98234000D02*
X140232000Y-98234000D01*
X140232000Y-98234000D02*
X140232000Y-95694000D01*
X120080000Y-127390000D02*
X120080000Y-132470000D01*
X120080000Y-132470000D02*
X117540000Y-132470000D01*
X117540000Y-132470000D02*
X117540000Y-127390000D01*
X117540000Y-124850000D02*
X117540000Y-127390000D01*
X117540000Y-127390000D02*
X120080000Y-127390000D01*
X117540000Y-124850000D02*
X120080000Y-124850000D01*
X120080000Y-124850000D02*
X120080000Y-127390000D01*
X167070000Y-69859000D02*
X172150000Y-69859000D01*
X172150000Y-69859000D02*
X172150000Y-72399000D01*
X172150000Y-72399000D02*
X167070000Y-72399000D01*
X164530000Y-72399000D02*
X167070000Y-72399000D01*
X167070000Y-72399000D02*
X167070000Y-69859000D01*
X164530000Y-72399000D02*
X164530000Y-69859000D01*
X164530000Y-69859000D02*
X167070000Y-69859000D01*
X128540000Y-120770000D02*
X120920000Y-120770000D01*
X128540000Y-118230000D02*
X120920000Y-118230000D01*
X131080000Y-118230000D02*
X128540000Y-118230000D01*
X120920000Y-120770000D02*
X120920000Y-118230000D01*
X128540000Y-118230000D02*
X128540000Y-120770000D01*
X131080000Y-118230000D02*
X131080000Y-120770000D01*
X131080000Y-120770000D02*
X128540000Y-120770000D01*
X151830000Y-145170000D02*
X146750000Y-145170000D01*
X146750000Y-145170000D02*
X146750000Y-142630000D01*
X146750000Y-142630000D02*
X151830000Y-142630000D01*
X154370000Y-142630000D02*
X151830000Y-142630000D01*
X151830000Y-142630000D02*
X151830000Y-145170000D01*
X154370000Y-142630000D02*
X154370000Y-145170000D01*
X154370000Y-145170000D02*
X151830000Y-145170000D01*
X160720000Y-142630000D02*
X165800000Y-142630000D01*
X165800000Y-142630000D02*
X165800000Y-145170000D01*
X165800000Y-145170000D02*
X160720000Y-145170000D01*
X158180000Y-145170000D02*
X160720000Y-145170000D01*
X160720000Y-145170000D02*
X160720000Y-142630000D01*
X158180000Y-145170000D02*
X158180000Y-142630000D01*
X158180000Y-142630000D02*
X160720000Y-142630000D01*
X121182000Y-80454000D02*
X121182000Y-77914000D01*
X121182000Y-77914000D02*
X123722000Y-77914000D01*
X123722000Y-77914000D02*
X123722000Y-80454000D01*
X123722000Y-80454000D02*
X121182000Y-80454000D01*
X121182000Y-80454000D02*
X121182000Y-82994000D01*
X121182000Y-82994000D02*
X126262000Y-82994000D01*
X126262000Y-82994000D02*
X126262000Y-77914000D01*
X126262000Y-77914000D02*
X123722000Y-77914000D01*
X120080000Y-146440000D02*
X120080000Y-143900000D01*
X117540000Y-146440000D02*
X117540000Y-143900000D01*
X117540000Y-143900000D02*
X120080000Y-143900000D01*
X120080000Y-143900000D02*
X122620000Y-143900000D01*
X122620000Y-143900000D02*
X122620000Y-146440000D01*
X122620000Y-146440000D02*
X117540000Y-146440000D01*
X126516000Y-90233000D02*
X126516000Y-93662000D01*
X136168000Y-90233000D02*
X136168000Y-93662000D01*
X126008000Y-89090000D02*
X136676000Y-89090000D01*
X129564000Y-90106000D02*
X129564000Y-88836000D01*
X133120000Y-90106000D02*
X133120000Y-88836000D01*
X136676000Y-90233000D02*
X126008000Y-90233000D01*
X126008000Y-93662000D02*
X136676000Y-93662000D01*
X136676000Y-88836000D02*
X136676000Y-93662000D01*
X126008000Y-88836000D02*
X126008000Y-93662000D01*
X126008000Y-88836000D02*
X136676000Y-88836000D01*
X152241240Y-133413000D02*
X152642560Y-133613660D01*
X152642560Y-133613660D02*
X153242000Y-133715260D01*
X153242000Y-133715260D02*
X153742380Y-133613660D01*
X153742380Y-133613660D02*
X154440880Y-133214880D01*
X154440880Y-133214880D02*
X154842200Y-132612900D01*
X154842200Y-132612900D02*
X155042860Y-132013460D01*
X155042860Y-132013460D02*
X155042860Y-125414540D01*
X155042860Y-125414540D02*
X154842200Y-124713500D01*
X154842200Y-124713500D02*
X154542480Y-124314720D01*
X154542480Y-124314720D02*
X154042100Y-123913400D01*
X154042100Y-123913400D02*
X153442660Y-123712740D01*
X153442660Y-123712740D02*
X152942280Y-123712740D01*
X152942280Y-123712740D02*
X152441900Y-123913400D01*
X152441900Y-123913400D02*
X151842460Y-124413780D01*
X151842460Y-124413780D02*
X151542740Y-124914160D01*
X151542740Y-124914160D02*
X151441140Y-125414540D01*
X151441140Y-125513600D02*
X151441140Y-132115060D01*
X151441140Y-132115060D02*
X151542740Y-132513840D01*
X151542740Y-132513840D02*
X151842460Y-133014220D01*
X151842460Y-133014220D02*
X152342840Y-133514600D01*
X150912820Y-125523760D02*
X150961080Y-125064020D01*
X150961080Y-125064020D02*
X151072840Y-124665240D01*
X151072840Y-124665240D02*
X151291280Y-124233440D01*
X151291280Y-124233440D02*
X151522420Y-123943880D01*
X151522420Y-123943880D02*
X151872940Y-123613680D01*
X151872940Y-123613680D02*
X152411420Y-123324120D01*
X152411420Y-123324120D02*
X153010860Y-123194580D01*
X153010860Y-123194580D02*
X153521400Y-123194580D01*
X153521400Y-123194580D02*
X154222440Y-123364760D01*
X154222440Y-123364760D02*
X154811720Y-123763540D01*
X154811720Y-123763540D02*
X155182560Y-124223280D01*
X155182560Y-124223280D02*
X155390840Y-124644920D01*
X155390840Y-124644920D02*
X155550860Y-125094500D01*
X155550860Y-125094500D02*
X155581340Y-125533920D01*
X155362900Y-132874520D02*
X155141920Y-133252980D01*
X155141920Y-133252980D02*
X154862520Y-133573020D01*
X154862520Y-133573020D02*
X154532320Y-133824480D01*
X154532320Y-133824480D02*
X153981140Y-134124200D01*
X153981140Y-134124200D02*
X153511240Y-134233420D01*
X153511240Y-134233420D02*
X153051500Y-134253740D01*
X153051500Y-134253740D02*
X152591760Y-134164840D01*
X152591760Y-134164840D02*
X152142180Y-133974340D01*
X152142180Y-133974340D02*
X151672280Y-133613660D01*
X151672280Y-133613660D02*
X151352240Y-133263140D01*
X151352240Y-133263140D02*
X151121100Y-132874520D01*
X151121100Y-132874520D02*
X150981400Y-132445260D01*
X150981400Y-132445260D02*
X150912820Y-132003300D01*
X155571180Y-125513600D02*
X155571180Y-131965200D01*
X155571180Y-131965200D02*
X155533080Y-132384300D01*
X155533080Y-132384300D02*
X155362900Y-132874520D01*
X150912820Y-125513600D02*
X150912820Y-131965200D01*
X170753000Y-93100000D02*
X170753000Y-100720000D01*
X168213000Y-93100000D02*
X168213000Y-100720000D01*
X168213000Y-90560000D02*
X168213000Y-93100000D01*
X170753000Y-100720000D02*
X168213000Y-100720000D01*
X168213000Y-93100000D02*
X170753000Y-93100000D01*
X168213000Y-90560000D02*
X170753000Y-90560000D01*
X170753000Y-90560000D02*
X170753000Y-93100000D01*
X168340000Y-129930000D02*
X168340000Y-122310000D01*
X170880000Y-129930000D02*
X170880000Y-122310000D01*
X170880000Y-132470000D02*
X170880000Y-129930000D01*
X168340000Y-122310000D02*
X170880000Y-122310000D01*
X170880000Y-129930000D02*
X168340000Y-129930000D01*
X170880000Y-132470000D02*
X168340000Y-132470000D01*
X168340000Y-132470000D02*
X168340000Y-129930000D01*
X116976381Y-136811905D02*
X115976381Y-136811905D01*
X115976381Y-137192858D01*
X116024000Y-137288096D01*
X116071619Y-137335715D01*
X116166857Y-137383334D01*
X116309714Y-137383334D01*
X116404952Y-137335715D01*
X116452571Y-137288096D01*
X116500190Y-137192858D01*
X116500190Y-136811905D01*
X116976381Y-138335715D02*
X116976381Y-137764286D01*
X116976381Y-138050000D02*
X115976381Y-138050000D01*
X116119238Y-137954762D01*
X116214476Y-137859524D01*
X116262095Y-137764286D01*
X147320095Y-108338381D02*
X147320095Y-107338381D01*
X146939142Y-107338381D01*
X146843904Y-107386000D01*
X146796285Y-107433619D01*
X146748666Y-107528857D01*
X146748666Y-107671714D01*
X146796285Y-107766952D01*
X146843904Y-107814571D01*
X146939142Y-107862190D01*
X147320095Y-107862190D01*
X146367714Y-107433619D02*
X146320095Y-107386000D01*
X146224857Y-107338381D01*
X145986761Y-107338381D01*
X145891523Y-107386000D01*
X145843904Y-107433619D01*
X145796285Y-107528857D01*
X145796285Y-107624095D01*
X145843904Y-107766952D01*
X146415333Y-108338381D01*
X145796285Y-108338381D01*
X144240381Y-93685905D02*
X143240381Y-93685905D01*
X143240381Y-94066858D01*
X143288000Y-94162096D01*
X143335619Y-94209715D01*
X143430857Y-94257334D01*
X143573714Y-94257334D01*
X143668952Y-94209715D01*
X143716571Y-94162096D01*
X143764190Y-94066858D01*
X143764190Y-93685905D01*
X143240381Y-94590667D02*
X143240381Y-95209715D01*
X143621333Y-94876381D01*
X143621333Y-95019239D01*
X143668952Y-95114477D01*
X143716571Y-95162096D01*
X143811810Y-95209715D01*
X144049905Y-95209715D01*
X144145143Y-95162096D01*
X144192762Y-95114477D01*
X144240381Y-95019239D01*
X144240381Y-94733524D01*
X144192762Y-94638286D01*
X144145143Y-94590667D01*
X116976381Y-127921905D02*
X115976381Y-127921905D01*
X115976381Y-128302858D01*
X116024000Y-128398096D01*
X116071619Y-128445715D01*
X116166857Y-128493334D01*
X116309714Y-128493334D01*
X116404952Y-128445715D01*
X116452571Y-128398096D01*
X116500190Y-128302858D01*
X116500190Y-127921905D01*
X116309714Y-129350477D02*
X116976381Y-129350477D01*
X115928762Y-129112381D02*
X116643048Y-128874286D01*
X116643048Y-129493334D01*
X169078095Y-73867381D02*
X169078095Y-72867381D01*
X168697142Y-72867381D01*
X168601904Y-72915000D01*
X168554285Y-72962619D01*
X168506666Y-73057857D01*
X168506666Y-73200714D01*
X168554285Y-73295952D01*
X168601904Y-73343571D01*
X168697142Y-73391190D01*
X169078095Y-73391190D01*
X167601904Y-72867381D02*
X168078095Y-72867381D01*
X168125714Y-73343571D01*
X168078095Y-73295952D01*
X167982857Y-73248333D01*
X167744761Y-73248333D01*
X167649523Y-73295952D01*
X167601904Y-73343571D01*
X167554285Y-73438810D01*
X167554285Y-73676905D01*
X167601904Y-73772143D01*
X167649523Y-73819762D01*
X167744761Y-73867381D01*
X167982857Y-73867381D01*
X168078095Y-73819762D01*
X168125714Y-73772143D01*
X126738095Y-117666381D02*
X126738095Y-116666381D01*
X126357142Y-116666381D01*
X126261904Y-116714000D01*
X126214285Y-116761619D01*
X126166666Y-116856857D01*
X126166666Y-116999714D01*
X126214285Y-117094952D01*
X126261904Y-117142571D01*
X126357142Y-117190190D01*
X126738095Y-117190190D01*
X125309523Y-116666381D02*
X125500000Y-116666381D01*
X125595238Y-116714000D01*
X125642857Y-116761619D01*
X125738095Y-116904476D01*
X125785714Y-117094952D01*
X125785714Y-117475905D01*
X125738095Y-117571143D01*
X125690476Y-117618762D01*
X125595238Y-117666381D01*
X125404761Y-117666381D01*
X125309523Y-117618762D01*
X125261904Y-117571143D01*
X125214285Y-117475905D01*
X125214285Y-117237810D01*
X125261904Y-117142571D01*
X125309523Y-117094952D01*
X125404761Y-117047333D01*
X125595238Y-117047333D01*
X125690476Y-117094952D01*
X125738095Y-117142571D01*
X125785714Y-117237810D01*
X150738095Y-146452381D02*
X150738095Y-145452381D01*
X150357142Y-145452381D01*
X150261904Y-145500000D01*
X150214285Y-145547619D01*
X150166666Y-145642857D01*
X150166666Y-145785714D01*
X150214285Y-145880952D01*
X150261904Y-145928571D01*
X150357142Y-145976190D01*
X150738095Y-145976190D01*
X149595238Y-145880952D02*
X149690476Y-145833333D01*
X149738095Y-145785714D01*
X149785714Y-145690476D01*
X149785714Y-145642857D01*
X149738095Y-145547619D01*
X149690476Y-145500000D01*
X149595238Y-145452381D01*
X149404761Y-145452381D01*
X149309523Y-145500000D01*
X149261904Y-145547619D01*
X149214285Y-145642857D01*
X149214285Y-145690476D01*
X149261904Y-145785714D01*
X149309523Y-145833333D01*
X149404761Y-145880952D01*
X149595238Y-145880952D01*
X149690476Y-145928571D01*
X149738095Y-145976190D01*
X149785714Y-146071429D01*
X149785714Y-146261905D01*
X149738095Y-146357143D01*
X149690476Y-146404762D01*
X149595238Y-146452381D01*
X149404761Y-146452381D01*
X149309523Y-146404762D01*
X149261904Y-146357143D01*
X149214285Y-146261905D01*
X149214285Y-146071429D01*
X149261904Y-145976190D01*
X149309523Y-145928571D01*
X149404761Y-145880952D01*
X162728095Y-146638381D02*
X162728095Y-145638381D01*
X162347142Y-145638381D01*
X162251904Y-145686000D01*
X162204285Y-145733619D01*
X162156666Y-145828857D01*
X162156666Y-145971714D01*
X162204285Y-146066952D01*
X162251904Y-146114571D01*
X162347142Y-146162190D01*
X162728095Y-146162190D01*
X161680476Y-146638381D02*
X161490000Y-146638381D01*
X161394761Y-146590762D01*
X161347142Y-146543143D01*
X161251904Y-146400286D01*
X161204285Y-146209810D01*
X161204285Y-145828857D01*
X161251904Y-145733619D01*
X161299523Y-145686000D01*
X161394761Y-145638381D01*
X161585238Y-145638381D01*
X161680476Y-145686000D01*
X161728095Y-145733619D01*
X161775714Y-145828857D01*
X161775714Y-146066952D01*
X161728095Y-146162190D01*
X161680476Y-146209810D01*
X161585238Y-146257429D01*
X161394761Y-146257429D01*
X161299523Y-146209810D01*
X161251904Y-146162190D01*
X161204285Y-146066952D01*
X124936286Y-84716381D02*
X124936286Y-83716381D01*
X124555333Y-83716381D01*
X124460095Y-83764000D01*
X124412476Y-83811619D01*
X124364857Y-83906857D01*
X124364857Y-84049714D01*
X124412476Y-84144952D01*
X124460095Y-84192571D01*
X124555333Y-84240190D01*
X124936286Y-84240190D01*
X123412476Y-84716381D02*
X123983905Y-84716381D01*
X123698191Y-84716381D02*
X123698191Y-83716381D01*
X123793429Y-83859238D01*
X123888667Y-83954476D01*
X123983905Y-84002095D01*
X122793429Y-83716381D02*
X122698190Y-83716381D01*
X122602952Y-83764000D01*
X122555333Y-83811619D01*
X122507714Y-83906857D01*
X122460095Y-84097333D01*
X122460095Y-84335429D01*
X122507714Y-84525905D01*
X122555333Y-84621143D01*
X122602952Y-84668762D01*
X122698190Y-84716381D01*
X122793429Y-84716381D01*
X122888667Y-84668762D01*
X122936286Y-84621143D01*
X122983905Y-84525905D01*
X123031524Y-84335429D01*
X123031524Y-84097333D01*
X122983905Y-83906857D01*
X122936286Y-83811619D01*
X122888667Y-83764000D01*
X122793429Y-83716381D01*
X121294286Y-147908381D02*
X121294286Y-146908381D01*
X120913333Y-146908381D01*
X120818095Y-146956000D01*
X120770476Y-147003619D01*
X120722857Y-147098857D01*
X120722857Y-147241714D01*
X120770476Y-147336952D01*
X120818095Y-147384571D01*
X120913333Y-147432190D01*
X121294286Y-147432190D01*
X119770476Y-147908381D02*
X120341905Y-147908381D01*
X120056191Y-147908381D02*
X120056191Y-146908381D01*
X120151429Y-147051238D01*
X120246667Y-147146476D01*
X120341905Y-147194095D01*
X118818095Y-147908381D02*
X119389524Y-147908381D01*
X119103810Y-147908381D02*
X119103810Y-146908381D01*
X119199048Y-147051238D01*
X119294286Y-147146476D01*
X119389524Y-147194095D01*
X132103905Y-87018381D02*
X132103905Y-87827905D01*
X132056286Y-87923143D01*
X132008667Y-87970762D01*
X131913429Y-88018381D01*
X131722952Y-88018381D01*
X131627714Y-87970762D01*
X131580095Y-87923143D01*
X131532476Y-87827905D01*
X131532476Y-87018381D01*
X130580095Y-87018381D02*
X131056286Y-87018381D01*
X131103905Y-87494571D01*
X131056286Y-87446952D01*
X130961048Y-87399333D01*
X130722952Y-87399333D01*
X130627714Y-87446952D01*
X130580095Y-87494571D01*
X130532476Y-87589810D01*
X130532476Y-87827905D01*
X130580095Y-87923143D01*
X130627714Y-87970762D01*
X130722952Y-88018381D01*
X130961048Y-88018381D01*
X131056286Y-87970762D01*
X131103905Y-87923143D01*
X148884381Y-127904476D02*
X149884381Y-128571143D01*
X148884381Y-128571143D02*
X149884381Y-127904476D01*
X149884381Y-129475905D02*
X149884381Y-128904476D01*
X149884381Y-129190190D02*
X148884381Y-129190190D01*
X149027238Y-129094952D01*
X149122476Y-128999714D01*
X149170095Y-128904476D01*
X167649381Y-94425714D02*
X166649381Y-94425714D01*
X166649381Y-94806667D01*
X166697000Y-94901905D01*
X166744619Y-94949524D01*
X166839857Y-94997143D01*
X166982714Y-94997143D01*
X167077952Y-94949524D01*
X167125571Y-94901905D01*
X167173190Y-94806667D01*
X167173190Y-94425714D01*
X167649381Y-95949524D02*
X167649381Y-95378095D01*
X167649381Y-95663809D02*
X166649381Y-95663809D01*
X166792238Y-95568571D01*
X166887476Y-95473333D01*
X166935095Y-95378095D01*
X166744619Y-96330476D02*
X166697000Y-96378095D01*
X166649381Y-96473333D01*
X166649381Y-96711429D01*
X166697000Y-96806667D01*
X166744619Y-96854286D01*
X166839857Y-96901905D01*
X166935095Y-96901905D01*
X167077952Y-96854286D01*
X167649381Y-96282857D01*
X167649381Y-96901905D01*
X172348381Y-126651905D02*
X171348381Y-126651905D01*
X171348381Y-127032858D01*
X171396000Y-127128096D01*
X171443619Y-127175715D01*
X171538857Y-127223334D01*
X171681714Y-127223334D01*
X171776952Y-127175715D01*
X171824571Y-127128096D01*
X171872190Y-127032858D01*
X171872190Y-126651905D01*
X171348381Y-127556667D02*
X171348381Y-128223334D01*
X172348381Y-127794762D01*
M02*
