G04 #@! TF.FileFunction,Soldermask,Bot*
%FSLAX46Y46*%
G04 Gerber Fmt 4.6, Leading zero omitted, Abs format (unit mm)*
G04 Created by KiCad (PCBNEW 0.201501102116+5363~20~ubuntu14.04.1-product) date Wed 21 Jan 2015 18:10:41 CET*
%MOMM*%
G01*
G04 APERTURE LIST*
%ADD10C,0.100000*%
%ADD11O,0.950000X1.250000*%
%ADD12O,1.550000X1.000000*%
%ADD13R,2.032000X1.727200*%
%ADD14O,2.032000X1.727200*%
%ADD15R,2.235200X2.235200*%
%ADD16R,1.727200X2.032000*%
%ADD17O,1.727200X2.032000*%
%ADD18R,1.727200X1.727200*%
%ADD19O,1.727200X1.727200*%
%ADD20R,2.032000X2.032000*%
%ADD21O,2.032000X2.032000*%
%ADD22O,2.032000X2.540000*%
%ADD23C,1.501140*%
G04 APERTURE END LIST*
D10*
D11*
X120215000Y-107727000D03*
X120215000Y-112727000D03*
D12*
X117515000Y-106727000D03*
X117515000Y-113727000D03*
D13*
X118810000Y-135010000D03*
D14*
X118810000Y-137550000D03*
X118810000Y-140090000D03*
D15*
X146582000Y-105600000D03*
D13*
X141502000Y-96964000D03*
D14*
X141502000Y-94424000D03*
X141502000Y-91884000D03*
D13*
X118810000Y-126120000D03*
D14*
X118810000Y-128660000D03*
X118810000Y-131200000D03*
D16*
X165800000Y-71129000D03*
D17*
X168340000Y-71129000D03*
X170880000Y-71129000D03*
D16*
X129810000Y-119500000D03*
D17*
X127270000Y-119500000D03*
X124730000Y-119500000D03*
X122190000Y-119500000D03*
D16*
X153100000Y-143900000D03*
D17*
X150560000Y-143900000D03*
X148020000Y-143900000D03*
D16*
X159450000Y-143900000D03*
D17*
X161990000Y-143900000D03*
X164530000Y-143900000D03*
D18*
X122452000Y-79184000D03*
D19*
X122452000Y-81724000D03*
X124992000Y-79184000D03*
X124992000Y-81724000D03*
D20*
X118810000Y-145170000D03*
D21*
X121350000Y-145170000D03*
D22*
X131342000Y-91884000D03*
X128802000Y-91884000D03*
X133882000Y-91884000D03*
D23*
X153242000Y-126273060D03*
X153242000Y-131154940D03*
D13*
X169483000Y-91830000D03*
D14*
X169483000Y-94370000D03*
X169483000Y-96910000D03*
X169483000Y-99450000D03*
D13*
X169610000Y-131200000D03*
D14*
X169610000Y-128660000D03*
X169610000Y-126120000D03*
X169610000Y-123580000D03*
M02*
