G04 #@! TF.FileFunction,Legend,Top*
%FSLAX46Y46*%
G04 Gerber Fmt 4.6, Leading zero omitted, Abs format (unit mm)*
G04 Created by KiCad (PCBNEW 0.201501102116+5363~20~ubuntu14.04.1-product) date Wed 21 Jan 2015 18:10:41 CET*
%MOMM*%
G01*
G04 APERTURE LIST*
%ADD10C,0.100000*%
%ADD11C,0.150000*%
G04 APERTURE END LIST*
D10*
D11*
X147408000Y-132358000D02*
X148408000Y-132358000D01*
X148408000Y-130658000D02*
X147408000Y-130658000D01*
X153348000Y-100407000D02*
X154548000Y-100407000D01*
X154548000Y-102157000D02*
X153348000Y-102157000D01*
X147408000Y-127278000D02*
X148408000Y-127278000D01*
X148408000Y-125578000D02*
X147408000Y-125578000D01*
X187525000Y-107221500D02*
X188525000Y-107221500D01*
X188525000Y-105521500D02*
X187525000Y-105521500D01*
X165077000Y-103014000D02*
X165077000Y-104014000D01*
X166777000Y-104014000D02*
X166777000Y-103014000D01*
X120682000Y-100354000D02*
X121682000Y-100354000D01*
X121682000Y-98654000D02*
X120682000Y-98654000D01*
X114835000Y-105877000D02*
X114835000Y-114577000D01*
X121240000Y-105877000D02*
X121240000Y-114577000D01*
X121240000Y-114577000D02*
X114835000Y-114577000D01*
X116065000Y-114577000D02*
X116065000Y-105877000D01*
X114835000Y-105877000D02*
X121240000Y-105877000D01*
X148793605Y-61785000D02*
G75*
G03X148793605Y-61785000I-179605J0D01*
G01*
X143788000Y-61912000D02*
X142137000Y-61912000D01*
X142137000Y-61912000D02*
X142137000Y-65976000D01*
X142137000Y-65976000D02*
X143788000Y-65976000D01*
X146836000Y-65976000D02*
X148487000Y-65976000D01*
X148487000Y-65976000D02*
X148487000Y-61912000D01*
X148487000Y-61912000D02*
X146836000Y-61912000D01*
X201150500Y-121576500D02*
X202700500Y-121576500D01*
X201150500Y-120376500D02*
X202700500Y-120376500D01*
X148793605Y-92392000D02*
G75*
G03X148793605Y-92392000I-179605J0D01*
G01*
X153821000Y-92265000D02*
X156107000Y-92265000D01*
X156107000Y-92265000D02*
X156107000Y-88455000D01*
X156107000Y-88455000D02*
X153821000Y-88455000D01*
X151027000Y-88455000D02*
X148741000Y-88455000D01*
X148741000Y-88455000D02*
X148741000Y-92265000D01*
X148741000Y-92265000D02*
X151027000Y-92265000D01*
X195824605Y-114690000D02*
G75*
G03X195824605Y-114690000I-179605J0D01*
G01*
X195772000Y-119897000D02*
X195772000Y-122183000D01*
X195772000Y-122183000D02*
X199582000Y-122183000D01*
X199582000Y-122183000D02*
X199582000Y-119897000D01*
X199582000Y-117103000D02*
X199582000Y-114817000D01*
X199582000Y-114817000D02*
X195772000Y-114817000D01*
X195772000Y-114817000D02*
X195772000Y-117103000D01*
X123052000Y-104189000D02*
X121852000Y-104189000D01*
X121852000Y-102439000D02*
X123052000Y-102439000D01*
X121745000Y-139420000D02*
X121745000Y-138220000D01*
X123495000Y-138220000D02*
X123495000Y-139420000D01*
X129472000Y-108789000D02*
X130672000Y-108789000D01*
X130672000Y-110539000D02*
X129472000Y-110539000D01*
X129472000Y-111329000D02*
X130672000Y-111329000D01*
X130672000Y-113079000D02*
X129472000Y-113079000D01*
X186388000Y-118465000D02*
X186388000Y-117265000D01*
X188138000Y-117265000D02*
X188138000Y-118465000D01*
X202347500Y-104671000D02*
X203547500Y-104671000D01*
X203547500Y-106421000D02*
X202347500Y-106421000D01*
X143160000Y-72707000D02*
X140867000Y-72707000D01*
X150004000Y-72694300D02*
X150004000Y-69151000D01*
X152297000Y-72707000D02*
X152297000Y-84588000D01*
X140867000Y-84588000D02*
X140867000Y-72707000D01*
X152297000Y-72707000D02*
X150004000Y-72707000D01*
X151567000Y-107029000D02*
X151567000Y-107704000D01*
X161917000Y-107029000D02*
X161917000Y-107704000D01*
X161917000Y-117379000D02*
X161917000Y-116704000D01*
X151567000Y-117379000D02*
X151567000Y-116704000D01*
X151567000Y-107029000D02*
X152242000Y-107029000D01*
X151567000Y-117379000D02*
X152242000Y-117379000D01*
X161917000Y-117379000D02*
X161242000Y-117379000D01*
X161917000Y-107029000D02*
X161242000Y-107029000D01*
X151567000Y-107704000D02*
X150292000Y-107704000D01*
X192978000Y-119770000D02*
X191200000Y-119770000D01*
X191200000Y-119770000D02*
X191200000Y-116722000D01*
X191200000Y-116722000D02*
X192978000Y-116722000D01*
X192978000Y-116722000D02*
X192978000Y-119770000D01*
X148995000Y-95948000D02*
X149757000Y-95948000D01*
X149376000Y-96329000D02*
X149376000Y-95567000D01*
X149122000Y-93662000D02*
X152932000Y-93662000D01*
X148360000Y-97472000D02*
X148360000Y-94424000D01*
X149122000Y-93662000D02*
X148360000Y-94424000D01*
X149122000Y-98234000D02*
X152932000Y-98234000D01*
X149122000Y-98234000D02*
X148360000Y-97472000D01*
X152678000Y-95821000D02*
X152678000Y-96075000D01*
X152551000Y-96583000D02*
X152551000Y-95313000D01*
X152424000Y-95059000D02*
X152424000Y-96837000D01*
X152297000Y-94805000D02*
X152297000Y-97091000D01*
X152170000Y-97218000D02*
X152170000Y-94678000D01*
X152043000Y-94551000D02*
X152043000Y-97345000D01*
X151916000Y-97472000D02*
X151916000Y-94424000D01*
X151789000Y-97599000D02*
X151789000Y-94297000D01*
X152678000Y-95948000D02*
G75*
G03X152678000Y-95948000I-2032000J0D01*
G01*
X152932000Y-98234000D02*
X152932000Y-93662000D01*
X130707000Y-101028000D02*
X129310000Y-101028000D01*
X130961000Y-101155000D02*
X129183000Y-101155000D01*
X131342000Y-101282000D02*
X128802000Y-101282000D01*
X128675000Y-101409000D02*
X131469000Y-101409000D01*
X131596000Y-101536000D02*
X128548000Y-101536000D01*
X128421000Y-101663000D02*
X131723000Y-101663000D01*
X131850000Y-101790000D02*
X128294000Y-101790000D01*
X132485000Y-103314000D02*
G75*
G03X132485000Y-103314000I-2413000J0D01*
G01*
X132739000Y-100647000D02*
X132739000Y-105219000D01*
X132739000Y-105219000D02*
X131977000Y-105981000D01*
X131977000Y-105981000D02*
X128167000Y-105981000D01*
X128167000Y-105981000D02*
X127405000Y-105219000D01*
X127405000Y-105219000D02*
X127405000Y-100647000D01*
X127405000Y-100647000D02*
X132739000Y-100647000D01*
X130072000Y-105473000D02*
X130072000Y-104711000D01*
X130453000Y-105092000D02*
X129691000Y-105092000D01*
X137057000Y-116395000D02*
X137057000Y-115633000D01*
X137438000Y-116014000D02*
X136676000Y-116014000D01*
X134771000Y-116268000D02*
X134771000Y-112458000D01*
X138581000Y-117030000D02*
X135533000Y-117030000D01*
X134771000Y-116268000D02*
X135533000Y-117030000D01*
X139343000Y-116268000D02*
X139343000Y-112458000D01*
X139343000Y-116268000D02*
X138581000Y-117030000D01*
X136930000Y-112712000D02*
X137184000Y-112712000D01*
X137692000Y-112839000D02*
X136422000Y-112839000D01*
X136168000Y-112966000D02*
X137946000Y-112966000D01*
X135914000Y-113093000D02*
X138200000Y-113093000D01*
X138327000Y-113220000D02*
X135787000Y-113220000D01*
X135660000Y-113347000D02*
X138454000Y-113347000D01*
X138581000Y-113474000D02*
X135533000Y-113474000D01*
X138708000Y-113601000D02*
X135406000Y-113601000D01*
X139089000Y-114744000D02*
G75*
G03X139089000Y-114744000I-2032000J0D01*
G01*
X139343000Y-112458000D02*
X134771000Y-112458000D01*
X158647000Y-70548000D02*
X157250000Y-70548000D01*
X158901000Y-70675000D02*
X157123000Y-70675000D01*
X159282000Y-70802000D02*
X156742000Y-70802000D01*
X156615000Y-70929000D02*
X159409000Y-70929000D01*
X159536000Y-71056000D02*
X156488000Y-71056000D01*
X156361000Y-71183000D02*
X159663000Y-71183000D01*
X159790000Y-71310000D02*
X156234000Y-71310000D01*
X160425000Y-72834000D02*
G75*
G03X160425000Y-72834000I-2413000J0D01*
G01*
X160679000Y-70167000D02*
X160679000Y-74739000D01*
X160679000Y-74739000D02*
X159917000Y-75501000D01*
X159917000Y-75501000D02*
X156107000Y-75501000D01*
X156107000Y-75501000D02*
X155345000Y-74739000D01*
X155345000Y-74739000D02*
X155345000Y-70167000D01*
X155345000Y-70167000D02*
X160679000Y-70167000D01*
X158012000Y-74993000D02*
X158012000Y-74231000D01*
X158393000Y-74612000D02*
X157631000Y-74612000D01*
X201614000Y-116722000D02*
X202376000Y-116722000D01*
X201995000Y-117103000D02*
X201995000Y-116341000D01*
X201741000Y-114436000D02*
X205551000Y-114436000D01*
X200979000Y-118246000D02*
X200979000Y-115198000D01*
X201741000Y-114436000D02*
X200979000Y-115198000D01*
X201741000Y-119008000D02*
X205551000Y-119008000D01*
X201741000Y-119008000D02*
X200979000Y-118246000D01*
X205297000Y-116595000D02*
X205297000Y-116849000D01*
X205170000Y-117357000D02*
X205170000Y-116087000D01*
X205043000Y-115833000D02*
X205043000Y-117611000D01*
X204916000Y-115579000D02*
X204916000Y-117865000D01*
X204789000Y-117992000D02*
X204789000Y-115452000D01*
X204662000Y-115325000D02*
X204662000Y-118119000D01*
X204535000Y-118246000D02*
X204535000Y-115198000D01*
X204408000Y-118373000D02*
X204408000Y-115071000D01*
X205297000Y-116722000D02*
G75*
G03X205297000Y-116722000I-2032000J0D01*
G01*
X205551000Y-119008000D02*
X205551000Y-114436000D01*
X201614000Y-111705500D02*
X202376000Y-111705500D01*
X201995000Y-112086500D02*
X201995000Y-111324500D01*
X201741000Y-109419500D02*
X205551000Y-109419500D01*
X200979000Y-113229500D02*
X200979000Y-110181500D01*
X201741000Y-109419500D02*
X200979000Y-110181500D01*
X201741000Y-113991500D02*
X205551000Y-113991500D01*
X201741000Y-113991500D02*
X200979000Y-113229500D01*
X205297000Y-111578500D02*
X205297000Y-111832500D01*
X205170000Y-112340500D02*
X205170000Y-111070500D01*
X205043000Y-110816500D02*
X205043000Y-112594500D01*
X204916000Y-110562500D02*
X204916000Y-112848500D01*
X204789000Y-112975500D02*
X204789000Y-110435500D01*
X204662000Y-110308500D02*
X204662000Y-113102500D01*
X204535000Y-113229500D02*
X204535000Y-110181500D01*
X204408000Y-113356500D02*
X204408000Y-110054500D01*
X205297000Y-111705500D02*
G75*
G03X205297000Y-111705500I-2032000J0D01*
G01*
X205551000Y-113991500D02*
X205551000Y-109419500D01*
X130326000Y-82359000D02*
X130326000Y-83756000D01*
X130453000Y-82105000D02*
X130453000Y-83883000D01*
X130580000Y-81724000D02*
X130580000Y-84264000D01*
X130707000Y-84391000D02*
X130707000Y-81597000D01*
X130834000Y-81470000D02*
X130834000Y-84518000D01*
X130961000Y-84645000D02*
X130961000Y-81343000D01*
X131088000Y-81216000D02*
X131088000Y-84772000D01*
X135025000Y-82994000D02*
G75*
G03X135025000Y-82994000I-2413000J0D01*
G01*
X129945000Y-80327000D02*
X134517000Y-80327000D01*
X134517000Y-80327000D02*
X135279000Y-81089000D01*
X135279000Y-81089000D02*
X135279000Y-84899000D01*
X135279000Y-84899000D02*
X134517000Y-85661000D01*
X134517000Y-85661000D02*
X129945000Y-85661000D01*
X129945000Y-85661000D02*
X129945000Y-80327000D01*
X134771000Y-82994000D02*
X134009000Y-82994000D01*
X134390000Y-82613000D02*
X134390000Y-83375000D01*
X118896000Y-92519000D02*
X118896000Y-93916000D01*
X119023000Y-92265000D02*
X119023000Y-94043000D01*
X119150000Y-91884000D02*
X119150000Y-94424000D01*
X119277000Y-94551000D02*
X119277000Y-91757000D01*
X119404000Y-91630000D02*
X119404000Y-94678000D01*
X119531000Y-94805000D02*
X119531000Y-91503000D01*
X119658000Y-91376000D02*
X119658000Y-94932000D01*
X123595000Y-93154000D02*
G75*
G03X123595000Y-93154000I-2413000J0D01*
G01*
X118515000Y-90487000D02*
X123087000Y-90487000D01*
X123087000Y-90487000D02*
X123849000Y-91249000D01*
X123849000Y-91249000D02*
X123849000Y-95059000D01*
X123849000Y-95059000D02*
X123087000Y-95821000D01*
X123087000Y-95821000D02*
X118515000Y-95821000D01*
X118515000Y-95821000D02*
X118515000Y-90487000D01*
X123341000Y-93154000D02*
X122579000Y-93154000D01*
X122960000Y-92773000D02*
X122960000Y-93535000D01*
X197472000Y-99298000D02*
X194172000Y-99298000D01*
X194172000Y-99298000D02*
X194172000Y-105698000D01*
X194172000Y-105698000D02*
X197472000Y-105698000D01*
X197472000Y-105698000D02*
X197472000Y-99298000D01*
X197472000Y-99298000D02*
X196872000Y-99898000D01*
X147741334Y-133965143D02*
X147693715Y-134012762D01*
X147550858Y-134060381D01*
X147455620Y-134060381D01*
X147312762Y-134012762D01*
X147217524Y-133917524D01*
X147169905Y-133822286D01*
X147122286Y-133631810D01*
X147122286Y-133488952D01*
X147169905Y-133298476D01*
X147217524Y-133203238D01*
X147312762Y-133108000D01*
X147455620Y-133060381D01*
X147550858Y-133060381D01*
X147693715Y-133108000D01*
X147741334Y-133155619D01*
X148693715Y-134060381D02*
X148122286Y-134060381D01*
X148408000Y-134060381D02*
X148408000Y-133060381D01*
X148312762Y-133203238D01*
X148217524Y-133298476D01*
X148122286Y-133346095D01*
X141928572Y-132452381D02*
X141357143Y-132452381D01*
X141642857Y-132452381D02*
X141642857Y-131452381D01*
X141547619Y-131595238D01*
X141452381Y-131690476D01*
X141357143Y-131738095D01*
X142309524Y-131547619D02*
X142357143Y-131500000D01*
X142452381Y-131452381D01*
X142690477Y-131452381D01*
X142785715Y-131500000D01*
X142833334Y-131547619D01*
X142880953Y-131642857D01*
X142880953Y-131738095D01*
X142833334Y-131880952D01*
X142261905Y-132452381D01*
X142880953Y-132452381D01*
X143309524Y-131785714D02*
X143309524Y-132785714D01*
X143309524Y-131833333D02*
X143404762Y-131785714D01*
X143595239Y-131785714D01*
X143690477Y-131833333D01*
X143738096Y-131880952D01*
X143785715Y-131976190D01*
X143785715Y-132261905D01*
X143738096Y-132357143D01*
X143690477Y-132404762D01*
X143595239Y-132452381D01*
X143404762Y-132452381D01*
X143309524Y-132404762D01*
X144547620Y-131928571D02*
X144214286Y-131928571D01*
X144214286Y-132452381D02*
X144214286Y-131452381D01*
X144690477Y-131452381D01*
X153781334Y-103739143D02*
X153733715Y-103786762D01*
X153590858Y-103834381D01*
X153495620Y-103834381D01*
X153352762Y-103786762D01*
X153257524Y-103691524D01*
X153209905Y-103596286D01*
X153162286Y-103405810D01*
X153162286Y-103262952D01*
X153209905Y-103072476D01*
X153257524Y-102977238D01*
X153352762Y-102882000D01*
X153495620Y-102834381D01*
X153590858Y-102834381D01*
X153733715Y-102882000D01*
X153781334Y-102929619D01*
X154114667Y-102834381D02*
X154733715Y-102834381D01*
X154400381Y-103215333D01*
X154543239Y-103215333D01*
X154638477Y-103262952D01*
X154686096Y-103310571D01*
X154733715Y-103405810D01*
X154733715Y-103643905D01*
X154686096Y-103739143D01*
X154638477Y-103786762D01*
X154543239Y-103834381D01*
X154257524Y-103834381D01*
X154162286Y-103786762D01*
X154114667Y-103739143D01*
X152400381Y-99634381D02*
X151828952Y-99634381D01*
X152114666Y-99634381D02*
X152114666Y-98634381D01*
X152019428Y-98777238D01*
X151924190Y-98872476D01*
X151828952Y-98920095D01*
X153019428Y-98634381D02*
X153114667Y-98634381D01*
X153209905Y-98682000D01*
X153257524Y-98729619D01*
X153305143Y-98824857D01*
X153352762Y-99015333D01*
X153352762Y-99253429D01*
X153305143Y-99443905D01*
X153257524Y-99539143D01*
X153209905Y-99586762D01*
X153114667Y-99634381D01*
X153019428Y-99634381D01*
X152924190Y-99586762D01*
X152876571Y-99539143D01*
X152828952Y-99443905D01*
X152781333Y-99253429D01*
X152781333Y-99015333D01*
X152828952Y-98824857D01*
X152876571Y-98729619D01*
X152924190Y-98682000D01*
X153019428Y-98634381D01*
X153971809Y-98634381D02*
X154067048Y-98634381D01*
X154162286Y-98682000D01*
X154209905Y-98729619D01*
X154257524Y-98824857D01*
X154305143Y-99015333D01*
X154305143Y-99253429D01*
X154257524Y-99443905D01*
X154209905Y-99539143D01*
X154162286Y-99586762D01*
X154067048Y-99634381D01*
X153971809Y-99634381D01*
X153876571Y-99586762D01*
X153828952Y-99539143D01*
X153781333Y-99443905D01*
X153733714Y-99253429D01*
X153733714Y-99015333D01*
X153781333Y-98824857D01*
X153828952Y-98729619D01*
X153876571Y-98682000D01*
X153971809Y-98634381D01*
X154733714Y-98967714D02*
X154733714Y-99634381D01*
X154733714Y-99062952D02*
X154781333Y-99015333D01*
X154876571Y-98967714D01*
X155019429Y-98967714D01*
X155114667Y-99015333D01*
X155162286Y-99110571D01*
X155162286Y-99634381D01*
X155971810Y-99110571D02*
X155638476Y-99110571D01*
X155638476Y-99634381D02*
X155638476Y-98634381D01*
X156114667Y-98634381D01*
X147741334Y-128885143D02*
X147693715Y-128932762D01*
X147550858Y-128980381D01*
X147455620Y-128980381D01*
X147312762Y-128932762D01*
X147217524Y-128837524D01*
X147169905Y-128742286D01*
X147122286Y-128551810D01*
X147122286Y-128408952D01*
X147169905Y-128218476D01*
X147217524Y-128123238D01*
X147312762Y-128028000D01*
X147455620Y-127980381D01*
X147550858Y-127980381D01*
X147693715Y-128028000D01*
X147741334Y-128075619D01*
X148646096Y-127980381D02*
X148169905Y-127980381D01*
X148122286Y-128456571D01*
X148169905Y-128408952D01*
X148265143Y-128361333D01*
X148503239Y-128361333D01*
X148598477Y-128408952D01*
X148646096Y-128456571D01*
X148693715Y-128551810D01*
X148693715Y-128789905D01*
X148646096Y-128885143D01*
X148598477Y-128932762D01*
X148503239Y-128980381D01*
X148265143Y-128980381D01*
X148169905Y-128932762D01*
X148122286Y-128885143D01*
X141928572Y-126452381D02*
X141357143Y-126452381D01*
X141642857Y-126452381D02*
X141642857Y-125452381D01*
X141547619Y-125595238D01*
X141452381Y-125690476D01*
X141357143Y-125738095D01*
X142309524Y-125547619D02*
X142357143Y-125500000D01*
X142452381Y-125452381D01*
X142690477Y-125452381D01*
X142785715Y-125500000D01*
X142833334Y-125547619D01*
X142880953Y-125642857D01*
X142880953Y-125738095D01*
X142833334Y-125880952D01*
X142261905Y-126452381D01*
X142880953Y-126452381D01*
X143309524Y-125785714D02*
X143309524Y-126785714D01*
X143309524Y-125833333D02*
X143404762Y-125785714D01*
X143595239Y-125785714D01*
X143690477Y-125833333D01*
X143738096Y-125880952D01*
X143785715Y-125976190D01*
X143785715Y-126261905D01*
X143738096Y-126357143D01*
X143690477Y-126404762D01*
X143595239Y-126452381D01*
X143404762Y-126452381D01*
X143309524Y-126404762D01*
X144547620Y-125928571D02*
X144214286Y-125928571D01*
X144214286Y-126452381D02*
X144214286Y-125452381D01*
X144690477Y-125452381D01*
X185833334Y-109357143D02*
X185785715Y-109404762D01*
X185642858Y-109452381D01*
X185547620Y-109452381D01*
X185404762Y-109404762D01*
X185309524Y-109309524D01*
X185261905Y-109214286D01*
X185214286Y-109023810D01*
X185214286Y-108880952D01*
X185261905Y-108690476D01*
X185309524Y-108595238D01*
X185404762Y-108500000D01*
X185547620Y-108452381D01*
X185642858Y-108452381D01*
X185785715Y-108500000D01*
X185833334Y-108547619D01*
X186404762Y-108880952D02*
X186309524Y-108833333D01*
X186261905Y-108785714D01*
X186214286Y-108690476D01*
X186214286Y-108642857D01*
X186261905Y-108547619D01*
X186309524Y-108500000D01*
X186404762Y-108452381D01*
X186595239Y-108452381D01*
X186690477Y-108500000D01*
X186738096Y-108547619D01*
X186785715Y-108642857D01*
X186785715Y-108690476D01*
X186738096Y-108785714D01*
X186690477Y-108833333D01*
X186595239Y-108880952D01*
X186404762Y-108880952D01*
X186309524Y-108928571D01*
X186261905Y-108976190D01*
X186214286Y-109071429D01*
X186214286Y-109261905D01*
X186261905Y-109357143D01*
X186309524Y-109404762D01*
X186404762Y-109452381D01*
X186595239Y-109452381D01*
X186690477Y-109404762D01*
X186738096Y-109357143D01*
X186785715Y-109261905D01*
X186785715Y-109071429D01*
X186738096Y-108976190D01*
X186690477Y-108928571D01*
X186595239Y-108880952D01*
X188452381Y-109452381D02*
X187880952Y-109452381D01*
X188166666Y-109452381D02*
X188166666Y-108452381D01*
X188071428Y-108595238D01*
X187976190Y-108690476D01*
X187880952Y-108738095D01*
X189071428Y-108452381D02*
X189166667Y-108452381D01*
X189261905Y-108500000D01*
X189309524Y-108547619D01*
X189357143Y-108642857D01*
X189404762Y-108833333D01*
X189404762Y-109071429D01*
X189357143Y-109261905D01*
X189309524Y-109357143D01*
X189261905Y-109404762D01*
X189166667Y-109452381D01*
X189071428Y-109452381D01*
X188976190Y-109404762D01*
X188928571Y-109357143D01*
X188880952Y-109261905D01*
X188833333Y-109071429D01*
X188833333Y-108833333D01*
X188880952Y-108642857D01*
X188928571Y-108547619D01*
X188976190Y-108500000D01*
X189071428Y-108452381D01*
X190023809Y-108452381D02*
X190119048Y-108452381D01*
X190214286Y-108500000D01*
X190261905Y-108547619D01*
X190309524Y-108642857D01*
X190357143Y-108833333D01*
X190357143Y-109071429D01*
X190309524Y-109261905D01*
X190261905Y-109357143D01*
X190214286Y-109404762D01*
X190119048Y-109452381D01*
X190023809Y-109452381D01*
X189928571Y-109404762D01*
X189880952Y-109357143D01*
X189833333Y-109261905D01*
X189785714Y-109071429D01*
X189785714Y-108833333D01*
X189833333Y-108642857D01*
X189880952Y-108547619D01*
X189928571Y-108500000D01*
X190023809Y-108452381D01*
X190785714Y-108785714D02*
X190785714Y-109452381D01*
X190785714Y-108880952D02*
X190833333Y-108833333D01*
X190928571Y-108785714D01*
X191071429Y-108785714D01*
X191166667Y-108833333D01*
X191214286Y-108928571D01*
X191214286Y-109452381D01*
X192023810Y-108928571D02*
X191690476Y-108928571D01*
X191690476Y-109452381D02*
X191690476Y-108452381D01*
X192166667Y-108452381D01*
X164357143Y-105642857D02*
X164404762Y-105690476D01*
X164452381Y-105833333D01*
X164452381Y-105928571D01*
X164404762Y-106071429D01*
X164309524Y-106166667D01*
X164214286Y-106214286D01*
X164023810Y-106261905D01*
X163880952Y-106261905D01*
X163690476Y-106214286D01*
X163595238Y-106166667D01*
X163500000Y-106071429D01*
X163452381Y-105928571D01*
X163452381Y-105833333D01*
X163500000Y-105690476D01*
X163547619Y-105642857D01*
X164452381Y-104690476D02*
X164452381Y-105261905D01*
X164452381Y-104976191D02*
X163452381Y-104976191D01*
X163595238Y-105071429D01*
X163690476Y-105166667D01*
X163738095Y-105261905D01*
X164452381Y-103738095D02*
X164452381Y-104309524D01*
X164452381Y-104023810D02*
X163452381Y-104023810D01*
X163595238Y-104119048D01*
X163690476Y-104214286D01*
X163738095Y-104309524D01*
X164452381Y-102547619D02*
X164452381Y-103119048D01*
X164452381Y-102833334D02*
X163452381Y-102833334D01*
X163595238Y-102928572D01*
X163690476Y-103023810D01*
X163738095Y-103119048D01*
X163452381Y-101928572D02*
X163452381Y-101833333D01*
X163500000Y-101738095D01*
X163547619Y-101690476D01*
X163642857Y-101642857D01*
X163833333Y-101595238D01*
X164071429Y-101595238D01*
X164261905Y-101642857D01*
X164357143Y-101690476D01*
X164404762Y-101738095D01*
X164452381Y-101833333D01*
X164452381Y-101928572D01*
X164404762Y-102023810D01*
X164357143Y-102071429D01*
X164261905Y-102119048D01*
X164071429Y-102166667D01*
X163833333Y-102166667D01*
X163642857Y-102119048D01*
X163547619Y-102071429D01*
X163500000Y-102023810D01*
X163452381Y-101928572D01*
X163452381Y-100976191D02*
X163452381Y-100880952D01*
X163500000Y-100785714D01*
X163547619Y-100738095D01*
X163642857Y-100690476D01*
X163833333Y-100642857D01*
X164071429Y-100642857D01*
X164261905Y-100690476D01*
X164357143Y-100738095D01*
X164404762Y-100785714D01*
X164452381Y-100880952D01*
X164452381Y-100976191D01*
X164404762Y-101071429D01*
X164357143Y-101119048D01*
X164261905Y-101166667D01*
X164071429Y-101214286D01*
X163833333Y-101214286D01*
X163642857Y-101166667D01*
X163547619Y-101119048D01*
X163500000Y-101071429D01*
X163452381Y-100976191D01*
X163785714Y-100214286D02*
X164452381Y-100214286D01*
X163880952Y-100214286D02*
X163833333Y-100166667D01*
X163785714Y-100071429D01*
X163785714Y-99928571D01*
X163833333Y-99833333D01*
X163928571Y-99785714D01*
X164452381Y-99785714D01*
X163928571Y-98976190D02*
X163928571Y-99309524D01*
X164452381Y-99309524D02*
X163452381Y-99309524D01*
X163452381Y-98833333D01*
X120539143Y-101961143D02*
X120491524Y-102008762D01*
X120348667Y-102056381D01*
X120253429Y-102056381D01*
X120110571Y-102008762D01*
X120015333Y-101913524D01*
X119967714Y-101818286D01*
X119920095Y-101627810D01*
X119920095Y-101484952D01*
X119967714Y-101294476D01*
X120015333Y-101199238D01*
X120110571Y-101104000D01*
X120253429Y-101056381D01*
X120348667Y-101056381D01*
X120491524Y-101104000D01*
X120539143Y-101151619D01*
X121491524Y-102056381D02*
X120920095Y-102056381D01*
X121205809Y-102056381D02*
X121205809Y-101056381D01*
X121110571Y-101199238D01*
X121015333Y-101294476D01*
X120920095Y-101342095D01*
X122348667Y-101389714D02*
X122348667Y-102056381D01*
X122110571Y-101008762D02*
X121872476Y-101723048D01*
X122491524Y-101723048D01*
X119634381Y-97856381D02*
X119062952Y-97856381D01*
X119348666Y-97856381D02*
X119348666Y-96856381D01*
X119253428Y-96999238D01*
X119158190Y-97094476D01*
X119062952Y-97142095D01*
X120253428Y-96856381D02*
X120348667Y-96856381D01*
X120443905Y-96904000D01*
X120491524Y-96951619D01*
X120539143Y-97046857D01*
X120586762Y-97237333D01*
X120586762Y-97475429D01*
X120539143Y-97665905D01*
X120491524Y-97761143D01*
X120443905Y-97808762D01*
X120348667Y-97856381D01*
X120253428Y-97856381D01*
X120158190Y-97808762D01*
X120110571Y-97761143D01*
X120062952Y-97665905D01*
X120015333Y-97475429D01*
X120015333Y-97237333D01*
X120062952Y-97046857D01*
X120110571Y-96951619D01*
X120158190Y-96904000D01*
X120253428Y-96856381D01*
X121205809Y-96856381D02*
X121301048Y-96856381D01*
X121396286Y-96904000D01*
X121443905Y-96951619D01*
X121491524Y-97046857D01*
X121539143Y-97237333D01*
X121539143Y-97475429D01*
X121491524Y-97665905D01*
X121443905Y-97761143D01*
X121396286Y-97808762D01*
X121301048Y-97856381D01*
X121205809Y-97856381D01*
X121110571Y-97808762D01*
X121062952Y-97761143D01*
X121015333Y-97665905D01*
X120967714Y-97475429D01*
X120967714Y-97237333D01*
X121015333Y-97046857D01*
X121062952Y-96951619D01*
X121110571Y-96904000D01*
X121205809Y-96856381D01*
X121967714Y-97189714D02*
X121967714Y-97856381D01*
X121967714Y-97284952D02*
X122015333Y-97237333D01*
X122110571Y-97189714D01*
X122253429Y-97189714D01*
X122348667Y-97237333D01*
X122396286Y-97332571D01*
X122396286Y-97856381D01*
X123205810Y-97332571D02*
X122872476Y-97332571D01*
X122872476Y-97856381D02*
X122872476Y-96856381D01*
X123348667Y-96856381D01*
X117357143Y-111214285D02*
X117404762Y-111261904D01*
X117452381Y-111404761D01*
X117452381Y-111499999D01*
X117404762Y-111642857D01*
X117309524Y-111738095D01*
X117214286Y-111785714D01*
X117023810Y-111833333D01*
X116880952Y-111833333D01*
X116690476Y-111785714D01*
X116595238Y-111738095D01*
X116500000Y-111642857D01*
X116452381Y-111499999D01*
X116452381Y-111404761D01*
X116500000Y-111261904D01*
X116547619Y-111214285D01*
X116452381Y-110595238D02*
X116452381Y-110404761D01*
X116500000Y-110309523D01*
X116595238Y-110214285D01*
X116785714Y-110166666D01*
X117119048Y-110166666D01*
X117309524Y-110214285D01*
X117404762Y-110309523D01*
X117452381Y-110404761D01*
X117452381Y-110595238D01*
X117404762Y-110690476D01*
X117309524Y-110785714D01*
X117119048Y-110833333D01*
X116785714Y-110833333D01*
X116595238Y-110785714D01*
X116500000Y-110690476D01*
X116452381Y-110595238D01*
X117452381Y-109738095D02*
X116452381Y-109738095D01*
X117452381Y-109166666D01*
X116452381Y-109166666D01*
X117452381Y-108166666D02*
X117452381Y-108738095D01*
X117452381Y-108452381D02*
X116452381Y-108452381D01*
X116595238Y-108547619D01*
X116690476Y-108642857D01*
X116738095Y-108738095D01*
X121452381Y-117333333D02*
X122261905Y-117333333D01*
X122357143Y-117285714D01*
X122404762Y-117238095D01*
X122452381Y-117142857D01*
X122452381Y-116952380D01*
X122404762Y-116857142D01*
X122357143Y-116809523D01*
X122261905Y-116761904D01*
X121452381Y-116761904D01*
X122404762Y-116333333D02*
X122452381Y-116190476D01*
X122452381Y-115952380D01*
X122404762Y-115857142D01*
X122357143Y-115809523D01*
X122261905Y-115761904D01*
X122166667Y-115761904D01*
X122071429Y-115809523D01*
X122023810Y-115857142D01*
X121976190Y-115952380D01*
X121928571Y-116142857D01*
X121880952Y-116238095D01*
X121833333Y-116285714D01*
X121738095Y-116333333D01*
X121642857Y-116333333D01*
X121547619Y-116285714D01*
X121500000Y-116238095D01*
X121452381Y-116142857D01*
X121452381Y-115904761D01*
X121500000Y-115761904D01*
X121928571Y-114999999D02*
X121976190Y-114857142D01*
X122023810Y-114809523D01*
X122119048Y-114761904D01*
X122261905Y-114761904D01*
X122357143Y-114809523D01*
X122404762Y-114857142D01*
X122452381Y-114952380D01*
X122452381Y-115333333D01*
X121452381Y-115333333D01*
X121452381Y-114999999D01*
X121500000Y-114904761D01*
X121547619Y-114857142D01*
X121642857Y-114809523D01*
X121738095Y-114809523D01*
X121833333Y-114857142D01*
X121880952Y-114904761D01*
X121928571Y-114999999D01*
X121928571Y-115333333D01*
X122071429Y-114333333D02*
X122071429Y-113571428D01*
X122452381Y-113095238D02*
X121452381Y-113095238D01*
X122166667Y-112761904D01*
X121452381Y-112428571D01*
X122452381Y-112428571D01*
X122452381Y-111952381D02*
X121452381Y-111952381D01*
X122357143Y-110904762D02*
X122404762Y-110952381D01*
X122452381Y-111095238D01*
X122452381Y-111190476D01*
X122404762Y-111333334D01*
X122309524Y-111428572D01*
X122214286Y-111476191D01*
X122023810Y-111523810D01*
X121880952Y-111523810D01*
X121690476Y-111476191D01*
X121595238Y-111428572D01*
X121500000Y-111333334D01*
X121452381Y-111190476D01*
X121452381Y-111095238D01*
X121500000Y-110952381D01*
X121547619Y-110904762D01*
X122452381Y-109904762D02*
X121976190Y-110238096D01*
X122452381Y-110476191D02*
X121452381Y-110476191D01*
X121452381Y-110095238D01*
X121500000Y-110000000D01*
X121547619Y-109952381D01*
X121642857Y-109904762D01*
X121785714Y-109904762D01*
X121880952Y-109952381D01*
X121928571Y-110000000D01*
X121976190Y-110095238D01*
X121976190Y-110476191D01*
X121452381Y-109285715D02*
X121452381Y-109095238D01*
X121500000Y-109000000D01*
X121595238Y-108904762D01*
X121785714Y-108857143D01*
X122119048Y-108857143D01*
X122309524Y-108904762D01*
X122404762Y-109000000D01*
X122452381Y-109095238D01*
X122452381Y-109285715D01*
X122404762Y-109380953D01*
X122309524Y-109476191D01*
X122119048Y-109523810D01*
X121785714Y-109523810D01*
X121595238Y-109476191D01*
X121500000Y-109380953D01*
X121452381Y-109285715D01*
X122071429Y-108428572D02*
X122071429Y-107666667D01*
X121928571Y-106857143D02*
X121976190Y-106714286D01*
X122023810Y-106666667D01*
X122119048Y-106619048D01*
X122261905Y-106619048D01*
X122357143Y-106666667D01*
X122404762Y-106714286D01*
X122452381Y-106809524D01*
X122452381Y-107190477D01*
X121452381Y-107190477D01*
X121452381Y-106857143D01*
X121500000Y-106761905D01*
X121547619Y-106714286D01*
X121642857Y-106666667D01*
X121738095Y-106666667D01*
X121833333Y-106714286D01*
X121880952Y-106761905D01*
X121928571Y-106857143D01*
X121928571Y-107190477D01*
X151452381Y-64738095D02*
X150452381Y-64738095D01*
X150452381Y-64500000D01*
X150500000Y-64357142D01*
X150595238Y-64261904D01*
X150690476Y-64214285D01*
X150880952Y-64166666D01*
X151023810Y-64166666D01*
X151214286Y-64214285D01*
X151309524Y-64261904D01*
X151404762Y-64357142D01*
X151452381Y-64500000D01*
X151452381Y-64738095D01*
X151452381Y-63214285D02*
X151452381Y-63785714D01*
X151452381Y-63500000D02*
X150452381Y-63500000D01*
X150595238Y-63595238D01*
X150690476Y-63690476D01*
X150738095Y-63785714D01*
X140452381Y-65976190D02*
X139452381Y-65976190D01*
X139452381Y-65738095D01*
X139500000Y-65595237D01*
X139595238Y-65499999D01*
X139690476Y-65452380D01*
X139880952Y-65404761D01*
X140023810Y-65404761D01*
X140214286Y-65452380D01*
X140309524Y-65499999D01*
X140404762Y-65595237D01*
X140452381Y-65738095D01*
X140452381Y-65976190D01*
X140452381Y-64976190D02*
X139452381Y-64976190D01*
X139452381Y-64309524D02*
X139452381Y-64119047D01*
X139500000Y-64023809D01*
X139595238Y-63928571D01*
X139785714Y-63880952D01*
X140119048Y-63880952D01*
X140309524Y-63928571D01*
X140404762Y-64023809D01*
X140452381Y-64119047D01*
X140452381Y-64309524D01*
X140404762Y-64404762D01*
X140309524Y-64500000D01*
X140119048Y-64547619D01*
X139785714Y-64547619D01*
X139595238Y-64500000D01*
X139500000Y-64404762D01*
X139452381Y-64309524D01*
X140452381Y-63452381D02*
X139452381Y-63452381D01*
X139452381Y-63214286D01*
X139500000Y-63071428D01*
X139595238Y-62976190D01*
X139690476Y-62928571D01*
X139880952Y-62880952D01*
X140023810Y-62880952D01*
X140214286Y-62928571D01*
X140309524Y-62976190D01*
X140404762Y-63071428D01*
X140452381Y-63214286D01*
X140452381Y-63452381D01*
X139928571Y-62452381D02*
X139928571Y-62119047D01*
X140452381Y-61976190D02*
X140452381Y-62452381D01*
X139452381Y-62452381D01*
X139452381Y-61976190D01*
X201261905Y-123452381D02*
X201261905Y-122452381D01*
X201500000Y-122452381D01*
X201642858Y-122500000D01*
X201738096Y-122595238D01*
X201785715Y-122690476D01*
X201833334Y-122880952D01*
X201833334Y-123023810D01*
X201785715Y-123214286D01*
X201738096Y-123309524D01*
X201642858Y-123404762D01*
X201500000Y-123452381D01*
X201261905Y-123452381D01*
X202214286Y-122547619D02*
X202261905Y-122500000D01*
X202357143Y-122452381D01*
X202595239Y-122452381D01*
X202690477Y-122500000D01*
X202738096Y-122547619D01*
X202785715Y-122642857D01*
X202785715Y-122738095D01*
X202738096Y-122880952D01*
X202166667Y-123452381D01*
X202785715Y-123452381D01*
X198595238Y-125452381D02*
X198261904Y-124976190D01*
X198023809Y-125452381D02*
X198023809Y-124452381D01*
X198404762Y-124452381D01*
X198500000Y-124500000D01*
X198547619Y-124547619D01*
X198595238Y-124642857D01*
X198595238Y-124785714D01*
X198547619Y-124880952D01*
X198500000Y-124928571D01*
X198404762Y-124976190D01*
X198023809Y-124976190D01*
X199357143Y-124928571D02*
X199500000Y-124976190D01*
X199547619Y-125023810D01*
X199595238Y-125119048D01*
X199595238Y-125261905D01*
X199547619Y-125357143D01*
X199500000Y-125404762D01*
X199404762Y-125452381D01*
X199023809Y-125452381D01*
X199023809Y-124452381D01*
X199357143Y-124452381D01*
X199452381Y-124500000D01*
X199500000Y-124547619D01*
X199547619Y-124642857D01*
X199547619Y-124738095D01*
X199500000Y-124833333D01*
X199452381Y-124880952D01*
X199357143Y-124928571D01*
X199023809Y-124928571D01*
X200500000Y-124452381D02*
X200023809Y-124452381D01*
X199976190Y-124928571D01*
X200023809Y-124880952D01*
X200119047Y-124833333D01*
X200357143Y-124833333D01*
X200452381Y-124880952D01*
X200500000Y-124928571D01*
X200547619Y-125023810D01*
X200547619Y-125261905D01*
X200500000Y-125357143D01*
X200452381Y-125404762D01*
X200357143Y-125452381D01*
X200119047Y-125452381D01*
X200023809Y-125404762D01*
X199976190Y-125357143D01*
X200928571Y-124547619D02*
X200976190Y-124500000D01*
X201071428Y-124452381D01*
X201309524Y-124452381D01*
X201404762Y-124500000D01*
X201452381Y-124547619D01*
X201500000Y-124642857D01*
X201500000Y-124738095D01*
X201452381Y-124880952D01*
X200880952Y-125452381D01*
X201500000Y-125452381D01*
X202452381Y-125452381D02*
X201880952Y-125452381D01*
X202166666Y-125452381D02*
X202166666Y-124452381D01*
X202071428Y-124595238D01*
X201976190Y-124690476D01*
X201880952Y-124738095D01*
X202833333Y-125404762D02*
X202976190Y-125452381D01*
X203214286Y-125452381D01*
X203309524Y-125404762D01*
X203357143Y-125357143D01*
X203404762Y-125261905D01*
X203404762Y-125166667D01*
X203357143Y-125071429D01*
X203309524Y-125023810D01*
X203214286Y-124976190D01*
X203023809Y-124928571D01*
X202928571Y-124880952D01*
X202880952Y-124833333D01*
X202833333Y-124738095D01*
X202833333Y-124642857D01*
X202880952Y-124547619D01*
X202928571Y-124500000D01*
X203023809Y-124452381D01*
X203261905Y-124452381D01*
X203404762Y-124500000D01*
X203738095Y-124452381D02*
X204357143Y-124452381D01*
X204023809Y-124833333D01*
X204166667Y-124833333D01*
X204261905Y-124880952D01*
X204309524Y-124928571D01*
X204357143Y-125023810D01*
X204357143Y-125261905D01*
X204309524Y-125357143D01*
X204261905Y-125404762D01*
X204166667Y-125452381D01*
X203880952Y-125452381D01*
X203785714Y-125404762D01*
X203738095Y-125357143D01*
X204976190Y-124452381D02*
X205071429Y-124452381D01*
X205166667Y-124500000D01*
X205214286Y-124547619D01*
X205261905Y-124642857D01*
X205309524Y-124833333D01*
X205309524Y-125071429D01*
X205261905Y-125261905D01*
X205214286Y-125357143D01*
X205166667Y-125404762D01*
X205071429Y-125452381D01*
X204976190Y-125452381D01*
X204880952Y-125404762D01*
X204833333Y-125357143D01*
X204785714Y-125261905D01*
X204738095Y-125071429D01*
X204738095Y-124833333D01*
X204785714Y-124642857D01*
X204833333Y-124547619D01*
X204880952Y-124500000D01*
X204976190Y-124452381D01*
X205595238Y-124452381D02*
X206166667Y-124452381D01*
X205880952Y-125452381D02*
X205880952Y-124452381D01*
X207023810Y-125452381D02*
X206452381Y-125452381D01*
X206738095Y-125452381D02*
X206738095Y-124452381D01*
X206642857Y-124595238D01*
X206547619Y-124690476D01*
X206452381Y-124738095D01*
X207976191Y-124500000D02*
X207880953Y-124452381D01*
X207738096Y-124452381D01*
X207595238Y-124500000D01*
X207500000Y-124595238D01*
X207452381Y-124690476D01*
X207404762Y-124880952D01*
X207404762Y-125023810D01*
X207452381Y-125214286D01*
X207500000Y-125309524D01*
X207595238Y-125404762D01*
X207738096Y-125452381D01*
X207833334Y-125452381D01*
X207976191Y-125404762D01*
X208023810Y-125357143D01*
X208023810Y-125023810D01*
X207833334Y-125023810D01*
X151606381Y-90526666D02*
X151606381Y-91002857D01*
X150606381Y-91002857D01*
X151606381Y-89669523D02*
X151606381Y-90240952D01*
X151606381Y-89955238D02*
X150606381Y-89955238D01*
X150749238Y-90050476D01*
X150844476Y-90145714D01*
X150892095Y-90240952D01*
X152511381Y-92217143D02*
X152511381Y-91598095D01*
X152892333Y-91931429D01*
X152892333Y-91788571D01*
X152939952Y-91693333D01*
X152987571Y-91645714D01*
X153082810Y-91598095D01*
X153320905Y-91598095D01*
X153416143Y-91645714D01*
X153463762Y-91693333D01*
X153511381Y-91788571D01*
X153511381Y-92074286D01*
X153463762Y-92169524D01*
X153416143Y-92217143D01*
X152511381Y-91264762D02*
X152511381Y-90645714D01*
X152892333Y-90979048D01*
X152892333Y-90836190D01*
X152939952Y-90740952D01*
X152987571Y-90693333D01*
X153082810Y-90645714D01*
X153320905Y-90645714D01*
X153416143Y-90693333D01*
X153463762Y-90740952D01*
X153511381Y-90836190D01*
X153511381Y-91121905D01*
X153463762Y-91217143D01*
X153416143Y-91264762D01*
X152844714Y-90217143D02*
X153844714Y-90217143D01*
X153368524Y-89740952D02*
X153463762Y-89693333D01*
X153511381Y-89598095D01*
X153368524Y-90217143D02*
X153463762Y-90169524D01*
X153511381Y-90074286D01*
X153511381Y-89883809D01*
X153463762Y-89788571D01*
X153368524Y-89740952D01*
X152844714Y-89740952D01*
X153511381Y-89169524D02*
X152511381Y-89169524D01*
X152987571Y-89169524D02*
X152987571Y-88598095D01*
X153511381Y-88598095D02*
X152511381Y-88598095D01*
X193833334Y-115452381D02*
X193357143Y-115452381D01*
X193357143Y-114452381D01*
X194119048Y-114547619D02*
X194166667Y-114500000D01*
X194261905Y-114452381D01*
X194500001Y-114452381D01*
X194595239Y-114500000D01*
X194642858Y-114547619D01*
X194690477Y-114642857D01*
X194690477Y-114738095D01*
X194642858Y-114880952D01*
X194071429Y-115452381D01*
X194690477Y-115452381D01*
X193142857Y-112452381D02*
X193761905Y-112452381D01*
X193428571Y-112833333D01*
X193571429Y-112833333D01*
X193666667Y-112880952D01*
X193714286Y-112928571D01*
X193761905Y-113023810D01*
X193761905Y-113261905D01*
X193714286Y-113357143D01*
X193666667Y-113404762D01*
X193571429Y-113452381D01*
X193285714Y-113452381D01*
X193190476Y-113404762D01*
X193142857Y-113357143D01*
X194095238Y-112452381D02*
X194714286Y-112452381D01*
X194380952Y-112833333D01*
X194523810Y-112833333D01*
X194619048Y-112880952D01*
X194666667Y-112928571D01*
X194714286Y-113023810D01*
X194714286Y-113261905D01*
X194666667Y-113357143D01*
X194619048Y-113404762D01*
X194523810Y-113452381D01*
X194238095Y-113452381D01*
X194142857Y-113404762D01*
X194095238Y-113357143D01*
X195142857Y-112785714D02*
X195142857Y-113785714D01*
X195619048Y-113309524D02*
X195666667Y-113404762D01*
X195761905Y-113452381D01*
X195142857Y-113309524D02*
X195190476Y-113404762D01*
X195285714Y-113452381D01*
X195476191Y-113452381D01*
X195571429Y-113404762D01*
X195619048Y-113309524D01*
X195619048Y-112785714D01*
X196190476Y-113452381D02*
X196190476Y-112452381D01*
X196190476Y-112928571D02*
X196761905Y-112928571D01*
X196761905Y-113452381D02*
X196761905Y-112452381D01*
X120833334Y-105452381D02*
X120500000Y-104976190D01*
X120261905Y-105452381D02*
X120261905Y-104452381D01*
X120642858Y-104452381D01*
X120738096Y-104500000D01*
X120785715Y-104547619D01*
X120833334Y-104642857D01*
X120833334Y-104785714D01*
X120785715Y-104880952D01*
X120738096Y-104928571D01*
X120642858Y-104976190D01*
X120261905Y-104976190D01*
X121785715Y-105452381D02*
X121214286Y-105452381D01*
X121500000Y-105452381D02*
X121500000Y-104452381D01*
X121404762Y-104595238D01*
X121309524Y-104690476D01*
X121214286Y-104738095D01*
X123500000Y-105452381D02*
X123500000Y-104452381D01*
X123976190Y-105452381D02*
X123976190Y-104452381D01*
X124214285Y-104452381D01*
X124357143Y-104500000D01*
X124452381Y-104595238D01*
X124500000Y-104690476D01*
X124547619Y-104880952D01*
X124547619Y-105023810D01*
X124500000Y-105214286D01*
X124452381Y-105309524D01*
X124357143Y-105404762D01*
X124214285Y-105452381D01*
X123976190Y-105452381D01*
X125452381Y-140166666D02*
X124976190Y-140500000D01*
X125452381Y-140738095D02*
X124452381Y-140738095D01*
X124452381Y-140357142D01*
X124500000Y-140261904D01*
X124547619Y-140214285D01*
X124642857Y-140166666D01*
X124785714Y-140166666D01*
X124880952Y-140214285D01*
X124928571Y-140261904D01*
X124976190Y-140357142D01*
X124976190Y-140738095D01*
X124547619Y-139785714D02*
X124500000Y-139738095D01*
X124452381Y-139642857D01*
X124452381Y-139404761D01*
X124500000Y-139309523D01*
X124547619Y-139261904D01*
X124642857Y-139214285D01*
X124738095Y-139214285D01*
X124880952Y-139261904D01*
X125452381Y-139833333D01*
X125452381Y-139214285D01*
X124547619Y-137166667D02*
X124500000Y-137119048D01*
X124452381Y-137023810D01*
X124452381Y-136785714D01*
X124500000Y-136690476D01*
X124547619Y-136642857D01*
X124642857Y-136595238D01*
X124738095Y-136595238D01*
X124880952Y-136642857D01*
X125452381Y-137214286D01*
X125452381Y-136595238D01*
X124547619Y-136214286D02*
X124500000Y-136166667D01*
X124452381Y-136071429D01*
X124452381Y-135833333D01*
X124500000Y-135738095D01*
X124547619Y-135690476D01*
X124642857Y-135642857D01*
X124738095Y-135642857D01*
X124880952Y-135690476D01*
X125452381Y-136261905D01*
X125452381Y-135642857D01*
X125452381Y-135214286D02*
X124452381Y-135214286D01*
X125071429Y-135119048D02*
X125452381Y-134833333D01*
X124785714Y-134833333D02*
X125166667Y-135214286D01*
X125833334Y-109452381D02*
X125500000Y-108976190D01*
X125261905Y-109452381D02*
X125261905Y-108452381D01*
X125642858Y-108452381D01*
X125738096Y-108500000D01*
X125785715Y-108547619D01*
X125833334Y-108642857D01*
X125833334Y-108785714D01*
X125785715Y-108880952D01*
X125738096Y-108928571D01*
X125642858Y-108976190D01*
X125261905Y-108976190D01*
X126166667Y-108452381D02*
X126785715Y-108452381D01*
X126452381Y-108833333D01*
X126595239Y-108833333D01*
X126690477Y-108880952D01*
X126738096Y-108928571D01*
X126785715Y-109023810D01*
X126785715Y-109261905D01*
X126738096Y-109357143D01*
X126690477Y-109404762D01*
X126595239Y-109452381D01*
X126309524Y-109452381D01*
X126214286Y-109404762D01*
X126166667Y-109357143D01*
X132666667Y-108547619D02*
X132714286Y-108500000D01*
X132809524Y-108452381D01*
X133047620Y-108452381D01*
X133142858Y-108500000D01*
X133190477Y-108547619D01*
X133238096Y-108642857D01*
X133238096Y-108738095D01*
X133190477Y-108880952D01*
X132619048Y-109452381D01*
X133238096Y-109452381D01*
X133619048Y-108547619D02*
X133666667Y-108500000D01*
X133761905Y-108452381D01*
X134000001Y-108452381D01*
X134095239Y-108500000D01*
X134142858Y-108547619D01*
X134190477Y-108642857D01*
X134190477Y-108738095D01*
X134142858Y-108880952D01*
X133571429Y-109452381D01*
X134190477Y-109452381D01*
X134571429Y-109452381D02*
X134809524Y-109452381D01*
X134809524Y-109261905D01*
X134714286Y-109214286D01*
X134619048Y-109119048D01*
X134571429Y-108976190D01*
X134571429Y-108738095D01*
X134619048Y-108595238D01*
X134714286Y-108500000D01*
X134857143Y-108452381D01*
X135047620Y-108452381D01*
X135190477Y-108500000D01*
X135285715Y-108595238D01*
X135333334Y-108738095D01*
X135333334Y-108976190D01*
X135285715Y-109119048D01*
X135190477Y-109214286D01*
X135095239Y-109261905D01*
X135095239Y-109452381D01*
X135333334Y-109452381D01*
X125833334Y-112452381D02*
X125500000Y-111976190D01*
X125261905Y-112452381D02*
X125261905Y-111452381D01*
X125642858Y-111452381D01*
X125738096Y-111500000D01*
X125785715Y-111547619D01*
X125833334Y-111642857D01*
X125833334Y-111785714D01*
X125785715Y-111880952D01*
X125738096Y-111928571D01*
X125642858Y-111976190D01*
X125261905Y-111976190D01*
X126690477Y-111785714D02*
X126690477Y-112452381D01*
X126452381Y-111404762D02*
X126214286Y-112119048D01*
X126833334Y-112119048D01*
X132666667Y-111547619D02*
X132714286Y-111500000D01*
X132809524Y-111452381D01*
X133047620Y-111452381D01*
X133142858Y-111500000D01*
X133190477Y-111547619D01*
X133238096Y-111642857D01*
X133238096Y-111738095D01*
X133190477Y-111880952D01*
X132619048Y-112452381D01*
X133238096Y-112452381D01*
X133619048Y-111547619D02*
X133666667Y-111500000D01*
X133761905Y-111452381D01*
X134000001Y-111452381D01*
X134095239Y-111500000D01*
X134142858Y-111547619D01*
X134190477Y-111642857D01*
X134190477Y-111738095D01*
X134142858Y-111880952D01*
X133571429Y-112452381D01*
X134190477Y-112452381D01*
X134571429Y-112452381D02*
X134809524Y-112452381D01*
X134809524Y-112261905D01*
X134714286Y-112214286D01*
X134619048Y-112119048D01*
X134571429Y-111976190D01*
X134571429Y-111738095D01*
X134619048Y-111595238D01*
X134714286Y-111500000D01*
X134857143Y-111452381D01*
X135047620Y-111452381D01*
X135190477Y-111500000D01*
X135285715Y-111595238D01*
X135333334Y-111738095D01*
X135333334Y-111976190D01*
X135285715Y-112119048D01*
X135190477Y-112214286D01*
X135095239Y-112261905D01*
X135095239Y-112452381D01*
X135333334Y-112452381D01*
X185452381Y-119166666D02*
X184976190Y-119500000D01*
X185452381Y-119738095D02*
X184452381Y-119738095D01*
X184452381Y-119357142D01*
X184500000Y-119261904D01*
X184547619Y-119214285D01*
X184642857Y-119166666D01*
X184785714Y-119166666D01*
X184880952Y-119214285D01*
X184928571Y-119261904D01*
X184976190Y-119357142D01*
X184976190Y-119738095D01*
X184452381Y-118261904D02*
X184452381Y-118738095D01*
X184928571Y-118785714D01*
X184880952Y-118738095D01*
X184833333Y-118642857D01*
X184833333Y-118404761D01*
X184880952Y-118309523D01*
X184928571Y-118261904D01*
X185023810Y-118214285D01*
X185261905Y-118214285D01*
X185357143Y-118261904D01*
X185404762Y-118309523D01*
X185452381Y-118404761D01*
X185452381Y-118642857D01*
X185404762Y-118738095D01*
X185357143Y-118785714D01*
X184452381Y-116333333D02*
X184452381Y-116809524D01*
X184928571Y-116857143D01*
X184880952Y-116809524D01*
X184833333Y-116714286D01*
X184833333Y-116476190D01*
X184880952Y-116380952D01*
X184928571Y-116333333D01*
X185023810Y-116285714D01*
X185261905Y-116285714D01*
X185357143Y-116333333D01*
X185404762Y-116380952D01*
X185452381Y-116476190D01*
X185452381Y-116714286D01*
X185404762Y-116809524D01*
X185357143Y-116857143D01*
X185452381Y-115904762D02*
X185452381Y-115666667D01*
X185261905Y-115666667D01*
X185214286Y-115761905D01*
X185119048Y-115857143D01*
X184976190Y-115904762D01*
X184738095Y-115904762D01*
X184595238Y-115857143D01*
X184500000Y-115761905D01*
X184452381Y-115619048D01*
X184452381Y-115428571D01*
X184500000Y-115285714D01*
X184595238Y-115190476D01*
X184738095Y-115142857D01*
X184976190Y-115142857D01*
X185119048Y-115190476D01*
X185214286Y-115285714D01*
X185261905Y-115380952D01*
X185452381Y-115380952D01*
X185452381Y-115142857D01*
X198833334Y-108452381D02*
X198500000Y-107976190D01*
X198261905Y-108452381D02*
X198261905Y-107452381D01*
X198642858Y-107452381D01*
X198738096Y-107500000D01*
X198785715Y-107547619D01*
X198833334Y-107642857D01*
X198833334Y-107785714D01*
X198785715Y-107880952D01*
X198738096Y-107928571D01*
X198642858Y-107976190D01*
X198261905Y-107976190D01*
X199690477Y-107452381D02*
X199500000Y-107452381D01*
X199404762Y-107500000D01*
X199357143Y-107547619D01*
X199261905Y-107690476D01*
X199214286Y-107880952D01*
X199214286Y-108261905D01*
X199261905Y-108357143D01*
X199309524Y-108404762D01*
X199404762Y-108452381D01*
X199595239Y-108452381D01*
X199690477Y-108404762D01*
X199738096Y-108357143D01*
X199785715Y-108261905D01*
X199785715Y-108023810D01*
X199738096Y-107928571D01*
X199690477Y-107880952D01*
X199595239Y-107833333D01*
X199404762Y-107833333D01*
X199309524Y-107880952D01*
X199261905Y-107928571D01*
X199214286Y-108023810D01*
X200833333Y-107547619D02*
X200880952Y-107500000D01*
X200976190Y-107452381D01*
X201214286Y-107452381D01*
X201309524Y-107500000D01*
X201357143Y-107547619D01*
X201404762Y-107642857D01*
X201404762Y-107738095D01*
X201357143Y-107880952D01*
X200785714Y-108452381D01*
X201404762Y-108452381D01*
X201785714Y-107547619D02*
X201833333Y-107500000D01*
X201928571Y-107452381D01*
X202166667Y-107452381D01*
X202261905Y-107500000D01*
X202309524Y-107547619D01*
X202357143Y-107642857D01*
X202357143Y-107738095D01*
X202309524Y-107880952D01*
X201738095Y-108452381D01*
X202357143Y-108452381D01*
X202785714Y-108452381D02*
X202785714Y-107452381D01*
X202880952Y-108071429D02*
X203166667Y-108452381D01*
X203166667Y-107785714D02*
X202785714Y-108166667D01*
X145820095Y-75715381D02*
X145820095Y-76524905D01*
X145867714Y-76620143D01*
X145915333Y-76667762D01*
X146010571Y-76715381D01*
X146201048Y-76715381D01*
X146296286Y-76667762D01*
X146343905Y-76620143D01*
X146391524Y-76524905D01*
X146391524Y-75715381D01*
X147391524Y-76715381D02*
X146820095Y-76715381D01*
X147105809Y-76715381D02*
X147105809Y-75715381D01*
X147010571Y-75858238D01*
X146915333Y-75953476D01*
X146820095Y-76001095D01*
X144415334Y-74683381D02*
X143939143Y-74683381D01*
X143939143Y-73683381D01*
X144748667Y-74683381D02*
X144748667Y-73683381D01*
X145082001Y-74397667D01*
X145415334Y-73683381D01*
X145415334Y-74683381D01*
X145796286Y-73683381D02*
X146415334Y-73683381D01*
X146082000Y-74064333D01*
X146224858Y-74064333D01*
X146320096Y-74111952D01*
X146367715Y-74159571D01*
X146415334Y-74254810D01*
X146415334Y-74492905D01*
X146367715Y-74588143D01*
X146320096Y-74635762D01*
X146224858Y-74683381D01*
X145939143Y-74683381D01*
X145843905Y-74635762D01*
X145796286Y-74588143D01*
X147367715Y-74683381D02*
X146796286Y-74683381D01*
X147082000Y-74683381D02*
X147082000Y-73683381D01*
X146986762Y-73826238D01*
X146891524Y-73921476D01*
X146796286Y-73969095D01*
X147701048Y-73683381D02*
X148367715Y-73683381D01*
X147939143Y-74683381D01*
X148701048Y-74635762D02*
X148843905Y-74683381D01*
X149082001Y-74683381D01*
X149177239Y-74635762D01*
X149224858Y-74588143D01*
X149272477Y-74492905D01*
X149272477Y-74397667D01*
X149224858Y-74302429D01*
X149177239Y-74254810D01*
X149082001Y-74207190D01*
X148891524Y-74159571D01*
X148796286Y-74111952D01*
X148748667Y-74064333D01*
X148701048Y-73969095D01*
X148701048Y-73873857D01*
X148748667Y-73778619D01*
X148796286Y-73731000D01*
X148891524Y-73683381D01*
X149129620Y-73683381D01*
X149272477Y-73731000D01*
X155980095Y-104206381D02*
X155980095Y-105015905D01*
X156027714Y-105111143D01*
X156075333Y-105158762D01*
X156170571Y-105206381D01*
X156361048Y-105206381D01*
X156456286Y-105158762D01*
X156503905Y-105111143D01*
X156551524Y-105015905D01*
X156551524Y-104206381D01*
X156980095Y-104301619D02*
X157027714Y-104254000D01*
X157122952Y-104206381D01*
X157361048Y-104206381D01*
X157456286Y-104254000D01*
X157503905Y-104301619D01*
X157551524Y-104396857D01*
X157551524Y-104492095D01*
X157503905Y-104634952D01*
X156932476Y-105206381D01*
X157551524Y-105206381D01*
X152170571Y-119820667D02*
X152646762Y-119820667D01*
X152075333Y-120106381D02*
X152408666Y-119106381D01*
X152742000Y-120106381D01*
X152932476Y-119106381D02*
X153503905Y-119106381D01*
X153218190Y-120106381D02*
X153218190Y-119106381D01*
X153837238Y-120106381D02*
X153837238Y-119439714D01*
X153837238Y-119534952D02*
X153884857Y-119487333D01*
X153980095Y-119439714D01*
X154122953Y-119439714D01*
X154218191Y-119487333D01*
X154265810Y-119582571D01*
X154265810Y-120106381D01*
X154265810Y-119582571D02*
X154313429Y-119487333D01*
X154408667Y-119439714D01*
X154551524Y-119439714D01*
X154646762Y-119487333D01*
X154694381Y-119582571D01*
X154694381Y-120106381D01*
X155551524Y-120058762D02*
X155456286Y-120106381D01*
X155265809Y-120106381D01*
X155170571Y-120058762D01*
X155122952Y-119963524D01*
X155122952Y-119582571D01*
X155170571Y-119487333D01*
X155265809Y-119439714D01*
X155456286Y-119439714D01*
X155551524Y-119487333D01*
X155599143Y-119582571D01*
X155599143Y-119677810D01*
X155122952Y-119773048D01*
X156456286Y-119439714D02*
X156456286Y-120249238D01*
X156408667Y-120344476D01*
X156361048Y-120392095D01*
X156265809Y-120439714D01*
X156122952Y-120439714D01*
X156027714Y-120392095D01*
X156456286Y-120058762D02*
X156361048Y-120106381D01*
X156170571Y-120106381D01*
X156075333Y-120058762D01*
X156027714Y-120011143D01*
X155980095Y-119915905D01*
X155980095Y-119630190D01*
X156027714Y-119534952D01*
X156075333Y-119487333D01*
X156170571Y-119439714D01*
X156361048Y-119439714D01*
X156456286Y-119487333D01*
X157361048Y-120106381D02*
X157361048Y-119582571D01*
X157313429Y-119487333D01*
X157218191Y-119439714D01*
X157027714Y-119439714D01*
X156932476Y-119487333D01*
X157361048Y-120058762D02*
X157265810Y-120106381D01*
X157027714Y-120106381D01*
X156932476Y-120058762D01*
X156884857Y-119963524D01*
X156884857Y-119868286D01*
X156932476Y-119773048D01*
X157027714Y-119725429D01*
X157265810Y-119725429D01*
X157361048Y-119677810D01*
X157742000Y-119106381D02*
X158361048Y-119106381D01*
X158027714Y-119487333D01*
X158170572Y-119487333D01*
X158265810Y-119534952D01*
X158313429Y-119582571D01*
X158361048Y-119677810D01*
X158361048Y-119915905D01*
X158313429Y-120011143D01*
X158265810Y-120058762D01*
X158170572Y-120106381D01*
X157884857Y-120106381D01*
X157789619Y-120058762D01*
X157742000Y-120011143D01*
X158742000Y-119201619D02*
X158789619Y-119154000D01*
X158884857Y-119106381D01*
X159122953Y-119106381D01*
X159218191Y-119154000D01*
X159265810Y-119201619D01*
X159313429Y-119296857D01*
X159313429Y-119392095D01*
X159265810Y-119534952D01*
X158694381Y-120106381D01*
X159313429Y-120106381D01*
X159742000Y-119106381D02*
X159742000Y-119915905D01*
X159789619Y-120011143D01*
X159837238Y-120058762D01*
X159932476Y-120106381D01*
X160122953Y-120106381D01*
X160218191Y-120058762D01*
X160265810Y-120011143D01*
X160313429Y-119915905D01*
X160313429Y-119106381D01*
X161218191Y-119439714D02*
X161218191Y-120106381D01*
X160980095Y-119058762D02*
X160742000Y-119773048D01*
X161361048Y-119773048D01*
X191238095Y-121452381D02*
X191238095Y-122261905D01*
X191285714Y-122357143D01*
X191333333Y-122404762D01*
X191428571Y-122452381D01*
X191619048Y-122452381D01*
X191714286Y-122404762D01*
X191761905Y-122357143D01*
X191809524Y-122261905D01*
X191809524Y-121452381D01*
X192190476Y-121452381D02*
X192809524Y-121452381D01*
X192476190Y-121833333D01*
X192619048Y-121833333D01*
X192714286Y-121880952D01*
X192761905Y-121928571D01*
X192809524Y-122023810D01*
X192809524Y-122261905D01*
X192761905Y-122357143D01*
X192714286Y-122404762D01*
X192619048Y-122452381D01*
X192333333Y-122452381D01*
X192238095Y-122404762D01*
X192190476Y-122357143D01*
X188809524Y-124452381D02*
X188809524Y-123452381D01*
X189380953Y-124452381D01*
X189380953Y-123452381D01*
X190428572Y-124357143D02*
X190380953Y-124404762D01*
X190238096Y-124452381D01*
X190142858Y-124452381D01*
X190000000Y-124404762D01*
X189904762Y-124309524D01*
X189857143Y-124214286D01*
X189809524Y-124023810D01*
X189809524Y-123880952D01*
X189857143Y-123690476D01*
X189904762Y-123595238D01*
X190000000Y-123500000D01*
X190142858Y-123452381D01*
X190238096Y-123452381D01*
X190380953Y-123500000D01*
X190428572Y-123547619D01*
X190857143Y-124452381D02*
X190857143Y-123452381D01*
X191238096Y-123452381D01*
X191333334Y-123500000D01*
X191380953Y-123547619D01*
X191428572Y-123642857D01*
X191428572Y-123785714D01*
X191380953Y-123880952D01*
X191333334Y-123928571D01*
X191238096Y-123976190D01*
X190857143Y-123976190D01*
X192333334Y-123452381D02*
X191857143Y-123452381D01*
X191809524Y-123928571D01*
X191857143Y-123880952D01*
X191952381Y-123833333D01*
X192190477Y-123833333D01*
X192285715Y-123880952D01*
X192333334Y-123928571D01*
X192380953Y-124023810D01*
X192380953Y-124261905D01*
X192333334Y-124357143D01*
X192285715Y-124404762D01*
X192190477Y-124452381D01*
X191952381Y-124452381D01*
X191857143Y-124404762D01*
X191809524Y-124357143D01*
X193000000Y-123452381D02*
X193095239Y-123452381D01*
X193190477Y-123500000D01*
X193238096Y-123547619D01*
X193285715Y-123642857D01*
X193333334Y-123833333D01*
X193333334Y-124071429D01*
X193285715Y-124261905D01*
X193238096Y-124357143D01*
X193190477Y-124404762D01*
X193095239Y-124452381D01*
X193000000Y-124452381D01*
X192904762Y-124404762D01*
X192857143Y-124357143D01*
X192809524Y-124261905D01*
X192761905Y-124071429D01*
X192761905Y-123833333D01*
X192809524Y-123642857D01*
X192857143Y-123547619D01*
X192904762Y-123500000D01*
X193000000Y-123452381D01*
X193952381Y-123452381D02*
X194047620Y-123452381D01*
X194142858Y-123500000D01*
X194190477Y-123547619D01*
X194238096Y-123642857D01*
X194285715Y-123833333D01*
X194285715Y-124071429D01*
X194238096Y-124261905D01*
X194190477Y-124357143D01*
X194142858Y-124404762D01*
X194047620Y-124452381D01*
X193952381Y-124452381D01*
X193857143Y-124404762D01*
X193809524Y-124357143D01*
X193761905Y-124261905D01*
X193714286Y-124071429D01*
X193714286Y-123833333D01*
X193761905Y-123642857D01*
X193809524Y-123547619D01*
X193857143Y-123500000D01*
X193952381Y-123452381D01*
X194619048Y-123452381D02*
X195285715Y-123452381D01*
X194857143Y-124452381D01*
X150479334Y-99099143D02*
X150431715Y-99146762D01*
X150288858Y-99194381D01*
X150193620Y-99194381D01*
X150050762Y-99146762D01*
X149955524Y-99051524D01*
X149907905Y-98956286D01*
X149860286Y-98765810D01*
X149860286Y-98622952D01*
X149907905Y-98432476D01*
X149955524Y-98337238D01*
X150050762Y-98242000D01*
X150193620Y-98194381D01*
X150288858Y-98194381D01*
X150431715Y-98242000D01*
X150479334Y-98289619D01*
X150860286Y-98289619D02*
X150907905Y-98242000D01*
X151003143Y-98194381D01*
X151241239Y-98194381D01*
X151336477Y-98242000D01*
X151384096Y-98289619D01*
X151431715Y-98384857D01*
X151431715Y-98480095D01*
X151384096Y-98622952D01*
X150812667Y-99194381D01*
X151431715Y-99194381D01*
X133604143Y-103480666D02*
X133651762Y-103528285D01*
X133699381Y-103671142D01*
X133699381Y-103766380D01*
X133651762Y-103909238D01*
X133556524Y-104004476D01*
X133461286Y-104052095D01*
X133270810Y-104099714D01*
X133127952Y-104099714D01*
X132937476Y-104052095D01*
X132842238Y-104004476D01*
X132747000Y-103909238D01*
X132699381Y-103766380D01*
X132699381Y-103671142D01*
X132747000Y-103528285D01*
X132794619Y-103480666D01*
X133032714Y-102623523D02*
X133699381Y-102623523D01*
X132651762Y-102861619D02*
X133366048Y-103099714D01*
X133366048Y-102480666D01*
X140208143Y-114910666D02*
X140255762Y-114958285D01*
X140303381Y-115101142D01*
X140303381Y-115196380D01*
X140255762Y-115339238D01*
X140160524Y-115434476D01*
X140065286Y-115482095D01*
X139874810Y-115529714D01*
X139731952Y-115529714D01*
X139541476Y-115482095D01*
X139446238Y-115434476D01*
X139351000Y-115339238D01*
X139303381Y-115196380D01*
X139303381Y-115101142D01*
X139351000Y-114958285D01*
X139398619Y-114910666D01*
X139303381Y-114053523D02*
X139303381Y-114244000D01*
X139351000Y-114339238D01*
X139398619Y-114386857D01*
X139541476Y-114482095D01*
X139731952Y-114529714D01*
X140112905Y-114529714D01*
X140208143Y-114482095D01*
X140255762Y-114434476D01*
X140303381Y-114339238D01*
X140303381Y-114148761D01*
X140255762Y-114053523D01*
X140208143Y-114005904D01*
X140112905Y-113958285D01*
X139874810Y-113958285D01*
X139779571Y-114005904D01*
X139731952Y-114053523D01*
X139684333Y-114148761D01*
X139684333Y-114339238D01*
X139731952Y-114434476D01*
X139779571Y-114482095D01*
X139874810Y-114529714D01*
X161544143Y-73000666D02*
X161591762Y-73048285D01*
X161639381Y-73191142D01*
X161639381Y-73286380D01*
X161591762Y-73429238D01*
X161496524Y-73524476D01*
X161401286Y-73572095D01*
X161210810Y-73619714D01*
X161067952Y-73619714D01*
X160877476Y-73572095D01*
X160782238Y-73524476D01*
X160687000Y-73429238D01*
X160639381Y-73286380D01*
X160639381Y-73191142D01*
X160687000Y-73048285D01*
X160734619Y-73000666D01*
X160639381Y-72667333D02*
X160639381Y-72000666D01*
X161639381Y-72429238D01*
X203098334Y-119873143D02*
X203050715Y-119920762D01*
X202907858Y-119968381D01*
X202812620Y-119968381D01*
X202669762Y-119920762D01*
X202574524Y-119825524D01*
X202526905Y-119730286D01*
X202479286Y-119539810D01*
X202479286Y-119396952D01*
X202526905Y-119206476D01*
X202574524Y-119111238D01*
X202669762Y-119016000D01*
X202812620Y-118968381D01*
X202907858Y-118968381D01*
X203050715Y-119016000D01*
X203098334Y-119063619D01*
X203574524Y-119968381D02*
X203765000Y-119968381D01*
X203860239Y-119920762D01*
X203907858Y-119873143D01*
X204003096Y-119730286D01*
X204050715Y-119539810D01*
X204050715Y-119158857D01*
X204003096Y-119063619D01*
X203955477Y-119016000D01*
X203860239Y-118968381D01*
X203669762Y-118968381D01*
X203574524Y-119016000D01*
X203526905Y-119063619D01*
X203479286Y-119158857D01*
X203479286Y-119396952D01*
X203526905Y-119492190D01*
X203574524Y-119539810D01*
X203669762Y-119587429D01*
X203860239Y-119587429D01*
X203955477Y-119539810D01*
X204003096Y-119492190D01*
X204050715Y-119396952D01*
X202622143Y-114856643D02*
X202574524Y-114904262D01*
X202431667Y-114951881D01*
X202336429Y-114951881D01*
X202193571Y-114904262D01*
X202098333Y-114809024D01*
X202050714Y-114713786D01*
X202003095Y-114523310D01*
X202003095Y-114380452D01*
X202050714Y-114189976D01*
X202098333Y-114094738D01*
X202193571Y-113999500D01*
X202336429Y-113951881D01*
X202431667Y-113951881D01*
X202574524Y-113999500D01*
X202622143Y-114047119D01*
X203574524Y-114951881D02*
X203003095Y-114951881D01*
X203288809Y-114951881D02*
X203288809Y-113951881D01*
X203193571Y-114094738D01*
X203098333Y-114189976D01*
X203003095Y-114237595D01*
X204193571Y-113951881D02*
X204288810Y-113951881D01*
X204384048Y-113999500D01*
X204431667Y-114047119D01*
X204479286Y-114142357D01*
X204526905Y-114332833D01*
X204526905Y-114570929D01*
X204479286Y-114761405D01*
X204431667Y-114856643D01*
X204384048Y-114904262D01*
X204288810Y-114951881D01*
X204193571Y-114951881D01*
X204098333Y-114904262D01*
X204050714Y-114856643D01*
X204003095Y-114761405D01*
X203955476Y-114570929D01*
X203955476Y-114332833D01*
X204003095Y-114142357D01*
X204050714Y-114047119D01*
X204098333Y-113999500D01*
X204193571Y-113951881D01*
X131969143Y-80176143D02*
X131921524Y-80223762D01*
X131778667Y-80271381D01*
X131683429Y-80271381D01*
X131540571Y-80223762D01*
X131445333Y-80128524D01*
X131397714Y-80033286D01*
X131350095Y-79842810D01*
X131350095Y-79699952D01*
X131397714Y-79509476D01*
X131445333Y-79414238D01*
X131540571Y-79319000D01*
X131683429Y-79271381D01*
X131778667Y-79271381D01*
X131921524Y-79319000D01*
X131969143Y-79366619D01*
X132921524Y-80271381D02*
X132350095Y-80271381D01*
X132635809Y-80271381D02*
X132635809Y-79271381D01*
X132540571Y-79414238D01*
X132445333Y-79509476D01*
X132350095Y-79557095D01*
X133302476Y-79366619D02*
X133350095Y-79319000D01*
X133445333Y-79271381D01*
X133683429Y-79271381D01*
X133778667Y-79319000D01*
X133826286Y-79366619D01*
X133873905Y-79461857D01*
X133873905Y-79557095D01*
X133826286Y-79699952D01*
X133254857Y-80271381D01*
X133873905Y-80271381D01*
X120539143Y-90336143D02*
X120491524Y-90383762D01*
X120348667Y-90431381D01*
X120253429Y-90431381D01*
X120110571Y-90383762D01*
X120015333Y-90288524D01*
X119967714Y-90193286D01*
X119920095Y-90002810D01*
X119920095Y-89859952D01*
X119967714Y-89669476D01*
X120015333Y-89574238D01*
X120110571Y-89479000D01*
X120253429Y-89431381D01*
X120348667Y-89431381D01*
X120491524Y-89479000D01*
X120539143Y-89526619D01*
X121491524Y-90431381D02*
X120920095Y-90431381D01*
X121205809Y-90431381D02*
X121205809Y-89431381D01*
X121110571Y-89574238D01*
X121015333Y-89669476D01*
X120920095Y-89717095D01*
X121824857Y-89431381D02*
X122443905Y-89431381D01*
X122110571Y-89812333D01*
X122253429Y-89812333D01*
X122348667Y-89859952D01*
X122396286Y-89907571D01*
X122443905Y-90002810D01*
X122443905Y-90240905D01*
X122396286Y-90336143D01*
X122348667Y-90383762D01*
X122253429Y-90431381D01*
X121967714Y-90431381D01*
X121872476Y-90383762D01*
X121824857Y-90336143D01*
X192178571Y-97142857D02*
X193392857Y-97142857D01*
X193535714Y-97071429D01*
X193607143Y-97000000D01*
X193678571Y-96857143D01*
X193678571Y-96571429D01*
X193607143Y-96428571D01*
X193535714Y-96357143D01*
X193392857Y-96285714D01*
X192178571Y-96285714D01*
X192678571Y-94928571D02*
X193678571Y-94928571D01*
X192107143Y-95285714D02*
X193178571Y-95642857D01*
X193178571Y-94714285D01*
X196678571Y-97535714D02*
X195178571Y-97535714D01*
X196678571Y-96678571D01*
X195178571Y-96678571D01*
X196678571Y-95892857D02*
X196678571Y-95607142D01*
X196607143Y-95464285D01*
X196535714Y-95392857D01*
X196321429Y-95249999D01*
X196035714Y-95178571D01*
X195464286Y-95178571D01*
X195321429Y-95249999D01*
X195250000Y-95321428D01*
X195178571Y-95464285D01*
X195178571Y-95749999D01*
X195250000Y-95892857D01*
X195321429Y-95964285D01*
X195464286Y-96035714D01*
X195821429Y-96035714D01*
X195964286Y-95964285D01*
X196035714Y-95892857D01*
X196107143Y-95749999D01*
X196107143Y-95464285D01*
X196035714Y-95321428D01*
X195964286Y-95249999D01*
X195821429Y-95178571D01*
X195178571Y-94678571D02*
X195178571Y-93750000D01*
X195750000Y-94250000D01*
X195750000Y-94035714D01*
X195821429Y-93892857D01*
X195892857Y-93821428D01*
X196035714Y-93750000D01*
X196392857Y-93750000D01*
X196535714Y-93821428D01*
X196607143Y-93892857D01*
X196678571Y-94035714D01*
X196678571Y-94464286D01*
X196607143Y-94607143D01*
X196535714Y-94678571D01*
X196821429Y-93464286D02*
X196821429Y-92321429D01*
X196678571Y-91250000D02*
X196678571Y-91964286D01*
X195178571Y-91964286D01*
X196535714Y-89892857D02*
X196607143Y-89964286D01*
X196678571Y-90178572D01*
X196678571Y-90321429D01*
X196607143Y-90535714D01*
X196464286Y-90678572D01*
X196321429Y-90750000D01*
X196035714Y-90821429D01*
X195821429Y-90821429D01*
X195535714Y-90750000D01*
X195392857Y-90678572D01*
X195250000Y-90535714D01*
X195178571Y-90321429D01*
X195178571Y-90178572D01*
X195250000Y-89964286D01*
X195321429Y-89892857D01*
X196678571Y-89250000D02*
X195178571Y-89250000D01*
X195178571Y-88892857D01*
X195250000Y-88678572D01*
X195392857Y-88535714D01*
X195535714Y-88464286D01*
X195821429Y-88392857D01*
X196035714Y-88392857D01*
X196321429Y-88464286D01*
X196464286Y-88535714D01*
X196607143Y-88678572D01*
X196678571Y-88892857D01*
X196678571Y-89250000D01*
M02*
