G04 #@! TF.FileFunction,Copper,L1,Top,Signal*
%FSLAX46Y46*%
G04 Gerber Fmt 4.6, Leading zero omitted, Abs format (unit mm)*
G04 Created by KiCad (PCBNEW 0.201501102116+5363~20~ubuntu14.04.1-product) date Wed 21 Jan 2015 18:10:41 CET*
%MOMM*%
G01*
G04 APERTURE LIST*
%ADD10C,0.100000*%
%ADD11C,0.300000*%
%ADD12R,1.500000X1.250000*%
%ADD13R,1.500000X1.300000*%
%ADD14R,1.250000X1.500000*%
%ADD15R,1.350000X0.400000*%
%ADD16O,0.950000X1.250000*%
%ADD17O,1.550000X1.000000*%
%ADD18R,1.397000X3.810000*%
%ADD19R,0.600000X0.700000*%
%ADD20R,2.032000X3.556000*%
%ADD21R,3.556000X2.032000*%
%ADD22R,2.032000X1.727200*%
%ADD23O,2.032000X1.727200*%
%ADD24R,2.235200X2.235200*%
%ADD25R,1.727200X2.032000*%
%ADD26O,1.727200X2.032000*%
%ADD27R,1.727200X1.727200*%
%ADD28O,1.727200X1.727200*%
%ADD29R,2.032000X2.032000*%
%ADD30O,2.032000X2.032000*%
%ADD31R,1.300000X1.500000*%
%ADD32R,1.143000X2.286000*%
%ADD33R,10.800080X6.997700*%
%ADD34R,1.500000X0.550000*%
%ADD35R,0.550000X1.500000*%
%ADD36R,0.762000X0.508000*%
%ADD37O,2.032000X2.540000*%
%ADD38C,1.501140*%
%ADD39R,2.600960X1.600200*%
%ADD40R,1.600200X2.999740*%
%ADD41R,1.600200X2.600960*%
%ADD42R,2.999740X1.600200*%
%ADD43O,0.800000X0.200000*%
%ADD44R,0.800000X0.200000*%
%ADD45R,1.000000X0.800000*%
%ADD46C,0.889000*%
%ADD47C,0.200000*%
%ADD48C,0.381000*%
%ADD49C,1.270000*%
%ADD50C,0.508000*%
%ADD51C,0.762000*%
%ADD52C,0.254000*%
G04 APERTURE END LIST*
D10*
D11*
X185392858Y-72278571D02*
X185392858Y-70778571D01*
X185964286Y-70778571D01*
X186107144Y-70850000D01*
X186178572Y-70921429D01*
X186250001Y-71064286D01*
X186250001Y-71278571D01*
X186178572Y-71421429D01*
X186107144Y-71492857D01*
X185964286Y-71564286D01*
X185392858Y-71564286D01*
X186892858Y-72278571D02*
X186892858Y-71278571D01*
X186892858Y-71564286D02*
X186964286Y-71421429D01*
X187035715Y-71350000D01*
X187178572Y-71278571D01*
X187321429Y-71278571D01*
X188035715Y-72278571D02*
X187892857Y-72207143D01*
X187821429Y-72135714D01*
X187750000Y-71992857D01*
X187750000Y-71564286D01*
X187821429Y-71421429D01*
X187892857Y-71350000D01*
X188035715Y-71278571D01*
X188250000Y-71278571D01*
X188392857Y-71350000D01*
X188464286Y-71421429D01*
X188535715Y-71564286D01*
X188535715Y-71992857D01*
X188464286Y-72135714D01*
X188392857Y-72207143D01*
X188250000Y-72278571D01*
X188035715Y-72278571D01*
X188964286Y-71278571D02*
X189535715Y-71278571D01*
X189178572Y-70778571D02*
X189178572Y-72064286D01*
X189250000Y-72207143D01*
X189392858Y-72278571D01*
X189535715Y-72278571D01*
X190250001Y-72278571D02*
X190107143Y-72207143D01*
X190035715Y-72135714D01*
X189964286Y-71992857D01*
X189964286Y-71564286D01*
X190035715Y-71421429D01*
X190107143Y-71350000D01*
X190250001Y-71278571D01*
X190464286Y-71278571D01*
X190607143Y-71350000D01*
X190678572Y-71421429D01*
X190750001Y-71564286D01*
X190750001Y-71992857D01*
X190678572Y-72135714D01*
X190607143Y-72207143D01*
X190464286Y-72278571D01*
X190250001Y-72278571D01*
X191392858Y-72278571D02*
X191392858Y-70778571D01*
X192035715Y-72278571D02*
X192035715Y-71492857D01*
X191964286Y-71350000D01*
X191821429Y-71278571D01*
X191607144Y-71278571D01*
X191464286Y-71350000D01*
X191392858Y-71421429D01*
X193392858Y-71278571D02*
X193392858Y-72278571D01*
X192750001Y-71278571D02*
X192750001Y-72064286D01*
X192821429Y-72207143D01*
X192964287Y-72278571D01*
X193178572Y-72278571D01*
X193321429Y-72207143D01*
X193392858Y-72135714D01*
X194107144Y-72278571D02*
X194107144Y-70778571D01*
X194107144Y-71350000D02*
X194250001Y-71278571D01*
X194535715Y-71278571D01*
X194678572Y-71350000D01*
X194750001Y-71421429D01*
X194821430Y-71564286D01*
X194821430Y-71992857D01*
X194750001Y-72135714D01*
X194678572Y-72207143D01*
X194535715Y-72278571D01*
X194250001Y-72278571D01*
X194107144Y-72207143D01*
X196464287Y-71278571D02*
X196821430Y-72278571D01*
X197178572Y-71278571D01*
X198035715Y-70778571D02*
X198178572Y-70778571D01*
X198321429Y-70850000D01*
X198392858Y-70921429D01*
X198464287Y-71064286D01*
X198535715Y-71350000D01*
X198535715Y-71707143D01*
X198464287Y-71992857D01*
X198392858Y-72135714D01*
X198321429Y-72207143D01*
X198178572Y-72278571D01*
X198035715Y-72278571D01*
X197892858Y-72207143D01*
X197821429Y-72135714D01*
X197750001Y-71992857D01*
X197678572Y-71707143D01*
X197678572Y-71350000D01*
X197750001Y-71064286D01*
X197821429Y-70921429D01*
X197892858Y-70850000D01*
X198035715Y-70778571D01*
X199178572Y-72135714D02*
X199250000Y-72207143D01*
X199178572Y-72278571D01*
X199107143Y-72207143D01*
X199178572Y-72135714D01*
X199178572Y-72278571D01*
X200678572Y-72278571D02*
X199821429Y-72278571D01*
X200250001Y-72278571D02*
X200250001Y-70778571D01*
X200107144Y-70992857D01*
X199964286Y-71135714D01*
X199821429Y-71207143D01*
X188892857Y-74607143D02*
X189107143Y-74678571D01*
X189464286Y-74678571D01*
X189607143Y-74607143D01*
X189678572Y-74535714D01*
X189750000Y-74392857D01*
X189750000Y-74250000D01*
X189678572Y-74107143D01*
X189607143Y-74035714D01*
X189464286Y-73964286D01*
X189178572Y-73892857D01*
X189035714Y-73821429D01*
X188964286Y-73750000D01*
X188892857Y-73607143D01*
X188892857Y-73464286D01*
X188964286Y-73321429D01*
X189035714Y-73250000D01*
X189178572Y-73178571D01*
X189535714Y-73178571D01*
X189750000Y-73250000D01*
X191392857Y-74821429D02*
X191250000Y-74750000D01*
X191107143Y-74607143D01*
X190892857Y-74392857D01*
X190750000Y-74321429D01*
X190607143Y-74321429D01*
X190678571Y-74678571D02*
X190535714Y-74607143D01*
X190392857Y-74464286D01*
X190321428Y-74178571D01*
X190321428Y-73678571D01*
X190392857Y-73392857D01*
X190535714Y-73250000D01*
X190678571Y-73178571D01*
X190964285Y-73178571D01*
X191107143Y-73250000D01*
X191250000Y-73392857D01*
X191321428Y-73678571D01*
X191321428Y-74178571D01*
X191250000Y-74464286D01*
X191107143Y-74607143D01*
X190964285Y-74678571D01*
X190678571Y-74678571D01*
X191821429Y-73178571D02*
X192750000Y-73178571D01*
X192250000Y-73750000D01*
X192464286Y-73750000D01*
X192607143Y-73821429D01*
X192678572Y-73892857D01*
X192750000Y-74035714D01*
X192750000Y-74392857D01*
X192678572Y-74535714D01*
X192607143Y-74607143D01*
X192464286Y-74678571D01*
X192035714Y-74678571D01*
X191892857Y-74607143D01*
X191821429Y-74535714D01*
X193392857Y-74678571D02*
X193392857Y-73178571D01*
X193964285Y-73178571D01*
X194107143Y-73250000D01*
X194178571Y-73321429D01*
X194250000Y-73464286D01*
X194250000Y-73678571D01*
X194178571Y-73821429D01*
X194107143Y-73892857D01*
X193964285Y-73964286D01*
X193392857Y-73964286D01*
X194892857Y-74678571D02*
X194892857Y-73178571D01*
X194892857Y-73892857D02*
X195750000Y-73892857D01*
X195750000Y-74678571D02*
X195750000Y-73178571D01*
X196392857Y-74250000D02*
X197107143Y-74250000D01*
X196250000Y-74678571D02*
X196750000Y-73178571D01*
X197250000Y-74678571D01*
X183499999Y-76078571D02*
X183785713Y-77078571D01*
X184071427Y-76364286D01*
X184357142Y-77078571D01*
X184642856Y-76078571D01*
X185071428Y-76078571D02*
X185357142Y-77078571D01*
X185642856Y-76364286D01*
X185928571Y-77078571D01*
X186214285Y-76078571D01*
X186642857Y-76078571D02*
X186928571Y-77078571D01*
X187214285Y-76364286D01*
X187500000Y-77078571D01*
X187785714Y-76078571D01*
X188357143Y-76935714D02*
X188428571Y-77007143D01*
X188357143Y-77078571D01*
X188285714Y-77007143D01*
X188357143Y-76935714D01*
X188357143Y-77078571D01*
X189071429Y-77078571D02*
X189071429Y-76078571D01*
X189071429Y-76221429D02*
X189142857Y-76150000D01*
X189285715Y-76078571D01*
X189500000Y-76078571D01*
X189642857Y-76150000D01*
X189714286Y-76292857D01*
X189714286Y-77078571D01*
X189714286Y-76292857D02*
X189785715Y-76150000D01*
X189928572Y-76078571D01*
X190142857Y-76078571D01*
X190285715Y-76150000D01*
X190357143Y-76292857D01*
X190357143Y-77078571D01*
X191714286Y-77078571D02*
X191714286Y-76292857D01*
X191642857Y-76150000D01*
X191500000Y-76078571D01*
X191214286Y-76078571D01*
X191071429Y-76150000D01*
X191714286Y-77007143D02*
X191571429Y-77078571D01*
X191214286Y-77078571D01*
X191071429Y-77007143D01*
X191000000Y-76864286D01*
X191000000Y-76721429D01*
X191071429Y-76578571D01*
X191214286Y-76507143D01*
X191571429Y-76507143D01*
X191714286Y-76435714D01*
X192428572Y-77078571D02*
X192428572Y-75578571D01*
X192571429Y-76507143D02*
X193000000Y-77078571D01*
X193000000Y-76078571D02*
X192428572Y-76650000D01*
X194285715Y-77078571D02*
X194285715Y-75578571D01*
X194285715Y-77007143D02*
X194142858Y-77078571D01*
X193857144Y-77078571D01*
X193714286Y-77007143D01*
X193642858Y-76935714D01*
X193571429Y-76792857D01*
X193571429Y-76364286D01*
X193642858Y-76221429D01*
X193714286Y-76150000D01*
X193857144Y-76078571D01*
X194142858Y-76078571D01*
X194285715Y-76150000D01*
X195642858Y-77078571D02*
X195642858Y-76292857D01*
X195571429Y-76150000D01*
X195428572Y-76078571D01*
X195142858Y-76078571D01*
X195000001Y-76150000D01*
X195642858Y-77007143D02*
X195500001Y-77078571D01*
X195142858Y-77078571D01*
X195000001Y-77007143D01*
X194928572Y-76864286D01*
X194928572Y-76721429D01*
X195000001Y-76578571D01*
X195142858Y-76507143D01*
X195500001Y-76507143D01*
X195642858Y-76435714D01*
X197000001Y-77078571D02*
X197000001Y-76292857D01*
X196928572Y-76150000D01*
X196785715Y-76078571D01*
X196500001Y-76078571D01*
X196357144Y-76150000D01*
X197000001Y-77007143D02*
X196857144Y-77078571D01*
X196500001Y-77078571D01*
X196357144Y-77007143D01*
X196285715Y-76864286D01*
X196285715Y-76721429D01*
X196357144Y-76578571D01*
X196500001Y-76507143D01*
X196857144Y-76507143D01*
X197000001Y-76435714D01*
X197714287Y-77078571D02*
X197714287Y-76078571D01*
X197714287Y-76221429D02*
X197785715Y-76150000D01*
X197928573Y-76078571D01*
X198142858Y-76078571D01*
X198285715Y-76150000D01*
X198357144Y-76292857D01*
X198357144Y-77078571D01*
X198357144Y-76292857D02*
X198428573Y-76150000D01*
X198571430Y-76078571D01*
X198785715Y-76078571D01*
X198928573Y-76150000D01*
X199000001Y-76292857D01*
X199000001Y-77078571D01*
X199714287Y-76935714D02*
X199785715Y-77007143D01*
X199714287Y-77078571D01*
X199642858Y-77007143D01*
X199714287Y-76935714D01*
X199714287Y-77078571D01*
X201000001Y-77007143D02*
X200857144Y-77078571D01*
X200571430Y-77078571D01*
X200428573Y-77007143D01*
X200357144Y-76864286D01*
X200357144Y-76292857D01*
X200428573Y-76150000D01*
X200571430Y-76078571D01*
X200857144Y-76078571D01*
X201000001Y-76150000D01*
X201071430Y-76292857D01*
X201071430Y-76435714D01*
X200357144Y-76578571D01*
X202357144Y-76078571D02*
X202357144Y-77078571D01*
X201714287Y-76078571D02*
X201714287Y-76864286D01*
X201785715Y-77007143D01*
X201928573Y-77078571D01*
X202142858Y-77078571D01*
X202285715Y-77007143D01*
X202357144Y-76935714D01*
D12*
X149158000Y-131508000D03*
X146658000Y-131508000D03*
D13*
X155298000Y-101282000D03*
X152598000Y-101282000D03*
D12*
X149158000Y-126428000D03*
X146658000Y-126428000D03*
X189275000Y-106371500D03*
X186775000Y-106371500D03*
D14*
X165927000Y-104764000D03*
X165927000Y-102264000D03*
D12*
X122432000Y-99504000D03*
X119932000Y-99504000D03*
D15*
X120215000Y-108927000D03*
X120215000Y-109577000D03*
X120215000Y-110227000D03*
X120215000Y-110877000D03*
X120215000Y-111527000D03*
D16*
X120215000Y-107727000D03*
X120215000Y-112727000D03*
D17*
X117515000Y-106727000D03*
X117515000Y-113727000D03*
D18*
X147598000Y-63944000D03*
X143026000Y-63944000D03*
D19*
X200850500Y-120976500D03*
X202250500Y-120976500D03*
D20*
X149884000Y-90360000D03*
X154964000Y-90360000D03*
D21*
X197677000Y-115960000D03*
X197677000Y-121040000D03*
D22*
X118810000Y-135010000D03*
D23*
X118810000Y-137550000D03*
X118810000Y-140090000D03*
D24*
X146582000Y-105600000D03*
D22*
X141502000Y-96964000D03*
D23*
X141502000Y-94424000D03*
X141502000Y-91884000D03*
D22*
X118810000Y-126120000D03*
D23*
X118810000Y-128660000D03*
X118810000Y-131200000D03*
D25*
X165800000Y-71129000D03*
D26*
X168340000Y-71129000D03*
X170880000Y-71129000D03*
D25*
X129810000Y-119500000D03*
D26*
X127270000Y-119500000D03*
X124730000Y-119500000D03*
X122190000Y-119500000D03*
D25*
X153100000Y-143900000D03*
D26*
X150560000Y-143900000D03*
X148020000Y-143900000D03*
D25*
X159450000Y-143900000D03*
D26*
X161990000Y-143900000D03*
X164530000Y-143900000D03*
D27*
X122452000Y-79184000D03*
D28*
X122452000Y-81724000D03*
X124992000Y-79184000D03*
X124992000Y-81724000D03*
D29*
X118810000Y-145170000D03*
D30*
X121350000Y-145170000D03*
D13*
X121102000Y-103314000D03*
X123802000Y-103314000D03*
D31*
X122620000Y-137470000D03*
X122620000Y-140170000D03*
D13*
X131422000Y-109664000D03*
X128722000Y-109664000D03*
X131422000Y-112204000D03*
X128722000Y-112204000D03*
D31*
X187263000Y-116515000D03*
X187263000Y-119215000D03*
D13*
X204297500Y-105546000D03*
X201597500Y-105546000D03*
D32*
X146582000Y-70294000D03*
D33*
X146582000Y-81089000D03*
D32*
X144042000Y-70294000D03*
X149122000Y-70294000D03*
D34*
X151042000Y-108204000D03*
X151042000Y-109004000D03*
X151042000Y-109804000D03*
X151042000Y-110604000D03*
X151042000Y-111404000D03*
X151042000Y-112204000D03*
X151042000Y-113004000D03*
X151042000Y-113804000D03*
X151042000Y-114604000D03*
X151042000Y-115404000D03*
X151042000Y-116204000D03*
D35*
X152742000Y-117904000D03*
X153542000Y-117904000D03*
X154342000Y-117904000D03*
X155142000Y-117904000D03*
X155942000Y-117904000D03*
X156742000Y-117904000D03*
X157542000Y-117904000D03*
X158342000Y-117904000D03*
X159142000Y-117904000D03*
X159942000Y-117904000D03*
X160742000Y-117904000D03*
D34*
X162442000Y-116204000D03*
X162442000Y-115404000D03*
X162442000Y-114604000D03*
X162442000Y-113804000D03*
X162442000Y-113004000D03*
X162442000Y-112204000D03*
X162442000Y-111404000D03*
X162442000Y-110604000D03*
X162442000Y-109804000D03*
X162442000Y-109004000D03*
X162442000Y-108204000D03*
D35*
X160742000Y-106504000D03*
X159942000Y-106504000D03*
X159142000Y-106504000D03*
X158342000Y-106504000D03*
X157542000Y-106504000D03*
X156742000Y-106504000D03*
X155942000Y-106504000D03*
X155142000Y-106504000D03*
X154342000Y-106504000D03*
X153542000Y-106504000D03*
X152742000Y-106504000D03*
D36*
X190819000Y-117293500D03*
X190819000Y-119198500D03*
X193359000Y-117293500D03*
X190819000Y-118246000D03*
X193359000Y-119198500D03*
D37*
X131342000Y-91884000D03*
X128802000Y-91884000D03*
X133882000Y-91884000D03*
D38*
X153242000Y-126273060D03*
X153242000Y-131154940D03*
D39*
X148845140Y-95948000D03*
X152446860Y-95948000D03*
D40*
X130072000Y-105513640D03*
X130072000Y-101114360D03*
D41*
X137057000Y-116544860D03*
X137057000Y-112943140D03*
D40*
X158012000Y-75033640D03*
X158012000Y-70634360D03*
D39*
X201464140Y-116722000D03*
X205065860Y-116722000D03*
X201464140Y-111705500D03*
X205065860Y-111705500D03*
D42*
X134811640Y-82994000D03*
X130412360Y-82994000D03*
X123381640Y-93154000D03*
X118982360Y-93154000D03*
D22*
X169483000Y-91830000D03*
D23*
X169483000Y-94370000D03*
X169483000Y-96910000D03*
X169483000Y-99450000D03*
D22*
X169610000Y-131200000D03*
D23*
X169610000Y-128660000D03*
X169610000Y-126120000D03*
X169610000Y-123580000D03*
D43*
X197972000Y-100298000D03*
D44*
X197972000Y-100698000D03*
X197972000Y-101098000D03*
X197972000Y-101498000D03*
X197972000Y-101898000D03*
X197972000Y-102298000D03*
X197972000Y-102698000D03*
X197972000Y-103098000D03*
X197972000Y-103498000D03*
X197972000Y-103898000D03*
X197972000Y-104298000D03*
X197972000Y-104698000D03*
X193572000Y-104698000D03*
X193572000Y-104298000D03*
X193572000Y-103898000D03*
X193572000Y-103498000D03*
X193572000Y-103098000D03*
X193572000Y-102698000D03*
X193572000Y-102298000D03*
X193572000Y-101898000D03*
X193572000Y-101498000D03*
X193572000Y-101098000D03*
X193572000Y-100698000D03*
X193572000Y-100298000D03*
D45*
X197172000Y-106198000D03*
X194372000Y-106198000D03*
X197172000Y-98798000D03*
X194372000Y-98798000D03*
D46*
X125541000Y-105546000D03*
X138241000Y-105546000D03*
X168022500Y-104911000D03*
X144400500Y-125358000D03*
X150750500Y-86750000D03*
X197740500Y-113293000D03*
X170626000Y-117484000D03*
X201868000Y-98434000D03*
X168594000Y-118500000D03*
X173928000Y-109102000D03*
X161736000Y-120532000D03*
X205932000Y-98434000D03*
X165038000Y-119008000D03*
X175960000Y-109102000D03*
X183072000Y-108594000D03*
X154116000Y-138058000D03*
X207710000Y-104784000D03*
X155386000Y-136788000D03*
X160212000Y-136026000D03*
X180024000Y-108594000D03*
X164784000Y-134756000D03*
X207710000Y-101482000D03*
X170689500Y-105673000D03*
X170435500Y-113102500D03*
X204979500Y-107832000D03*
X194311500Y-109991000D03*
X169356000Y-106943000D03*
X169356000Y-114436000D03*
D47*
X186097000Y-103898000D02*
X185993000Y-104002000D01*
D48*
X153242000Y-131154940D02*
X154669060Y-131154940D01*
X156742000Y-129082000D02*
X156742000Y-117904000D01*
X154669060Y-131154940D02*
X156742000Y-129082000D01*
X149158000Y-131508000D02*
X152888940Y-131508000D01*
X152888940Y-131508000D02*
X153242000Y-131154940D01*
D49*
X207964000Y-100212000D02*
X207964000Y-95036000D01*
X172000000Y-67000000D02*
X158012000Y-67000000D01*
X175000000Y-70000000D02*
X172000000Y-67000000D01*
X175000000Y-94000000D02*
X175000000Y-70000000D01*
X176000000Y-95000000D02*
X175000000Y-94000000D01*
X207928000Y-95000000D02*
X176000000Y-95000000D01*
X207964000Y-95036000D02*
X207928000Y-95000000D01*
D50*
X205678000Y-100212000D02*
X207964000Y-100212000D01*
D47*
X197972000Y-101498000D02*
X204392000Y-101498000D01*
X204392000Y-101498000D02*
X205678000Y-100212000D01*
D50*
X207964000Y-100212000D02*
X208218000Y-100212000D01*
X208218000Y-100212000D02*
X208980000Y-100974000D01*
X208980000Y-100974000D02*
X208980000Y-111451500D01*
X208980000Y-111451500D02*
X207964000Y-112467500D01*
D47*
X197972000Y-103498000D02*
X202296500Y-103498000D01*
D48*
X205065860Y-109759860D02*
X205065860Y-111705500D01*
X202947500Y-107641500D02*
X205065860Y-109759860D01*
X202947500Y-104149000D02*
X202947500Y-107641500D01*
D47*
X202296500Y-103498000D02*
X202947500Y-104149000D01*
X193572000Y-103498000D02*
X189648500Y-103498000D01*
X189648500Y-103498000D02*
X186775000Y-106371500D01*
D51*
X130072000Y-101114360D02*
X118542640Y-101114360D01*
X118542640Y-101114360D02*
X117515000Y-102142000D01*
D48*
X155142000Y-117904000D02*
X155142000Y-116775500D01*
X155713500Y-116204000D02*
X162442000Y-116204000D01*
X155142000Y-116775500D02*
X155713500Y-116204000D01*
X153542000Y-106504000D02*
X153542000Y-107575500D01*
X159942000Y-107848000D02*
X159942000Y-106504000D01*
X159450000Y-108340000D02*
X159942000Y-107848000D01*
X154306500Y-108340000D02*
X159450000Y-108340000D01*
X153542000Y-107575500D02*
X154306500Y-108340000D01*
D51*
X205065860Y-116722000D02*
X207456000Y-116722000D01*
X207456000Y-116722000D02*
X207964000Y-117230000D01*
X207964000Y-123643500D02*
X207964000Y-117230000D01*
X207964000Y-117230000D02*
X207964000Y-112467500D01*
X207964000Y-112467500D02*
X207202000Y-111705500D01*
X207202000Y-111705500D02*
X205065860Y-111705500D01*
X165800000Y-71129000D02*
X165355500Y-71129000D01*
X165355500Y-71129000D02*
X164860860Y-70634360D01*
X164860860Y-70634360D02*
X158012000Y-70634360D01*
X152446860Y-95948000D02*
X160158000Y-95948000D01*
X163514000Y-73415000D02*
X165800000Y-71129000D01*
X163514000Y-92592000D02*
X163514000Y-73415000D01*
X160158000Y-95948000D02*
X163514000Y-92592000D01*
X152598000Y-101282000D02*
X152598000Y-96099140D01*
X152598000Y-96099140D02*
X152446860Y-95948000D01*
D48*
X155142000Y-117904000D02*
X155142000Y-120903000D01*
X148363000Y-124723000D02*
X146658000Y-126428000D01*
X151322000Y-124723000D02*
X148363000Y-124723000D01*
X155142000Y-120903000D02*
X151322000Y-124723000D01*
X159942000Y-106504000D02*
X159942000Y-105689000D01*
X159942000Y-105689000D02*
X163367000Y-102264000D01*
X163367000Y-102264000D02*
X165927000Y-102264000D01*
D51*
X146658000Y-131508000D02*
X146658000Y-139039000D01*
X144464000Y-141233000D02*
X144464000Y-148345000D01*
X146658000Y-139039000D02*
X144464000Y-141233000D01*
X146658000Y-126428000D02*
X146658000Y-131508000D01*
D48*
X190819000Y-118246000D02*
X191708000Y-118246000D01*
X192025500Y-118563500D02*
X192025500Y-123643500D01*
X191708000Y-118246000D02*
X192025500Y-118563500D01*
D51*
X187263000Y-119215000D02*
X187263000Y-120913000D01*
X189993500Y-123643500D02*
X192025500Y-123643500D01*
X192025500Y-123643500D02*
X207964000Y-123643500D01*
X207964000Y-123643500D02*
X208027500Y-123643500D01*
X187263000Y-120913000D02*
X189993500Y-123643500D01*
D49*
X204598500Y-148281500D02*
X160847000Y-148281500D01*
X208027500Y-144852500D02*
X204598500Y-148281500D01*
X208027500Y-123643500D02*
X208027500Y-144852500D01*
X161990000Y-143900000D02*
X161990000Y-147138500D01*
X160847000Y-148281500D02*
X151258500Y-148281500D01*
X161990000Y-147138500D02*
X160847000Y-148281500D01*
X121350000Y-145170000D02*
X131637000Y-145170000D01*
X131637000Y-145170000D02*
X134812000Y-148345000D01*
X134812000Y-148345000D02*
X144464000Y-148345000D01*
X153100000Y-146440000D02*
X153100000Y-143900000D01*
X151195000Y-148345000D02*
X151258500Y-148281500D01*
X144464000Y-148345000D02*
X151195000Y-148345000D01*
X151258500Y-148281500D02*
X153100000Y-146440000D01*
X118810000Y-145170000D02*
X121350000Y-145170000D01*
X149122000Y-70294000D02*
X157671640Y-70294000D01*
X157671640Y-70294000D02*
X158012000Y-70634360D01*
X122452000Y-81724000D02*
X119626000Y-81724000D01*
X119626000Y-81724000D02*
X118429000Y-80527000D01*
X118429000Y-80527000D02*
X118429000Y-65414000D01*
X118429000Y-65414000D02*
X125414000Y-58429000D01*
X125414000Y-58429000D02*
X154878000Y-58429000D01*
X154878000Y-58429000D02*
X158012000Y-61563000D01*
X158012000Y-65668000D02*
X158012000Y-67000000D01*
X158012000Y-61563000D02*
X158012000Y-65668000D01*
X158012000Y-67000000D02*
X158012000Y-70634360D01*
X118982360Y-93154000D02*
X118982360Y-85193640D01*
X118982360Y-85193640D02*
X122452000Y-81724000D01*
D51*
X119932000Y-99504000D02*
X118375000Y-99504000D01*
X118375000Y-99504000D02*
X117515000Y-100364000D01*
D49*
X117515000Y-106727000D02*
X117515000Y-102142000D01*
X117515000Y-102142000D02*
X117515000Y-100364000D01*
X117515000Y-100364000D02*
X117515000Y-94621360D01*
X117515000Y-94621360D02*
X118982360Y-93154000D01*
X117515000Y-113727000D02*
X117515000Y-106727000D01*
D50*
X120215000Y-112727000D02*
X120215000Y-111527000D01*
D49*
X117515000Y-113727000D02*
X119215000Y-113727000D01*
X119215000Y-113727000D02*
X120215000Y-112727000D01*
X137057000Y-112943140D02*
X136431860Y-112943140D01*
X136431860Y-112943140D02*
X133923000Y-115452000D01*
X119240000Y-115452000D02*
X117515000Y-113727000D01*
X133923000Y-115452000D02*
X119240000Y-115452000D01*
X118810000Y-126120000D02*
X117921000Y-126120000D01*
X117921000Y-126120000D02*
X117515000Y-125714000D01*
X117515000Y-125714000D02*
X117515000Y-113727000D01*
X118810000Y-135010000D02*
X117413000Y-135010000D01*
X117413000Y-126120000D02*
X118810000Y-126120000D01*
X116397000Y-127136000D02*
X117413000Y-126120000D01*
X116397000Y-133994000D02*
X116397000Y-127136000D01*
X117413000Y-135010000D02*
X116397000Y-133994000D01*
X118810000Y-145170000D02*
X118175000Y-145170000D01*
X118175000Y-145170000D02*
X116270000Y-143265000D01*
X116270000Y-143265000D02*
X116270000Y-135645000D01*
X116270000Y-135645000D02*
X116905000Y-135010000D01*
X116905000Y-135010000D02*
X118810000Y-135010000D01*
D50*
X151042000Y-111404000D02*
X138596140Y-111404000D01*
X138596140Y-111404000D02*
X137057000Y-112943140D01*
D47*
X197972000Y-101498000D02*
X196645000Y-101498000D01*
X196280000Y-101863000D02*
X196280000Y-103498000D01*
X196645000Y-101498000D02*
X196280000Y-101863000D01*
X193572000Y-102298000D02*
X194937000Y-102298000D01*
X195137000Y-102498000D02*
X195137000Y-103498000D01*
X194937000Y-102298000D02*
X195137000Y-102498000D01*
X193572000Y-103498000D02*
X195137000Y-103498000D01*
X195137000Y-103498000D02*
X196280000Y-103498000D01*
X196280000Y-103498000D02*
X197972000Y-103498000D01*
D48*
X153542000Y-106504000D02*
X153542000Y-102226000D01*
X153542000Y-102226000D02*
X152598000Y-101282000D01*
X152598000Y-96099140D02*
X152446860Y-95948000D01*
D49*
X124992000Y-81724000D02*
X129142360Y-81724000D01*
X131342000Y-83923640D02*
X131342000Y-91884000D01*
X129142360Y-81724000D02*
X131342000Y-83923640D01*
X122452000Y-81724000D02*
X124992000Y-81724000D01*
D48*
X162442000Y-115404000D02*
X159084500Y-115404000D01*
X152742000Y-107855000D02*
X152742000Y-106504000D01*
X153481000Y-108594000D02*
X152742000Y-107855000D01*
X153481000Y-109800500D02*
X153481000Y-108594000D01*
X159084500Y-115404000D02*
X153481000Y-109800500D01*
D49*
X148845140Y-95948000D02*
X148845140Y-91398860D01*
X148845140Y-91398860D02*
X149884000Y-90360000D01*
D48*
X152742000Y-106504000D02*
X152742000Y-104807000D01*
X148845140Y-100910140D02*
X148845140Y-95948000D01*
X152742000Y-104807000D02*
X148845140Y-100910140D01*
X154342000Y-106504000D02*
X154342000Y-102238000D01*
X154342000Y-102238000D02*
X155298000Y-101282000D01*
D49*
X141502000Y-96964000D02*
X141502000Y-102285000D01*
X125573360Y-105513640D02*
X130072000Y-105513640D01*
X125541000Y-105546000D02*
X125573360Y-105513640D01*
X141502000Y-102285000D02*
X138241000Y-105546000D01*
D50*
X151042000Y-109004000D02*
X133562360Y-109004000D01*
X133562360Y-109004000D02*
X130072000Y-105513640D01*
D48*
X151042000Y-113004000D02*
X152373000Y-113004000D01*
X152113000Y-109004000D02*
X151042000Y-109004000D01*
X152592000Y-109483000D02*
X152113000Y-109004000D01*
X152592000Y-112785000D02*
X152592000Y-109483000D01*
X152373000Y-113004000D02*
X152592000Y-112785000D01*
X130072000Y-105513640D02*
X130136640Y-105513640D01*
X130136640Y-105513640D02*
X133627000Y-109004000D01*
X133627000Y-109004000D02*
X151042000Y-109004000D01*
X120215000Y-108927000D02*
X126658640Y-108927000D01*
X126658640Y-108927000D02*
X130072000Y-105513640D01*
X153242000Y-126273060D02*
X154026440Y-126273060D01*
X155942000Y-124357500D02*
X155942000Y-117904000D01*
X154026440Y-126273060D02*
X155942000Y-124357500D01*
X149158000Y-126428000D02*
X153087060Y-126428000D01*
X153087060Y-126428000D02*
X153242000Y-126273060D01*
D50*
X151042000Y-112204000D02*
X143775000Y-112204000D01*
X139434140Y-116544860D02*
X137057000Y-116544860D01*
X143775000Y-112204000D02*
X139434140Y-116544860D01*
D47*
X197972000Y-103898000D02*
X199949500Y-103898000D01*
X199949500Y-103898000D02*
X201597500Y-105546000D01*
X193572000Y-103898000D02*
X190625500Y-103898000D01*
X189275000Y-105248500D02*
X189275000Y-106371500D01*
X190625500Y-103898000D02*
X189275000Y-105248500D01*
D51*
X167875500Y-104764000D02*
X165927000Y-104764000D01*
X168022500Y-104911000D02*
X167875500Y-104764000D01*
X144400500Y-125358000D02*
X144464000Y-125294500D01*
X144464000Y-125294500D02*
X144464000Y-124342000D01*
X144464000Y-124342000D02*
X144972000Y-123834000D01*
X144972000Y-123834000D02*
X144337000Y-123834000D01*
X158012000Y-87185000D02*
X151185500Y-87185000D01*
X151185500Y-87185000D02*
X150750500Y-86750000D01*
D48*
X154342000Y-117904000D02*
X154342000Y-120369500D01*
X139177000Y-140170000D02*
X122620000Y-140170000D01*
X140844500Y-138502500D02*
X139177000Y-140170000D01*
X140844500Y-127326500D02*
X140844500Y-138502500D01*
X144337000Y-123834000D02*
X140844500Y-127326500D01*
X150877500Y-123834000D02*
X144337000Y-123834000D01*
X154342000Y-120369500D02*
X150877500Y-123834000D01*
X165927000Y-104764000D02*
X164423000Y-104764000D01*
X164423000Y-104764000D02*
X162683000Y-106504000D01*
X162683000Y-106504000D02*
X160742000Y-106504000D01*
X118810000Y-140090000D02*
X122540000Y-140090000D01*
X122540000Y-140090000D02*
X122620000Y-140170000D01*
D47*
X197972000Y-103898000D02*
X193572000Y-103898000D01*
D49*
X154964000Y-90360000D02*
X154964000Y-90233000D01*
X154964000Y-90233000D02*
X158012000Y-87185000D01*
X158012000Y-87185000D02*
X158012000Y-75033640D01*
X146582000Y-70294000D02*
X146582000Y-73215000D01*
X148400640Y-75033640D02*
X158012000Y-75033640D01*
X146582000Y-73215000D02*
X148400640Y-75033640D01*
X146582000Y-70294000D02*
X146582000Y-68008000D01*
X147598000Y-66992000D02*
X147598000Y-63944000D01*
X146582000Y-68008000D02*
X147598000Y-66992000D01*
D51*
X197677000Y-113356500D02*
X197677000Y-115960000D01*
X197740500Y-113293000D02*
X197677000Y-113356500D01*
X197677000Y-115960000D02*
X200702140Y-115960000D01*
X200702140Y-115960000D02*
X201464140Y-116722000D01*
D48*
X193359000Y-117293500D02*
X194184500Y-117293500D01*
X194184500Y-117293500D02*
X195518000Y-115960000D01*
X195518000Y-115960000D02*
X197677000Y-115960000D01*
D49*
X144042000Y-70294000D02*
X140359000Y-70294000D01*
X140359000Y-70294000D02*
X138581000Y-72072000D01*
X141502000Y-94424000D02*
X143153000Y-94424000D01*
X138581000Y-68389000D02*
X143026000Y-63944000D01*
X138581000Y-85280000D02*
X138581000Y-72072000D01*
X138581000Y-72072000D02*
X138581000Y-68389000D01*
X144169000Y-90868000D02*
X138581000Y-85280000D01*
X144169000Y-93408000D02*
X144169000Y-90868000D01*
X143153000Y-94424000D02*
X144169000Y-93408000D01*
D48*
X202250500Y-120976500D02*
X202757000Y-120976500D01*
X203328500Y-113569860D02*
X201464140Y-111705500D01*
X203328500Y-120405000D02*
X203328500Y-113569860D01*
X202757000Y-120976500D02*
X203328500Y-120405000D01*
X201464140Y-111705500D02*
X196915000Y-111705500D01*
X196788000Y-104593500D02*
X197867500Y-104593500D01*
X196153000Y-105228500D02*
X196788000Y-104593500D01*
X196153000Y-110943500D02*
X196153000Y-105228500D01*
X196915000Y-111705500D02*
X196153000Y-110943500D01*
D47*
X197972000Y-104698000D02*
X197972000Y-104298000D01*
D49*
X134811640Y-82994000D02*
X134811640Y-90954360D01*
X134811640Y-90954360D02*
X133882000Y-91884000D01*
X124992000Y-79184000D02*
X133755000Y-79184000D01*
X134811640Y-80240640D02*
X134811640Y-82994000D01*
X133755000Y-79184000D02*
X134811640Y-80240640D01*
X122452000Y-79184000D02*
X124992000Y-79184000D01*
X128802000Y-91884000D02*
X128802000Y-94424000D01*
X138581000Y-91884000D02*
X141502000Y-91884000D01*
X135660000Y-94805000D02*
X138581000Y-91884000D01*
X129183000Y-94805000D02*
X135660000Y-94805000D01*
X128802000Y-94424000D02*
X129183000Y-94805000D01*
X123381640Y-93154000D02*
X127532000Y-93154000D01*
X127532000Y-93154000D02*
X128802000Y-91884000D01*
D51*
X122432000Y-99504000D02*
X122432000Y-96984000D01*
X123381640Y-96034360D02*
X123381640Y-93154000D01*
X122432000Y-96984000D02*
X123381640Y-96034360D01*
D48*
X120215000Y-109577000D02*
X128635000Y-109577000D01*
X128635000Y-109577000D02*
X128722000Y-109664000D01*
X120215000Y-110227000D02*
X126745000Y-110227000D01*
X126745000Y-110227000D02*
X128722000Y-112204000D01*
X121102000Y-103314000D02*
X121102000Y-103341000D01*
X121102000Y-103341000D02*
X118945000Y-105498000D01*
X118945000Y-105498000D02*
X118945000Y-110578000D01*
X118945000Y-110578000D02*
X119244000Y-110877000D01*
X119244000Y-110877000D02*
X120215000Y-110877000D01*
X197677000Y-121040000D02*
X200787000Y-121040000D01*
X200787000Y-121040000D02*
X200850500Y-120976500D01*
X193359000Y-119198500D02*
X194375000Y-119198500D01*
X194375000Y-119198500D02*
X196216500Y-121040000D01*
X196216500Y-121040000D02*
X197677000Y-121040000D01*
X122620000Y-137470000D02*
X138702000Y-137470000D01*
X153542000Y-119709000D02*
X153542000Y-117904000D01*
X150369500Y-122881500D02*
X153542000Y-119709000D01*
X144083000Y-122881500D02*
X150369500Y-122881500D01*
X139955500Y-127009000D02*
X144083000Y-122881500D01*
X139955500Y-136216500D02*
X139955500Y-127009000D01*
X138702000Y-137470000D02*
X139955500Y-136216500D01*
X118810000Y-137550000D02*
X122540000Y-137550000D01*
X122540000Y-137550000D02*
X122620000Y-137470000D01*
X146582000Y-105600000D02*
X146582000Y-107735000D01*
X146582000Y-107735000D02*
X147051000Y-108204000D01*
X123802000Y-103314000D02*
X131924000Y-103314000D01*
X136814000Y-108204000D02*
X147051000Y-108204000D01*
X147051000Y-108204000D02*
X151042000Y-108204000D01*
X131924000Y-103314000D02*
X136814000Y-108204000D01*
X152742000Y-117904000D02*
X152742000Y-119048500D01*
X138812500Y-128660000D02*
X118810000Y-128660000D01*
X138939500Y-128533000D02*
X138812500Y-128660000D01*
X138939500Y-126564500D02*
X138939500Y-128533000D01*
X143702000Y-121802000D02*
X138939500Y-126564500D01*
X149988500Y-121802000D02*
X143702000Y-121802000D01*
X152742000Y-119048500D02*
X149988500Y-121802000D01*
X155142000Y-106504000D02*
X155142000Y-104266000D01*
X168340000Y-78114000D02*
X168340000Y-71129000D01*
X165038000Y-81416000D02*
X168340000Y-78114000D01*
X165038000Y-94370000D02*
X165038000Y-81416000D01*
X155142000Y-104266000D02*
X165038000Y-94370000D01*
X155942000Y-106504000D02*
X155942000Y-104482000D01*
X170880000Y-76717000D02*
X170880000Y-71129000D01*
X165800000Y-81797000D02*
X170880000Y-76717000D01*
X165800000Y-94624000D02*
X165800000Y-81797000D01*
X155942000Y-104482000D02*
X165800000Y-94624000D01*
X129810000Y-119500000D02*
X138384000Y-119500000D01*
X144080000Y-113804000D02*
X151042000Y-113804000D01*
X138384000Y-119500000D02*
X144080000Y-113804000D01*
X151042000Y-114604000D02*
X144423000Y-114604000D01*
X127270000Y-120864000D02*
X127270000Y-119500000D01*
X127954000Y-121548000D02*
X127270000Y-120864000D01*
X137479000Y-121548000D02*
X127954000Y-121548000D01*
X144423000Y-114604000D02*
X137479000Y-121548000D01*
X151042000Y-115404000D02*
X144893000Y-115404000D01*
X124730000Y-121372000D02*
X124730000Y-119500000D01*
X125795000Y-122437000D02*
X124730000Y-121372000D01*
X137860000Y-122437000D02*
X125795000Y-122437000D01*
X144893000Y-115404000D02*
X137860000Y-122437000D01*
X122190000Y-119500000D02*
X122190000Y-121880000D01*
X145490000Y-116204000D02*
X151042000Y-116204000D01*
X138368000Y-123326000D02*
X145490000Y-116204000D01*
X123636000Y-123326000D02*
X138368000Y-123326000D01*
X122190000Y-121880000D02*
X123636000Y-123326000D01*
D47*
X200598000Y-99704000D02*
X199604000Y-100698000D01*
D48*
X201868000Y-98434000D02*
X200598000Y-99704000D01*
X169610000Y-117484000D02*
X170626000Y-117484000D01*
D47*
X199604000Y-100698000D02*
X197972000Y-100698000D01*
D48*
X169610000Y-123580000D02*
X169610000Y-117484000D01*
X169610000Y-117484000D02*
X169610000Y-116468000D01*
X166146000Y-113004000D02*
X162442000Y-113004000D01*
X169610000Y-116468000D02*
X166146000Y-113004000D01*
D47*
X190184000Y-99704000D02*
X190438000Y-99704000D01*
D48*
X173928000Y-109102000D02*
X173928000Y-107832000D01*
X173928000Y-107832000D02*
X182056000Y-99704000D01*
X182056000Y-99704000D02*
X190184000Y-99704000D01*
X167514500Y-118500000D02*
X168594000Y-118500000D01*
D47*
X191832000Y-101098000D02*
X193572000Y-101098000D01*
X190438000Y-99704000D02*
X191832000Y-101098000D01*
D48*
X169610000Y-126120000D02*
X169102000Y-126120000D01*
X169102000Y-126120000D02*
X167514500Y-124532500D01*
X167514500Y-124532500D02*
X167514500Y-118500000D01*
X167514500Y-118500000D02*
X167514500Y-115579000D01*
X167514500Y-115579000D02*
X165739500Y-113804000D01*
X165739500Y-113804000D02*
X162442000Y-113804000D01*
D47*
X204662000Y-99704000D02*
X203268000Y-101098000D01*
D48*
X205932000Y-98434000D02*
X204662000Y-99704000D01*
X160742000Y-120532000D02*
X161736000Y-120532000D01*
D47*
X203268000Y-101098000D02*
X197972000Y-101098000D01*
D48*
X169610000Y-131200000D02*
X166308000Y-131200000D01*
X160742000Y-125634000D02*
X160742000Y-120532000D01*
X160742000Y-120532000D02*
X160742000Y-117904000D01*
X166308000Y-131200000D02*
X160742000Y-125634000D01*
D47*
X188660000Y-100720000D02*
X190438000Y-100720000D01*
D48*
X175960000Y-109102000D02*
X175960000Y-108086000D01*
X175960000Y-108086000D02*
X175960000Y-107832000D01*
X175960000Y-107832000D02*
X175960000Y-107578000D01*
X175960000Y-107578000D02*
X182818000Y-100720000D01*
X182818000Y-100720000D02*
X188660000Y-100720000D01*
X166625500Y-119008000D02*
X165038000Y-119008000D01*
D47*
X191216000Y-101498000D02*
X193572000Y-101498000D01*
X190438000Y-100720000D02*
X191216000Y-101498000D01*
D48*
X169610000Y-128660000D02*
X169292500Y-128660000D01*
X169292500Y-128660000D02*
X166625500Y-125993000D01*
X166625500Y-125993000D02*
X166625500Y-119008000D01*
X166625500Y-119008000D02*
X166625500Y-115960000D01*
X166625500Y-115960000D02*
X165269500Y-114604000D01*
X165269500Y-114604000D02*
X162442000Y-114604000D01*
X152496750Y-137708750D02*
X153766750Y-137708750D01*
D47*
X184396000Y-102698000D02*
X193572000Y-102698000D01*
X183072000Y-104022000D02*
X184396000Y-102698000D01*
D48*
X183072000Y-108594000D02*
X183072000Y-104022000D01*
X153766750Y-137708750D02*
X154116000Y-138058000D01*
X157542000Y-117904000D02*
X157542000Y-132663500D01*
X148020000Y-142185500D02*
X148020000Y-143900000D01*
X157542000Y-132663500D02*
X152496750Y-137708750D01*
X152496750Y-137708750D02*
X148020000Y-142185500D01*
X157386250Y-136756250D02*
X155417750Y-136756250D01*
D47*
X206494000Y-102298000D02*
X197972000Y-102298000D01*
X207710000Y-103514000D02*
X206494000Y-102298000D01*
D48*
X207710000Y-104784000D02*
X207710000Y-103514000D01*
X155417750Y-136756250D02*
X155386000Y-136788000D01*
X150560000Y-143900000D02*
X150560000Y-143582500D01*
X150560000Y-143582500D02*
X157386250Y-136756250D01*
X157386250Y-136756250D02*
X158342000Y-135800500D01*
X158342000Y-135800500D02*
X158342000Y-117904000D01*
D47*
X181802000Y-104022000D02*
X183926000Y-101898000D01*
D48*
X159704000Y-136026000D02*
X160212000Y-136026000D01*
X180024000Y-108594000D02*
X180024000Y-105800000D01*
X180024000Y-105800000D02*
X181802000Y-104022000D01*
X159450000Y-135772000D02*
X159704000Y-136026000D01*
D47*
X183926000Y-101898000D02*
X193572000Y-101898000D01*
D48*
X159450000Y-143900000D02*
X159450000Y-135772000D01*
X159450000Y-135772000D02*
X159450000Y-134565500D01*
X159142000Y-134257500D02*
X159142000Y-117904000D01*
X159450000Y-134565500D02*
X159142000Y-134257500D01*
D47*
X205932000Y-101482000D02*
X205678000Y-101482000D01*
D48*
X163768000Y-134756000D02*
X164784000Y-134756000D01*
X207710000Y-101482000D02*
X205932000Y-101482000D01*
X163704500Y-134819500D02*
X163768000Y-134756000D01*
D47*
X205262000Y-101898000D02*
X197972000Y-101898000D01*
X205678000Y-101482000D02*
X205262000Y-101898000D01*
D48*
X164530000Y-143900000D02*
X164530000Y-135645000D01*
X159942000Y-131057000D02*
X159942000Y-117904000D01*
X164530000Y-135645000D02*
X163704500Y-134819500D01*
X163704500Y-134819500D02*
X159942000Y-131057000D01*
X131422000Y-109664000D02*
X131422000Y-109720000D01*
X131422000Y-109720000D02*
X131506000Y-109804000D01*
X131506000Y-109804000D02*
X151042000Y-109804000D01*
X131422000Y-112204000D02*
X131422000Y-112198000D01*
X131422000Y-112198000D02*
X133016000Y-110604000D01*
X133016000Y-110604000D02*
X151042000Y-110604000D01*
X187263000Y-116515000D02*
X189946500Y-116515000D01*
X194797000Y-104698000D02*
X193572000Y-104698000D01*
X195454500Y-105355500D02*
X194797000Y-104698000D01*
X195454500Y-111007000D02*
X195454500Y-105355500D01*
X189946500Y-116515000D02*
X195454500Y-111007000D01*
D47*
X193572000Y-104698000D02*
X193572000Y-104298000D01*
D48*
X190819000Y-117293500D02*
X189739500Y-117293500D01*
X188961000Y-116515000D02*
X187263000Y-116515000D01*
X189739500Y-117293500D02*
X188961000Y-116515000D01*
D47*
X197972000Y-103098000D02*
X203230000Y-103098000D01*
X204297500Y-104165500D02*
X204297500Y-105546000D01*
X203230000Y-103098000D02*
X204297500Y-104165500D01*
D48*
X162442000Y-112204000D02*
X169473500Y-112204000D01*
D47*
X198734000Y-100298000D02*
X197972000Y-100298000D01*
X199201000Y-99831000D02*
X198734000Y-100298000D01*
X199201000Y-98307000D02*
X199201000Y-99831000D01*
D48*
X197613500Y-96719500D02*
X199201000Y-98307000D01*
X179643000Y-96719500D02*
X197613500Y-96719500D01*
X170689500Y-105673000D02*
X179643000Y-96719500D01*
X170372000Y-113102500D02*
X170435500Y-113102500D01*
X169473500Y-112204000D02*
X170372000Y-113102500D01*
X162442000Y-109004000D02*
X170216000Y-109004000D01*
D47*
X192810000Y-100298000D02*
X193572000Y-100298000D01*
X192533500Y-100021500D02*
X192810000Y-100298000D01*
X192533500Y-98688000D02*
X192533500Y-100021500D01*
X191644500Y-97799000D02*
X192533500Y-98688000D01*
D48*
X181421000Y-97799000D02*
X191644500Y-97799000D01*
X170216000Y-109004000D02*
X181421000Y-97799000D01*
X162442000Y-109804000D02*
X170622500Y-109804000D01*
D47*
X192575000Y-100698000D02*
X193572000Y-100698000D01*
X192025500Y-100148500D02*
X192575000Y-100698000D01*
X192025500Y-99323000D02*
X192025500Y-100148500D01*
X191263500Y-98561000D02*
X192025500Y-99323000D01*
D48*
X181865500Y-98561000D02*
X191263500Y-98561000D01*
X170622500Y-109804000D02*
X181865500Y-98561000D01*
D47*
X193572000Y-103098000D02*
X185710500Y-103098000D01*
D48*
X183284500Y-110604000D02*
X162442000Y-110604000D01*
X184850000Y-109038500D02*
X183284500Y-110604000D01*
X184850000Y-103958500D02*
X184850000Y-109038500D01*
D47*
X185710500Y-103098000D02*
X184850000Y-103958500D01*
D48*
X162442000Y-111404000D02*
X192898500Y-111404000D01*
D47*
X204417500Y-102698000D02*
X197972000Y-102698000D01*
X205995500Y-104276000D02*
X204417500Y-102698000D01*
D48*
X205995500Y-106816000D02*
X205995500Y-104276000D01*
X204979500Y-107832000D02*
X205995500Y-106816000D01*
X192898500Y-111404000D02*
X194311500Y-109991000D01*
X185485000Y-117865000D02*
X172785000Y-117865000D01*
X189930000Y-119198500D02*
X188596500Y-117865000D01*
X188596500Y-117865000D02*
X185485000Y-117865000D01*
X190819000Y-119198500D02*
X189930000Y-119198500D01*
X168095000Y-108204000D02*
X162442000Y-108204000D01*
X169356000Y-106943000D02*
X168095000Y-108204000D01*
X172785000Y-117865000D02*
X169356000Y-114436000D01*
X156742000Y-106504000D02*
X156742000Y-104698000D01*
X156742000Y-104698000D02*
X169483000Y-91957000D01*
X169483000Y-91957000D02*
X169483000Y-91830000D01*
X157542000Y-106504000D02*
X157542000Y-104914000D01*
X168086000Y-94370000D02*
X169483000Y-94370000D01*
X157542000Y-104914000D02*
X168086000Y-94370000D01*
X158342000Y-106504000D02*
X158342000Y-105130000D01*
X166562000Y-96910000D02*
X169483000Y-96910000D01*
X158342000Y-105130000D02*
X166562000Y-96910000D01*
X159142000Y-106504000D02*
X159142000Y-105346000D01*
X165038000Y-99450000D02*
X169483000Y-99450000D01*
X159142000Y-105346000D02*
X165038000Y-99450000D01*
D52*
G36*
X127634566Y-106783640D02*
X126316706Y-108101500D01*
X121290873Y-108101500D01*
X121316229Y-108028131D01*
X121316229Y-107425869D01*
X121174568Y-107015951D01*
X120886821Y-106691448D01*
X120512938Y-106507732D01*
X120342000Y-106634266D01*
X120342000Y-107600000D01*
X121167563Y-107600000D01*
X121316229Y-107425869D01*
X121316229Y-108028131D01*
X121167563Y-107854000D01*
X120342000Y-107854000D01*
X120342000Y-107874000D01*
X120088000Y-107874000D01*
X120088000Y-107854000D01*
X120068000Y-107854000D01*
X120068000Y-107600000D01*
X120088000Y-107600000D01*
X120088000Y-106634266D01*
X119917062Y-106507732D01*
X119770500Y-106579748D01*
X119770500Y-105839933D01*
X120998993Y-104611440D01*
X121852000Y-104611440D01*
X122094123Y-104564463D01*
X122306927Y-104424673D01*
X122449377Y-104213640D01*
X122451216Y-104204469D01*
X122451537Y-104206123D01*
X122591327Y-104418927D01*
X122802360Y-104561377D01*
X123052000Y-104611440D01*
X124552000Y-104611440D01*
X124734604Y-104576010D01*
X124675334Y-104615614D01*
X124642974Y-104647974D01*
X124367673Y-105059992D01*
X124270999Y-105546000D01*
X124367673Y-106032008D01*
X124642974Y-106444026D01*
X125054992Y-106719327D01*
X125541000Y-106816001D01*
X125703688Y-106783640D01*
X127634566Y-106783640D01*
X127634566Y-106783640D01*
G37*
X127634566Y-106783640D02*
X126316706Y-108101500D01*
X121290873Y-108101500D01*
X121316229Y-108028131D01*
X121316229Y-107425869D01*
X121174568Y-107015951D01*
X120886821Y-106691448D01*
X120512938Y-106507732D01*
X120342000Y-106634266D01*
X120342000Y-107600000D01*
X121167563Y-107600000D01*
X121316229Y-107425869D01*
X121316229Y-108028131D01*
X121167563Y-107854000D01*
X120342000Y-107854000D01*
X120342000Y-107874000D01*
X120088000Y-107874000D01*
X120088000Y-107854000D01*
X120068000Y-107854000D01*
X120068000Y-107600000D01*
X120088000Y-107600000D01*
X120088000Y-106634266D01*
X119917062Y-106507732D01*
X119770500Y-106579748D01*
X119770500Y-105839933D01*
X120998993Y-104611440D01*
X121852000Y-104611440D01*
X122094123Y-104564463D01*
X122306927Y-104424673D01*
X122449377Y-104213640D01*
X122451216Y-104204469D01*
X122451537Y-104206123D01*
X122591327Y-104418927D01*
X122802360Y-104561377D01*
X123052000Y-104611440D01*
X124552000Y-104611440D01*
X124734604Y-104576010D01*
X124675334Y-104615614D01*
X124642974Y-104647974D01*
X124367673Y-105059992D01*
X124270999Y-105546000D01*
X124367673Y-106032008D01*
X124642974Y-106444026D01*
X125054992Y-106719327D01*
X125541000Y-106816001D01*
X125703688Y-106783640D01*
X127634566Y-106783640D01*
G36*
X194629000Y-108953971D02*
X194527168Y-108911687D01*
X194097716Y-108911313D01*
X193700811Y-109075311D01*
X193396878Y-109378714D01*
X193232187Y-109775332D01*
X193232075Y-109902990D01*
X192556566Y-110578500D01*
X184477433Y-110578500D01*
X185433713Y-109622219D01*
X185433716Y-109622217D01*
X185433717Y-109622217D01*
X185540986Y-109461675D01*
X185612663Y-109354406D01*
X185612663Y-109354405D01*
X185675500Y-109038500D01*
X185675500Y-107539051D01*
X185898691Y-107631500D01*
X186489250Y-107631500D01*
X186648000Y-107472750D01*
X186648000Y-106498500D01*
X186628000Y-106498500D01*
X186628000Y-106244500D01*
X186648000Y-106244500D01*
X186648000Y-105270250D01*
X186489250Y-105111500D01*
X185898691Y-105111500D01*
X185675500Y-105203948D01*
X185675500Y-104656844D01*
X185711728Y-104681051D01*
X185993000Y-104736999D01*
X186274272Y-104681051D01*
X186512723Y-104521723D01*
X186616723Y-104417724D01*
X186776051Y-104179272D01*
X186831999Y-103898000D01*
X186819069Y-103833000D01*
X189651053Y-103833000D01*
X188755277Y-104728777D01*
X188595949Y-104967228D01*
X188569725Y-105099060D01*
X188525000Y-105099060D01*
X188282877Y-105146037D01*
X188070073Y-105285827D01*
X188026662Y-105350137D01*
X187884698Y-105208173D01*
X187651309Y-105111500D01*
X187060750Y-105111500D01*
X186902000Y-105270250D01*
X186902000Y-106244500D01*
X186922000Y-106244500D01*
X186922000Y-106498500D01*
X186902000Y-106498500D01*
X186902000Y-107472750D01*
X187060750Y-107631500D01*
X187651309Y-107631500D01*
X187884698Y-107534827D01*
X188026176Y-107393349D01*
X188064327Y-107451427D01*
X188275360Y-107593877D01*
X188525000Y-107643940D01*
X190025000Y-107643940D01*
X190267123Y-107596963D01*
X190479927Y-107457173D01*
X190622377Y-107246140D01*
X190672440Y-106996500D01*
X190672440Y-105746500D01*
X190625463Y-105504377D01*
X190485673Y-105291573D01*
X190357733Y-105205212D01*
X190929946Y-104633000D01*
X192524560Y-104633000D01*
X192524560Y-104798000D01*
X192571537Y-105040123D01*
X192711327Y-105252927D01*
X192922360Y-105395377D01*
X193172000Y-105445440D01*
X193233312Y-105445440D01*
X193256095Y-105460663D01*
X193324619Y-105474293D01*
X193274623Y-105548360D01*
X193224560Y-105798000D01*
X193224560Y-106598000D01*
X193271537Y-106840123D01*
X193411327Y-107052927D01*
X193622360Y-107195377D01*
X193872000Y-107245440D01*
X194629000Y-107245440D01*
X194629000Y-108953971D01*
X194629000Y-108953971D01*
G37*
X194629000Y-108953971D02*
X194527168Y-108911687D01*
X194097716Y-108911313D01*
X193700811Y-109075311D01*
X193396878Y-109378714D01*
X193232187Y-109775332D01*
X193232075Y-109902990D01*
X192556566Y-110578500D01*
X184477433Y-110578500D01*
X185433713Y-109622219D01*
X185433716Y-109622217D01*
X185433717Y-109622217D01*
X185540986Y-109461675D01*
X185612663Y-109354406D01*
X185612663Y-109354405D01*
X185675500Y-109038500D01*
X185675500Y-107539051D01*
X185898691Y-107631500D01*
X186489250Y-107631500D01*
X186648000Y-107472750D01*
X186648000Y-106498500D01*
X186628000Y-106498500D01*
X186628000Y-106244500D01*
X186648000Y-106244500D01*
X186648000Y-105270250D01*
X186489250Y-105111500D01*
X185898691Y-105111500D01*
X185675500Y-105203948D01*
X185675500Y-104656844D01*
X185711728Y-104681051D01*
X185993000Y-104736999D01*
X186274272Y-104681051D01*
X186512723Y-104521723D01*
X186616723Y-104417724D01*
X186776051Y-104179272D01*
X186831999Y-103898000D01*
X186819069Y-103833000D01*
X189651053Y-103833000D01*
X188755277Y-104728777D01*
X188595949Y-104967228D01*
X188569725Y-105099060D01*
X188525000Y-105099060D01*
X188282877Y-105146037D01*
X188070073Y-105285827D01*
X188026662Y-105350137D01*
X187884698Y-105208173D01*
X187651309Y-105111500D01*
X187060750Y-105111500D01*
X186902000Y-105270250D01*
X186902000Y-106244500D01*
X186922000Y-106244500D01*
X186922000Y-106498500D01*
X186902000Y-106498500D01*
X186902000Y-107472750D01*
X187060750Y-107631500D01*
X187651309Y-107631500D01*
X187884698Y-107534827D01*
X188026176Y-107393349D01*
X188064327Y-107451427D01*
X188275360Y-107593877D01*
X188525000Y-107643940D01*
X190025000Y-107643940D01*
X190267123Y-107596963D01*
X190479927Y-107457173D01*
X190622377Y-107246140D01*
X190672440Y-106996500D01*
X190672440Y-105746500D01*
X190625463Y-105504377D01*
X190485673Y-105291573D01*
X190357733Y-105205212D01*
X190929946Y-104633000D01*
X192524560Y-104633000D01*
X192524560Y-104798000D01*
X192571537Y-105040123D01*
X192711327Y-105252927D01*
X192922360Y-105395377D01*
X193172000Y-105445440D01*
X193233312Y-105445440D01*
X193256095Y-105460663D01*
X193324619Y-105474293D01*
X193274623Y-105548360D01*
X193224560Y-105798000D01*
X193224560Y-106598000D01*
X193271537Y-106840123D01*
X193411327Y-107052927D01*
X193622360Y-107195377D01*
X193872000Y-107245440D01*
X194629000Y-107245440D01*
X194629000Y-108953971D01*
G36*
X203374650Y-104282096D02*
X203305377Y-104295537D01*
X203092573Y-104435327D01*
X202950123Y-104646360D01*
X202948283Y-104655530D01*
X202947963Y-104653877D01*
X202808173Y-104441073D01*
X202597140Y-104298623D01*
X202347500Y-104248560D01*
X201339506Y-104248560D01*
X200923946Y-103833000D01*
X202925554Y-103833000D01*
X203374650Y-104282096D01*
X203374650Y-104282096D01*
G37*
X203374650Y-104282096D02*
X203305377Y-104295537D01*
X203092573Y-104435327D01*
X202950123Y-104646360D01*
X202948283Y-104655530D01*
X202947963Y-104653877D01*
X202808173Y-104441073D01*
X202597140Y-104298623D01*
X202347500Y-104248560D01*
X201339506Y-104248560D01*
X200923946Y-103833000D01*
X202925554Y-103833000D01*
X203374650Y-104282096D01*
G36*
X209315000Y-149315000D02*
X208789687Y-149315000D01*
X208789687Y-104570216D01*
X208625689Y-104173311D01*
X208535500Y-104082964D01*
X208535500Y-103514000D01*
X208472663Y-103198095D01*
X208293717Y-102930283D01*
X208025905Y-102751337D01*
X207977069Y-102741623D01*
X207797023Y-102561576D01*
X207923784Y-102561687D01*
X208320689Y-102397689D01*
X208624622Y-102094286D01*
X208789313Y-101697668D01*
X208789687Y-101268216D01*
X208625689Y-100871311D01*
X208322286Y-100567378D01*
X207925668Y-100402687D01*
X207496216Y-100402313D01*
X207099311Y-100566311D01*
X207008964Y-100656500D01*
X205932000Y-100656500D01*
X205616095Y-100719337D01*
X205530904Y-100776259D01*
X205396728Y-100802949D01*
X205158277Y-100962276D01*
X204957553Y-101163000D01*
X204242446Y-101163000D01*
X204929069Y-100476377D01*
X204977906Y-100466663D01*
X205245717Y-100287717D01*
X206019856Y-99513577D01*
X206145784Y-99513687D01*
X206542689Y-99349689D01*
X206846622Y-99046286D01*
X207011313Y-98649668D01*
X207011687Y-98220216D01*
X206847689Y-97823311D01*
X206544286Y-97519378D01*
X206147668Y-97354687D01*
X205718216Y-97354313D01*
X205321311Y-97518311D01*
X205017378Y-97821714D01*
X204852687Y-98218332D01*
X204852575Y-98345990D01*
X204078283Y-99120283D01*
X203899337Y-99388094D01*
X203889622Y-99436930D01*
X203499287Y-99827265D01*
X203499287Y-78235000D01*
X203499287Y-69465000D01*
X182500713Y-69465000D01*
X182500713Y-78235000D01*
X203499287Y-78235000D01*
X203499287Y-99827265D01*
X202963553Y-100363000D01*
X201069048Y-100363000D01*
X201181717Y-100287717D01*
X201955856Y-99513577D01*
X202081784Y-99513687D01*
X202478689Y-99349689D01*
X202782622Y-99046286D01*
X202947313Y-98649668D01*
X202947687Y-98220216D01*
X202783689Y-97823311D01*
X202480286Y-97519378D01*
X202083668Y-97354687D01*
X201654216Y-97354313D01*
X201257311Y-97518311D01*
X200953378Y-97821714D01*
X200788687Y-98218332D01*
X200788575Y-98345990D01*
X200014283Y-99120283D01*
X199936000Y-99237441D01*
X199936000Y-98664306D01*
X199963663Y-98622906D01*
X200026500Y-98307000D01*
X199963663Y-97991094D01*
X199784717Y-97723283D01*
X198197217Y-96135783D01*
X197929406Y-95956837D01*
X197613500Y-95894000D01*
X179643000Y-95894000D01*
X179327094Y-95956837D01*
X179059283Y-96135783D01*
X170601643Y-104593422D01*
X170475716Y-104593313D01*
X170078811Y-104757311D01*
X169774878Y-105060714D01*
X169610187Y-105457332D01*
X169609819Y-105879528D01*
X169571668Y-105863687D01*
X169142216Y-105863313D01*
X168745311Y-106027311D01*
X168441378Y-106330714D01*
X168276687Y-106727332D01*
X168276575Y-106854990D01*
X167753066Y-107378500D01*
X163511086Y-107378500D01*
X163441640Y-107331623D01*
X163192000Y-107281560D01*
X162924012Y-107281560D01*
X162998905Y-107266663D01*
X162998906Y-107266663D01*
X163266717Y-107087717D01*
X164684763Y-105669669D01*
X164701537Y-105756123D01*
X164841327Y-105968927D01*
X165052360Y-106111377D01*
X165302000Y-106161440D01*
X166552000Y-106161440D01*
X166794123Y-106114463D01*
X167006927Y-105974673D01*
X167138333Y-105780000D01*
X167364671Y-105780000D01*
X167410214Y-105825622D01*
X167806832Y-105990313D01*
X168236284Y-105990687D01*
X168633189Y-105826689D01*
X168937122Y-105523286D01*
X169101813Y-105126668D01*
X169102187Y-104697216D01*
X168938189Y-104300311D01*
X168634786Y-103996378D01*
X168332317Y-103870781D01*
X168332315Y-103870780D01*
X168264307Y-103825338D01*
X168199799Y-103812507D01*
X167875500Y-103748000D01*
X167136778Y-103748000D01*
X167012673Y-103559073D01*
X166948362Y-103515662D01*
X167090327Y-103373698D01*
X167187000Y-103140309D01*
X167187000Y-102549750D01*
X167187000Y-101978250D01*
X167187000Y-101387691D01*
X167090327Y-101154302D01*
X166911699Y-100975673D01*
X166678310Y-100879000D01*
X166425691Y-100879000D01*
X166212750Y-100879000D01*
X166054000Y-101037750D01*
X166054000Y-102137000D01*
X167028250Y-102137000D01*
X167187000Y-101978250D01*
X167187000Y-102549750D01*
X167028250Y-102391000D01*
X166054000Y-102391000D01*
X166054000Y-102411000D01*
X165800000Y-102411000D01*
X165800000Y-102391000D01*
X165800000Y-102137000D01*
X165800000Y-101037750D01*
X165641250Y-100879000D01*
X165428309Y-100879000D01*
X165175690Y-100879000D01*
X164942301Y-100975673D01*
X164763673Y-101154302D01*
X164667000Y-101387691D01*
X164667000Y-101978250D01*
X164825750Y-102137000D01*
X165800000Y-102137000D01*
X165800000Y-102391000D01*
X164825750Y-102391000D01*
X164667000Y-102549750D01*
X164667000Y-103140309D01*
X164763673Y-103373698D01*
X164905150Y-103515176D01*
X164847073Y-103553327D01*
X164704623Y-103764360D01*
X164669700Y-103938500D01*
X164423005Y-103938500D01*
X164423000Y-103938499D01*
X164107095Y-104001337D01*
X163839283Y-104180283D01*
X163839280Y-104180286D01*
X162341066Y-105678500D01*
X161649791Y-105678500D01*
X161617463Y-105511877D01*
X161477673Y-105299073D01*
X161266640Y-105156623D01*
X161017000Y-105106560D01*
X160548874Y-105106560D01*
X165379934Y-100275500D01*
X168082117Y-100275500D01*
X168238585Y-100509670D01*
X168724766Y-100834526D01*
X169298255Y-100948600D01*
X169667745Y-100948600D01*
X170241234Y-100834526D01*
X170727415Y-100509670D01*
X171052271Y-100023489D01*
X171166345Y-99450000D01*
X171052271Y-98876511D01*
X170727415Y-98390330D01*
X170412634Y-98180000D01*
X170727415Y-97969670D01*
X171052271Y-97483489D01*
X171166345Y-96910000D01*
X171052271Y-96336511D01*
X170727415Y-95850330D01*
X170412634Y-95640000D01*
X170727415Y-95429670D01*
X171052271Y-94943489D01*
X171166345Y-94370000D01*
X171052271Y-93796511D01*
X170727415Y-93310330D01*
X170711632Y-93299784D01*
X170741123Y-93294063D01*
X170953927Y-93154273D01*
X171096377Y-92943240D01*
X171146440Y-92693600D01*
X171146440Y-90966400D01*
X171099463Y-90724277D01*
X170959673Y-90511473D01*
X170748640Y-90369023D01*
X170499000Y-90318960D01*
X168467000Y-90318960D01*
X168224877Y-90365937D01*
X168012073Y-90505727D01*
X167869623Y-90716760D01*
X167819560Y-90966400D01*
X167819560Y-92453006D01*
X166625500Y-93647066D01*
X166625500Y-82138934D01*
X171463717Y-77300717D01*
X171642663Y-77032906D01*
X171642663Y-77032905D01*
X171705500Y-76717000D01*
X171705501Y-76717000D01*
X171705500Y-76716994D01*
X171705500Y-72529882D01*
X171939670Y-72373415D01*
X172264526Y-71887234D01*
X172378600Y-71313745D01*
X172378600Y-70944255D01*
X172264526Y-70370766D01*
X171939670Y-69884585D01*
X171453489Y-69559729D01*
X170880000Y-69445655D01*
X170306511Y-69559729D01*
X169820330Y-69884585D01*
X169610000Y-70199365D01*
X169399670Y-69884585D01*
X168913489Y-69559729D01*
X168340000Y-69445655D01*
X167766511Y-69559729D01*
X167280330Y-69884585D01*
X167265500Y-69906779D01*
X167201927Y-69753301D01*
X167023298Y-69574673D01*
X166789909Y-69478000D01*
X166085750Y-69478000D01*
X165927000Y-69636750D01*
X165927000Y-71002000D01*
X165947000Y-71002000D01*
X165947000Y-71256000D01*
X165927000Y-71256000D01*
X165927000Y-72621250D01*
X166085750Y-72780000D01*
X166789909Y-72780000D01*
X167023298Y-72683327D01*
X167201927Y-72504699D01*
X167265500Y-72351220D01*
X167280330Y-72373415D01*
X167514500Y-72529882D01*
X167514500Y-77772066D01*
X165673000Y-79613566D01*
X165673000Y-72621250D01*
X165673000Y-71256000D01*
X165673000Y-71002000D01*
X165673000Y-69636750D01*
X165514250Y-69478000D01*
X164810091Y-69478000D01*
X164576702Y-69574673D01*
X164398073Y-69753301D01*
X164301400Y-69986690D01*
X164301400Y-70239309D01*
X164301400Y-70843250D01*
X164460150Y-71002000D01*
X165673000Y-71002000D01*
X165673000Y-71256000D01*
X164460150Y-71256000D01*
X164301400Y-71414750D01*
X164301400Y-72018691D01*
X164301400Y-72271310D01*
X164398073Y-72504699D01*
X164576702Y-72683327D01*
X164810091Y-72780000D01*
X165514250Y-72780000D01*
X165673000Y-72621250D01*
X165673000Y-79613566D01*
X164454283Y-80832283D01*
X164275337Y-81100094D01*
X164212500Y-81416000D01*
X164212500Y-94028066D01*
X156695440Y-101545126D01*
X156695440Y-100632000D01*
X156648463Y-100389877D01*
X156508673Y-100177073D01*
X156297640Y-100034623D01*
X156048000Y-99984560D01*
X154548000Y-99984560D01*
X154382340Y-100016701D01*
X154382340Y-96874410D01*
X154382340Y-96621791D01*
X154382340Y-96233750D01*
X154382340Y-95662250D01*
X154382340Y-95274209D01*
X154382340Y-95021590D01*
X154285667Y-94788201D01*
X154107038Y-94609573D01*
X153873649Y-94512900D01*
X152732610Y-94512900D01*
X152573860Y-94671650D01*
X152573860Y-95821000D01*
X154223590Y-95821000D01*
X154382340Y-95662250D01*
X154382340Y-96233750D01*
X154223590Y-96075000D01*
X152573860Y-96075000D01*
X152573860Y-97224350D01*
X152732610Y-97383100D01*
X153873649Y-97383100D01*
X154107038Y-97286427D01*
X154285667Y-97107799D01*
X154382340Y-96874410D01*
X154382340Y-100016701D01*
X154305877Y-100031537D01*
X154093073Y-100171327D01*
X153950623Y-100382360D01*
X153944520Y-100412791D01*
X153886327Y-100272301D01*
X153707698Y-100093673D01*
X153474309Y-99997000D01*
X152883750Y-99997000D01*
X152725000Y-100155750D01*
X152725000Y-101155000D01*
X152745000Y-101155000D01*
X152745000Y-101409000D01*
X152725000Y-101409000D01*
X152725000Y-102408250D01*
X152883750Y-102567000D01*
X153474309Y-102567000D01*
X153516500Y-102549523D01*
X153516500Y-104550603D01*
X153504663Y-104491095D01*
X153504663Y-104491094D01*
X153432986Y-104383824D01*
X153325717Y-104223283D01*
X153325713Y-104223280D01*
X151632481Y-102530048D01*
X151721691Y-102567000D01*
X152312250Y-102567000D01*
X152471000Y-102408250D01*
X152471000Y-101409000D01*
X152471000Y-101155000D01*
X152471000Y-100155750D01*
X152312250Y-99997000D01*
X151721691Y-99997000D01*
X151488302Y-100093673D01*
X151309673Y-100272301D01*
X151213000Y-100505690D01*
X151213000Y-100758309D01*
X151213000Y-100996250D01*
X151371750Y-101155000D01*
X152471000Y-101155000D01*
X152471000Y-101409000D01*
X151371750Y-101409000D01*
X151213000Y-101567750D01*
X151213000Y-101805691D01*
X151213000Y-102058310D01*
X151249950Y-102147517D01*
X149670640Y-100568206D01*
X149670640Y-97395540D01*
X150145620Y-97395540D01*
X150387743Y-97348563D01*
X150600547Y-97208773D01*
X150644263Y-97144009D01*
X150786682Y-97286427D01*
X151020071Y-97383100D01*
X152161110Y-97383100D01*
X152319860Y-97224350D01*
X152319860Y-96075000D01*
X152299860Y-96075000D01*
X152299860Y-95821000D01*
X152319860Y-95821000D01*
X152319860Y-94671650D01*
X152161110Y-94512900D01*
X151020071Y-94512900D01*
X150786682Y-94609573D01*
X150644745Y-94751509D01*
X150606293Y-94692973D01*
X150395260Y-94550523D01*
X150145620Y-94500460D01*
X150115140Y-94500460D01*
X150115140Y-92785440D01*
X150900000Y-92785440D01*
X151142123Y-92738463D01*
X151354927Y-92598673D01*
X151497377Y-92387640D01*
X151547440Y-92138000D01*
X151547440Y-88582000D01*
X151500463Y-88339877D01*
X151409235Y-88201000D01*
X153439292Y-88201000D01*
X153350623Y-88332360D01*
X153300560Y-88582000D01*
X153300560Y-92138000D01*
X153347537Y-92380123D01*
X153487327Y-92592927D01*
X153698360Y-92735377D01*
X153948000Y-92785440D01*
X155980000Y-92785440D01*
X156222123Y-92738463D01*
X156434927Y-92598673D01*
X156577377Y-92387640D01*
X156627440Y-92138000D01*
X156627440Y-90365612D01*
X158910026Y-88083026D01*
X159185327Y-87671008D01*
X159282000Y-87185000D01*
X159282001Y-87185000D01*
X159282000Y-87184994D01*
X159282000Y-76972001D01*
X159409477Y-76783150D01*
X159459540Y-76533510D01*
X159459540Y-73533770D01*
X159447100Y-73469653D01*
X159447100Y-72260539D01*
X159447100Y-70920110D01*
X159447100Y-70348610D01*
X159447100Y-69008181D01*
X159350427Y-68774792D01*
X159171799Y-68596163D01*
X158938410Y-68499490D01*
X158685791Y-68499490D01*
X158297750Y-68499490D01*
X158139000Y-68658240D01*
X158139000Y-70507360D01*
X159288350Y-70507360D01*
X159447100Y-70348610D01*
X159447100Y-70920110D01*
X159288350Y-70761360D01*
X158139000Y-70761360D01*
X158139000Y-72610480D01*
X158297750Y-72769230D01*
X158685791Y-72769230D01*
X158938410Y-72769230D01*
X159171799Y-72672557D01*
X159350427Y-72493928D01*
X159447100Y-72260539D01*
X159447100Y-73469653D01*
X159412563Y-73291647D01*
X159272773Y-73078843D01*
X159061740Y-72936393D01*
X158812100Y-72886330D01*
X157885000Y-72886330D01*
X157885000Y-72610480D01*
X157885000Y-70761360D01*
X157885000Y-70507360D01*
X157885000Y-68658240D01*
X157726250Y-68499490D01*
X157338209Y-68499490D01*
X157085590Y-68499490D01*
X156852201Y-68596163D01*
X156673573Y-68774792D01*
X156576900Y-69008181D01*
X156576900Y-70348610D01*
X156735650Y-70507360D01*
X157885000Y-70507360D01*
X157885000Y-70761360D01*
X156735650Y-70761360D01*
X156576900Y-70920110D01*
X156576900Y-72260539D01*
X156673573Y-72493928D01*
X156852201Y-72672557D01*
X157085590Y-72769230D01*
X157338209Y-72769230D01*
X157726250Y-72769230D01*
X157885000Y-72610480D01*
X157885000Y-72886330D01*
X157211900Y-72886330D01*
X156969777Y-72933307D01*
X156756973Y-73073097D01*
X156614523Y-73284130D01*
X156564460Y-73533770D01*
X156564460Y-73763640D01*
X150328500Y-73763640D01*
X150328500Y-71563310D01*
X150328500Y-71310691D01*
X150328500Y-70579750D01*
X150328500Y-70008250D01*
X150328500Y-69277309D01*
X150328500Y-69024690D01*
X150231827Y-68791301D01*
X150053198Y-68612673D01*
X149819809Y-68516000D01*
X149407750Y-68516000D01*
X149249000Y-68674750D01*
X149249000Y-70167000D01*
X150169750Y-70167000D01*
X150328500Y-70008250D01*
X150328500Y-70579750D01*
X150169750Y-70421000D01*
X149249000Y-70421000D01*
X149249000Y-71913250D01*
X149407750Y-72072000D01*
X149819809Y-72072000D01*
X150053198Y-71975327D01*
X150231827Y-71796699D01*
X150328500Y-71563310D01*
X150328500Y-73763640D01*
X148995000Y-73763640D01*
X148995000Y-71913250D01*
X148995000Y-70421000D01*
X148995000Y-70167000D01*
X148995000Y-68674750D01*
X148836250Y-68516000D01*
X148424191Y-68516000D01*
X148190802Y-68612673D01*
X148012173Y-68791301D01*
X147915500Y-69024690D01*
X147915500Y-69277309D01*
X147915500Y-70008250D01*
X148074250Y-70167000D01*
X148995000Y-70167000D01*
X148995000Y-70421000D01*
X148074250Y-70421000D01*
X147915500Y-70579750D01*
X147915500Y-71310691D01*
X147915500Y-71563310D01*
X148012173Y-71796699D01*
X148190802Y-71975327D01*
X148424191Y-72072000D01*
X148836250Y-72072000D01*
X148995000Y-71913250D01*
X148995000Y-73763640D01*
X148926691Y-73763640D01*
X147852000Y-72688948D01*
X147852000Y-70294000D01*
X147852000Y-68534052D01*
X148496026Y-67890026D01*
X148771327Y-67478008D01*
X148868000Y-66992000D01*
X148868001Y-66992000D01*
X148868000Y-66991994D01*
X148868000Y-66136975D01*
X148893877Y-66098640D01*
X148943940Y-65849000D01*
X148943940Y-62039000D01*
X148896963Y-61796877D01*
X148757173Y-61584073D01*
X148546140Y-61441623D01*
X148296500Y-61391560D01*
X146899500Y-61391560D01*
X146657377Y-61438537D01*
X146444573Y-61578327D01*
X146302123Y-61789360D01*
X146252060Y-62039000D01*
X146252060Y-65849000D01*
X146299037Y-66091123D01*
X146328000Y-66135213D01*
X146328000Y-66465948D01*
X145683974Y-67109974D01*
X145408673Y-67521992D01*
X145311999Y-68008000D01*
X145312000Y-68008005D01*
X145312000Y-70294000D01*
X145260940Y-70037304D01*
X145260940Y-69151000D01*
X145213963Y-68908877D01*
X145074173Y-68696073D01*
X144863140Y-68553623D01*
X144613500Y-68503560D01*
X143470500Y-68503560D01*
X143228377Y-68550537D01*
X143015573Y-68690327D01*
X142873123Y-68901360D01*
X142848528Y-69024000D01*
X140359005Y-69024000D01*
X140359000Y-69023999D01*
X139872992Y-69120673D01*
X139851000Y-69135367D01*
X139851000Y-68915051D01*
X142279281Y-66486770D01*
X142327500Y-66496440D01*
X143724500Y-66496440D01*
X143966623Y-66449463D01*
X144179427Y-66309673D01*
X144321877Y-66098640D01*
X144371940Y-65849000D01*
X144371940Y-62039000D01*
X144324963Y-61796877D01*
X144185173Y-61584073D01*
X143974140Y-61441623D01*
X143724500Y-61391560D01*
X142327500Y-61391560D01*
X142085377Y-61438537D01*
X141872573Y-61578327D01*
X141730123Y-61789360D01*
X141680060Y-62039000D01*
X141680060Y-63493888D01*
X137682974Y-67490974D01*
X137407673Y-67902992D01*
X137310999Y-68389000D01*
X137311000Y-68389005D01*
X137311000Y-72071994D01*
X137310999Y-72072000D01*
X137311000Y-72072005D01*
X137311000Y-85279994D01*
X137310999Y-85280000D01*
X137407673Y-85766008D01*
X137682974Y-86178026D01*
X141940904Y-90435955D01*
X141686745Y-90385400D01*
X141317255Y-90385400D01*
X140743766Y-90499474D01*
X140572365Y-90614000D01*
X138581005Y-90614000D01*
X138581000Y-90613999D01*
X138094992Y-90710673D01*
X137682974Y-90985974D01*
X137682971Y-90985977D01*
X135133948Y-93535000D01*
X134761716Y-93535000D01*
X135049433Y-93342754D01*
X135407325Y-92807131D01*
X135533000Y-92175321D01*
X135533000Y-92029051D01*
X135709662Y-91852388D01*
X135709665Y-91852386D01*
X135709666Y-91852386D01*
X135984967Y-91440368D01*
X136081640Y-90954360D01*
X136081640Y-84441540D01*
X136311510Y-84441540D01*
X136553633Y-84394563D01*
X136766437Y-84254773D01*
X136908887Y-84043740D01*
X136958950Y-83794100D01*
X136958950Y-82193900D01*
X136911973Y-81951777D01*
X136772183Y-81738973D01*
X136561150Y-81596523D01*
X136311510Y-81546460D01*
X136081640Y-81546460D01*
X136081640Y-80240645D01*
X136081640Y-80240640D01*
X136081641Y-80240640D01*
X135984967Y-79754632D01*
X135709666Y-79342615D01*
X135709666Y-79342614D01*
X135709662Y-79342611D01*
X134653026Y-78285974D01*
X134241008Y-78010673D01*
X133755000Y-77913999D01*
X133754994Y-77914000D01*
X125766248Y-77914000D01*
X125594848Y-77799474D01*
X125021359Y-77685400D01*
X124962641Y-77685400D01*
X124389152Y-77799474D01*
X124217751Y-77914000D01*
X123808150Y-77914000D01*
X123776273Y-77865473D01*
X123565240Y-77723023D01*
X123315600Y-77672960D01*
X121588400Y-77672960D01*
X121346277Y-77719937D01*
X121133473Y-77859727D01*
X120991023Y-78070760D01*
X120940960Y-78320400D01*
X120940960Y-80047600D01*
X120987937Y-80289723D01*
X121127727Y-80502527D01*
X121338760Y-80644977D01*
X121430135Y-80663301D01*
X121169312Y-80949053D01*
X120997042Y-81364974D01*
X121118183Y-81597000D01*
X122325000Y-81597000D01*
X122325000Y-81577000D01*
X122579000Y-81577000D01*
X122579000Y-81597000D01*
X123658183Y-81597000D01*
X123785817Y-81597000D01*
X124865000Y-81597000D01*
X124865000Y-81577000D01*
X125119000Y-81577000D01*
X125119000Y-81597000D01*
X126325817Y-81597000D01*
X126446958Y-81364974D01*
X126274688Y-80949053D01*
X125880490Y-80517179D01*
X125757771Y-80459663D01*
X125766248Y-80454000D01*
X133228948Y-80454000D01*
X133541640Y-80766691D01*
X133541640Y-81546460D01*
X133311770Y-81546460D01*
X133069647Y-81593437D01*
X132856843Y-81733227D01*
X132714393Y-81944260D01*
X132664330Y-82193900D01*
X132664330Y-83794100D01*
X132711307Y-84036223D01*
X132851097Y-84249027D01*
X133062130Y-84391477D01*
X133311770Y-84441540D01*
X133541640Y-84441540D01*
X133541640Y-90009380D01*
X133250190Y-90067354D01*
X132714567Y-90425246D01*
X132597946Y-90599781D01*
X132547230Y-90535213D01*
X132547230Y-83920410D01*
X132547230Y-83667791D01*
X132547230Y-83279750D01*
X132547230Y-82708250D01*
X132547230Y-82320209D01*
X132547230Y-82067590D01*
X132450557Y-81834201D01*
X132271928Y-81655573D01*
X132038539Y-81558900D01*
X130698110Y-81558900D01*
X130539360Y-81717650D01*
X130539360Y-82867000D01*
X132388480Y-82867000D01*
X132547230Y-82708250D01*
X132547230Y-83279750D01*
X132388480Y-83121000D01*
X130539360Y-83121000D01*
X130539360Y-84270350D01*
X130698110Y-84429100D01*
X132038539Y-84429100D01*
X132271928Y-84332427D01*
X132450557Y-84153799D01*
X132547230Y-83920410D01*
X132547230Y-90535213D01*
X132419630Y-90372764D01*
X131856477Y-90056074D01*
X131724944Y-90024025D01*
X131469000Y-90143164D01*
X131469000Y-91757000D01*
X131489000Y-91757000D01*
X131489000Y-92011000D01*
X131469000Y-92011000D01*
X131469000Y-92031000D01*
X131215000Y-92031000D01*
X131215000Y-92011000D01*
X131195000Y-92011000D01*
X131195000Y-91757000D01*
X131215000Y-91757000D01*
X131215000Y-90143164D01*
X130959056Y-90024025D01*
X130827523Y-90056074D01*
X130285360Y-90360960D01*
X130285360Y-84270350D01*
X130285360Y-83121000D01*
X130285360Y-82867000D01*
X130285360Y-81717650D01*
X130126610Y-81558900D01*
X128786181Y-81558900D01*
X128552792Y-81655573D01*
X128374163Y-81834201D01*
X128277490Y-82067590D01*
X128277490Y-82320209D01*
X128277490Y-82708250D01*
X128436240Y-82867000D01*
X130285360Y-82867000D01*
X130285360Y-83121000D01*
X128436240Y-83121000D01*
X128277490Y-83279750D01*
X128277490Y-83667791D01*
X128277490Y-83920410D01*
X128374163Y-84153799D01*
X128552792Y-84332427D01*
X128786181Y-84429100D01*
X130126610Y-84429100D01*
X130285360Y-84270350D01*
X130285360Y-90360960D01*
X130264370Y-90372764D01*
X130086053Y-90599781D01*
X129969433Y-90425246D01*
X129433810Y-90067354D01*
X128802000Y-89941679D01*
X128170190Y-90067354D01*
X127634567Y-90425246D01*
X127276675Y-90960869D01*
X127151000Y-91592679D01*
X127151000Y-91738948D01*
X127005948Y-91884000D01*
X126446958Y-91884000D01*
X126446958Y-82083026D01*
X126325817Y-81851000D01*
X125119000Y-81851000D01*
X125119000Y-83058469D01*
X125351027Y-83178968D01*
X125880490Y-82930821D01*
X126274688Y-82498947D01*
X126446958Y-82083026D01*
X126446958Y-91884000D01*
X125320001Y-91884000D01*
X125131150Y-91756523D01*
X124881510Y-91706460D01*
X124865000Y-91706460D01*
X124865000Y-83058469D01*
X124865000Y-81851000D01*
X123785817Y-81851000D01*
X123658183Y-81851000D01*
X122579000Y-81851000D01*
X122579000Y-83058469D01*
X122811027Y-83178968D01*
X123340490Y-82930821D01*
X123722000Y-82512847D01*
X124103510Y-82930821D01*
X124632973Y-83178968D01*
X124865000Y-83058469D01*
X124865000Y-91706460D01*
X122325000Y-91706460D01*
X122325000Y-83058469D01*
X122325000Y-81851000D01*
X121118183Y-81851000D01*
X120997042Y-82083026D01*
X121169312Y-82498947D01*
X121563510Y-82930821D01*
X122092973Y-83178968D01*
X122325000Y-83058469D01*
X122325000Y-91706460D01*
X121881770Y-91706460D01*
X121639647Y-91753437D01*
X121426843Y-91893227D01*
X121284393Y-92104260D01*
X121234330Y-92353900D01*
X121234330Y-93954100D01*
X121281307Y-94196223D01*
X121421097Y-94409027D01*
X121632130Y-94551477D01*
X121881770Y-94601540D01*
X122365640Y-94601540D01*
X122365640Y-95613519D01*
X121713580Y-96265580D01*
X121493338Y-96595193D01*
X121480507Y-96659700D01*
X121416000Y-96984000D01*
X121416000Y-98294221D01*
X121227073Y-98418327D01*
X121183662Y-98482637D01*
X121117230Y-98416205D01*
X121117230Y-94080410D01*
X121117230Y-93827791D01*
X121117230Y-93439750D01*
X121117230Y-92868250D01*
X121117230Y-92480209D01*
X121117230Y-92227590D01*
X121020557Y-91994201D01*
X120841928Y-91815573D01*
X120608539Y-91718900D01*
X119268110Y-91718900D01*
X119109360Y-91877650D01*
X119109360Y-93027000D01*
X120958480Y-93027000D01*
X121117230Y-92868250D01*
X121117230Y-93439750D01*
X120958480Y-93281000D01*
X119109360Y-93281000D01*
X119109360Y-94430350D01*
X119268110Y-94589100D01*
X120608539Y-94589100D01*
X120841928Y-94492427D01*
X121020557Y-94313799D01*
X121117230Y-94080410D01*
X121117230Y-98416205D01*
X121041698Y-98340673D01*
X120808309Y-98244000D01*
X120217750Y-98244000D01*
X120059000Y-98402750D01*
X120059000Y-99377000D01*
X120079000Y-99377000D01*
X120079000Y-99631000D01*
X120059000Y-99631000D01*
X120059000Y-100605250D01*
X120217750Y-100764000D01*
X120808309Y-100764000D01*
X121041698Y-100667327D01*
X121183176Y-100525849D01*
X121221327Y-100583927D01*
X121432360Y-100726377D01*
X121682000Y-100776440D01*
X123182000Y-100776440D01*
X123424123Y-100729463D01*
X123636927Y-100589673D01*
X123779377Y-100378640D01*
X123829440Y-100129000D01*
X123829440Y-98879000D01*
X123782463Y-98636877D01*
X123642673Y-98424073D01*
X123448000Y-98292666D01*
X123448000Y-97404840D01*
X124100060Y-96752780D01*
X124100061Y-96752780D01*
X124320302Y-96423167D01*
X124320302Y-96423166D01*
X124333132Y-96358659D01*
X124397639Y-96034360D01*
X124397640Y-96034360D01*
X124397640Y-94601540D01*
X124881510Y-94601540D01*
X125123633Y-94554563D01*
X125322390Y-94424000D01*
X127531994Y-94424000D01*
X127531999Y-94424000D01*
X127628673Y-94910008D01*
X127903974Y-95322026D01*
X128284971Y-95703022D01*
X128284974Y-95703026D01*
X128696992Y-95978327D01*
X129183000Y-96075000D01*
X135659994Y-96075000D01*
X135660000Y-96075001D01*
X135660000Y-96075000D01*
X136146008Y-95978327D01*
X136558026Y-95703026D01*
X139107051Y-93154000D01*
X140572365Y-93154000D01*
X140257585Y-93364330D01*
X139932729Y-93850511D01*
X139818655Y-94424000D01*
X139932729Y-94997489D01*
X140257585Y-95483670D01*
X140273367Y-95494215D01*
X140243877Y-95499937D01*
X140031073Y-95639727D01*
X139888623Y-95850760D01*
X139838560Y-96100400D01*
X139838560Y-97827600D01*
X139885537Y-98069723D01*
X140025327Y-98282527D01*
X140232000Y-98422033D01*
X140232000Y-101758948D01*
X137342974Y-104647974D01*
X137067673Y-105059992D01*
X136970999Y-105546000D01*
X137067673Y-106032008D01*
X137342974Y-106444026D01*
X137754992Y-106719327D01*
X138241000Y-106816001D01*
X138727008Y-106719327D01*
X139139026Y-106444026D01*
X142400022Y-103183028D01*
X142400025Y-103183026D01*
X142400026Y-103183026D01*
X142675327Y-102771008D01*
X142772000Y-102285000D01*
X142772000Y-98420261D01*
X142972927Y-98288273D01*
X143115377Y-98077240D01*
X143165440Y-97827600D01*
X143165440Y-96100400D01*
X143118463Y-95858277D01*
X143010550Y-95694000D01*
X143152994Y-95694000D01*
X143153000Y-95694001D01*
X143153000Y-95694000D01*
X143639008Y-95597327D01*
X144051026Y-95322026D01*
X145067026Y-94306026D01*
X145342327Y-93894008D01*
X145439000Y-93408000D01*
X145439001Y-93408000D01*
X145439000Y-93407994D01*
X145439000Y-90868000D01*
X145342327Y-90381992D01*
X145067026Y-89969974D01*
X145067022Y-89969971D01*
X139851000Y-84753948D01*
X139851000Y-72598051D01*
X140885051Y-71564000D01*
X142847700Y-71564000D01*
X142870037Y-71679123D01*
X143009827Y-71891927D01*
X143220860Y-72034377D01*
X143470500Y-72084440D01*
X144613500Y-72084440D01*
X144855623Y-72037463D01*
X145068427Y-71897673D01*
X145210877Y-71686640D01*
X145260940Y-71437000D01*
X145260940Y-70550695D01*
X145312000Y-70294000D01*
X145312000Y-73214994D01*
X145311999Y-73215000D01*
X145408673Y-73701008D01*
X145683974Y-74113026D01*
X147502611Y-75931662D01*
X147502614Y-75931666D01*
X147914632Y-76206967D01*
X148400640Y-76303640D01*
X156564460Y-76303640D01*
X156564460Y-76533510D01*
X156611437Y-76775633D01*
X156742000Y-76974390D01*
X156742000Y-86169000D01*
X152629480Y-86169000D01*
X152629480Y-84587850D01*
X152629480Y-77590150D01*
X152582503Y-77348027D01*
X152442713Y-77135223D01*
X152231680Y-76992773D01*
X151982040Y-76942710D01*
X141181960Y-76942710D01*
X140939837Y-76989687D01*
X140727033Y-77129477D01*
X140584583Y-77340510D01*
X140534520Y-77590150D01*
X140534520Y-84587850D01*
X140581497Y-84829973D01*
X140721287Y-85042777D01*
X140932320Y-85185227D01*
X141181960Y-85235290D01*
X151982040Y-85235290D01*
X152224163Y-85188313D01*
X152436967Y-85048523D01*
X152579417Y-84837490D01*
X152629480Y-84587850D01*
X152629480Y-86169000D01*
X151678456Y-86169000D01*
X151666189Y-86139311D01*
X151362786Y-85835378D01*
X150966168Y-85670687D01*
X150536716Y-85670313D01*
X150139811Y-85834311D01*
X149835878Y-86137714D01*
X149671187Y-86534332D01*
X149670813Y-86963784D01*
X149834811Y-87360689D01*
X150138214Y-87664622D01*
X150292238Y-87728578D01*
X150467080Y-87903421D01*
X150513682Y-87934560D01*
X148868000Y-87934560D01*
X148625877Y-87981537D01*
X148413073Y-88121327D01*
X148270623Y-88332360D01*
X148220560Y-88582000D01*
X148220560Y-90227388D01*
X147947114Y-90500834D01*
X147671813Y-90912852D01*
X147575139Y-91398860D01*
X147575140Y-91398865D01*
X147575140Y-94500460D01*
X147544660Y-94500460D01*
X147302537Y-94547437D01*
X147089733Y-94687227D01*
X146947283Y-94898260D01*
X146897220Y-95147900D01*
X146897220Y-96748100D01*
X146944197Y-96990223D01*
X147083987Y-97203027D01*
X147295020Y-97345477D01*
X147544660Y-97395540D01*
X148019640Y-97395540D01*
X148019640Y-100910140D01*
X148082477Y-101226046D01*
X148261423Y-101493857D01*
X151916500Y-105148933D01*
X151916500Y-105434913D01*
X151869623Y-105504360D01*
X151819560Y-105754000D01*
X151819560Y-106689000D01*
X151195000Y-106689000D01*
X151195000Y-107281560D01*
X150292000Y-107281560D01*
X150049877Y-107328537D01*
X149973817Y-107378500D01*
X147407500Y-107378500D01*
X147407500Y-107365040D01*
X147699600Y-107365040D01*
X147941723Y-107318063D01*
X148154527Y-107178273D01*
X148296977Y-106967240D01*
X148347040Y-106717600D01*
X148347040Y-104482400D01*
X148300063Y-104240277D01*
X148160273Y-104027473D01*
X147949240Y-103885023D01*
X147699600Y-103834960D01*
X145464400Y-103834960D01*
X145222277Y-103881937D01*
X145009473Y-104021727D01*
X144867023Y-104232760D01*
X144816960Y-104482400D01*
X144816960Y-106717600D01*
X144863937Y-106959723D01*
X145003727Y-107172527D01*
X145214760Y-107314977D01*
X145464400Y-107365040D01*
X145756500Y-107365040D01*
X145756500Y-107378500D01*
X137155933Y-107378500D01*
X132507717Y-102730283D01*
X132239906Y-102551337D01*
X131924000Y-102488500D01*
X131507100Y-102488500D01*
X131507100Y-101400110D01*
X131507100Y-100828610D01*
X131507100Y-99488181D01*
X131410427Y-99254792D01*
X131231799Y-99076163D01*
X130998410Y-98979490D01*
X130745791Y-98979490D01*
X130357750Y-98979490D01*
X130199000Y-99138240D01*
X130199000Y-100987360D01*
X131348350Y-100987360D01*
X131507100Y-100828610D01*
X131507100Y-101400110D01*
X131348350Y-101241360D01*
X130199000Y-101241360D01*
X130199000Y-101261360D01*
X129945000Y-101261360D01*
X129945000Y-101241360D01*
X129945000Y-100987360D01*
X129945000Y-99138240D01*
X129786250Y-98979490D01*
X129398209Y-98979490D01*
X129145590Y-98979490D01*
X128912201Y-99076163D01*
X128733573Y-99254792D01*
X128636900Y-99488181D01*
X128636900Y-100828610D01*
X128795650Y-100987360D01*
X129945000Y-100987360D01*
X129945000Y-101241360D01*
X128795650Y-101241360D01*
X128636900Y-101400110D01*
X128636900Y-102488500D01*
X125165389Y-102488500D01*
X125152463Y-102421877D01*
X125012673Y-102209073D01*
X124801640Y-102066623D01*
X124552000Y-102016560D01*
X123052000Y-102016560D01*
X122809877Y-102063537D01*
X122597073Y-102203327D01*
X122454623Y-102414360D01*
X122452783Y-102423530D01*
X122452463Y-102421877D01*
X122312673Y-102209073D01*
X122101640Y-102066623D01*
X121852000Y-102016560D01*
X120352000Y-102016560D01*
X120109877Y-102063537D01*
X119897073Y-102203327D01*
X119805000Y-102339728D01*
X119805000Y-100605250D01*
X119805000Y-99631000D01*
X119805000Y-99377000D01*
X119805000Y-98402750D01*
X119646250Y-98244000D01*
X119055691Y-98244000D01*
X118855360Y-98326979D01*
X118855360Y-94430350D01*
X118855360Y-93281000D01*
X118855360Y-93027000D01*
X118855360Y-91877650D01*
X118696610Y-91718900D01*
X117356181Y-91718900D01*
X117122792Y-91815573D01*
X116944163Y-91994201D01*
X116847490Y-92227590D01*
X116847490Y-92480209D01*
X116847490Y-92868250D01*
X117006240Y-93027000D01*
X118855360Y-93027000D01*
X118855360Y-93281000D01*
X117006240Y-93281000D01*
X116847490Y-93439750D01*
X116847490Y-93827791D01*
X116847490Y-94080410D01*
X116944163Y-94313799D01*
X117122792Y-94492427D01*
X117356181Y-94589100D01*
X118696610Y-94589100D01*
X118855360Y-94430350D01*
X118855360Y-98326979D01*
X118822302Y-98340673D01*
X118643673Y-98519301D01*
X118547000Y-98752690D01*
X118547000Y-99005309D01*
X118547000Y-99218250D01*
X118705750Y-99377000D01*
X119805000Y-99377000D01*
X119805000Y-99631000D01*
X118705750Y-99631000D01*
X118547000Y-99789750D01*
X118547000Y-100002691D01*
X118547000Y-100255310D01*
X118643673Y-100488699D01*
X118822302Y-100667327D01*
X119055691Y-100764000D01*
X119646250Y-100764000D01*
X119805000Y-100605250D01*
X119805000Y-102339728D01*
X119754623Y-102414360D01*
X119704560Y-102664000D01*
X119704560Y-103571006D01*
X118361283Y-104914283D01*
X118182337Y-105182094D01*
X118119500Y-105498000D01*
X118119500Y-105656371D01*
X117917000Y-105592000D01*
X117642000Y-105592000D01*
X117642000Y-106600000D01*
X117662000Y-106600000D01*
X117662000Y-106854000D01*
X117642000Y-106854000D01*
X117642000Y-107862000D01*
X117917000Y-107862000D01*
X118119500Y-107797628D01*
X118119500Y-110578000D01*
X118182337Y-110893906D01*
X118361283Y-111161717D01*
X118660283Y-111460717D01*
X118905000Y-111624232D01*
X118905000Y-111654002D01*
X119000184Y-111654002D01*
X119030681Y-111660068D01*
X118905000Y-111785750D01*
X118905000Y-111853310D01*
X119001673Y-112086699D01*
X119172089Y-112257114D01*
X119113771Y-112425869D01*
X119262437Y-112600000D01*
X120088000Y-112600000D01*
X120088000Y-112580000D01*
X120342000Y-112580000D01*
X120342000Y-112600000D01*
X121167563Y-112600000D01*
X121316229Y-112425869D01*
X121257910Y-112257114D01*
X121428327Y-112086699D01*
X121525000Y-111853310D01*
X121525000Y-111785750D01*
X121366250Y-111627000D01*
X121208943Y-111627000D01*
X121344927Y-111537673D01*
X121487377Y-111326640D01*
X121492586Y-111300663D01*
X121525000Y-111268250D01*
X121525000Y-111200690D01*
X121516668Y-111180576D01*
X121537440Y-111077000D01*
X121537440Y-111052500D01*
X126403066Y-111052500D01*
X127324560Y-111973993D01*
X127324560Y-112854000D01*
X127371537Y-113096123D01*
X127511327Y-113308927D01*
X127722360Y-113451377D01*
X127972000Y-113501440D01*
X129472000Y-113501440D01*
X129714123Y-113454463D01*
X129926927Y-113314673D01*
X130069377Y-113103640D01*
X130071216Y-113094469D01*
X130071537Y-113096123D01*
X130211327Y-113308927D01*
X130422360Y-113451377D01*
X130672000Y-113501440D01*
X132172000Y-113501440D01*
X132414123Y-113454463D01*
X132626927Y-113314673D01*
X132769377Y-113103640D01*
X132819440Y-112854000D01*
X132819440Y-111967993D01*
X133357933Y-111429500D01*
X135657874Y-111429500D01*
X135621900Y-111516351D01*
X135621900Y-112657390D01*
X135780650Y-112816140D01*
X136930000Y-112816140D01*
X136930000Y-112796140D01*
X137184000Y-112796140D01*
X137184000Y-112816140D01*
X138333350Y-112816140D01*
X138492100Y-112657390D01*
X138492100Y-111516351D01*
X138456125Y-111429500D01*
X143364709Y-111429500D01*
X143146382Y-111575382D01*
X139065904Y-115655860D01*
X138504540Y-115655860D01*
X138504540Y-115244380D01*
X138457563Y-115002257D01*
X138317773Y-114789453D01*
X138253009Y-114745736D01*
X138395427Y-114603318D01*
X138492100Y-114369929D01*
X138492100Y-113228890D01*
X138333350Y-113070140D01*
X137184000Y-113070140D01*
X137184000Y-113090140D01*
X136930000Y-113090140D01*
X136930000Y-113070140D01*
X135780650Y-113070140D01*
X135621900Y-113228890D01*
X135621900Y-114369929D01*
X135718573Y-114603318D01*
X135860509Y-114745254D01*
X135801973Y-114783707D01*
X135659523Y-114994740D01*
X135609460Y-115244380D01*
X135609460Y-117845340D01*
X135656437Y-118087463D01*
X135796227Y-118300267D01*
X136007260Y-118442717D01*
X136256900Y-118492780D01*
X137857100Y-118492780D01*
X138099223Y-118445803D01*
X138312027Y-118306013D01*
X138454477Y-118094980D01*
X138504540Y-117845340D01*
X138504540Y-117433860D01*
X139282706Y-117433860D01*
X138042066Y-118674500D01*
X131321040Y-118674500D01*
X131321040Y-118484000D01*
X131274063Y-118241877D01*
X131134273Y-118029073D01*
X130923240Y-117886623D01*
X130673600Y-117836560D01*
X128946400Y-117836560D01*
X128704277Y-117883537D01*
X128491473Y-118023327D01*
X128349023Y-118234360D01*
X128341281Y-118272962D01*
X128329670Y-118255585D01*
X127843489Y-117930729D01*
X127270000Y-117816655D01*
X126696511Y-117930729D01*
X126210330Y-118255585D01*
X126000000Y-118570365D01*
X125789670Y-118255585D01*
X125303489Y-117930729D01*
X124730000Y-117816655D01*
X124156511Y-117930729D01*
X123670330Y-118255585D01*
X123460000Y-118570365D01*
X123249670Y-118255585D01*
X122763489Y-117930729D01*
X122190000Y-117816655D01*
X121616511Y-117930729D01*
X121316229Y-118131371D01*
X121316229Y-113028131D01*
X121167563Y-112854000D01*
X120342000Y-112854000D01*
X120342000Y-113819734D01*
X120512938Y-113946268D01*
X120886821Y-113762552D01*
X121174568Y-113438049D01*
X121316229Y-113028131D01*
X121316229Y-118131371D01*
X121130330Y-118255585D01*
X120805474Y-118741766D01*
X120691400Y-119315255D01*
X120691400Y-119684745D01*
X120805474Y-120258234D01*
X121130330Y-120744415D01*
X121364500Y-120900882D01*
X121364500Y-121880000D01*
X121427337Y-122195906D01*
X121606283Y-122463717D01*
X123052283Y-123909717D01*
X123320095Y-124088663D01*
X123636000Y-124151501D01*
X123636000Y-124151500D01*
X123636005Y-124151500D01*
X138368000Y-124151500D01*
X138683905Y-124088663D01*
X138683906Y-124088663D01*
X138951717Y-123909717D01*
X145831934Y-117029500D01*
X149972913Y-117029500D01*
X150042360Y-117076377D01*
X150292000Y-117126440D01*
X151195000Y-117126440D01*
X151195000Y-117484000D01*
X151195000Y-117867919D01*
X151819560Y-117853724D01*
X151819560Y-118654000D01*
X151843853Y-118779212D01*
X149646565Y-120976500D01*
X143702000Y-120976500D01*
X143386094Y-121039337D01*
X143118283Y-121218283D01*
X138355783Y-125980783D01*
X138176837Y-126248594D01*
X138114000Y-126564500D01*
X138114000Y-127834500D01*
X120210882Y-127834500D01*
X120054415Y-127600330D01*
X120032220Y-127585500D01*
X120185699Y-127521927D01*
X120364327Y-127343298D01*
X120461000Y-127109909D01*
X120461000Y-126405750D01*
X120461000Y-125834250D01*
X120461000Y-125130091D01*
X120364327Y-124896702D01*
X120185699Y-124718073D01*
X120088000Y-124677604D01*
X120088000Y-113819734D01*
X120088000Y-112854000D01*
X119262437Y-112854000D01*
X119113771Y-113028131D01*
X119255432Y-113438049D01*
X119543179Y-113762552D01*
X119917062Y-113946268D01*
X120088000Y-113819734D01*
X120088000Y-124677604D01*
X119952310Y-124621400D01*
X119699691Y-124621400D01*
X119095750Y-124621400D01*
X118937000Y-124780150D01*
X118937000Y-125993000D01*
X120302250Y-125993000D01*
X120461000Y-125834250D01*
X120461000Y-126405750D01*
X120302250Y-126247000D01*
X118937000Y-126247000D01*
X118937000Y-126267000D01*
X118884119Y-126267000D01*
X118884119Y-114028874D01*
X118884119Y-113425126D01*
X118682368Y-113014237D01*
X118341678Y-112726998D01*
X117917000Y-112592000D01*
X117642000Y-112592000D01*
X117642000Y-113600000D01*
X118757954Y-113600000D01*
X118884119Y-113425126D01*
X118884119Y-114028874D01*
X118757954Y-113854000D01*
X117642000Y-113854000D01*
X117642000Y-114862000D01*
X117917000Y-114862000D01*
X118341678Y-114727002D01*
X118682368Y-114439763D01*
X118884119Y-114028874D01*
X118884119Y-126267000D01*
X118683000Y-126267000D01*
X118683000Y-126247000D01*
X118683000Y-125993000D01*
X118683000Y-124780150D01*
X118524250Y-124621400D01*
X117920309Y-124621400D01*
X117667690Y-124621400D01*
X117434301Y-124718073D01*
X117388000Y-124764374D01*
X117388000Y-114862000D01*
X117388000Y-113854000D01*
X117388000Y-113600000D01*
X117388000Y-112592000D01*
X117388000Y-107862000D01*
X117388000Y-106854000D01*
X117388000Y-106600000D01*
X117388000Y-105592000D01*
X117113000Y-105592000D01*
X116688322Y-105726998D01*
X116347632Y-106014237D01*
X116145881Y-106425126D01*
X116272046Y-106600000D01*
X117388000Y-106600000D01*
X117388000Y-106854000D01*
X116272046Y-106854000D01*
X116145881Y-107028874D01*
X116347632Y-107439763D01*
X116688322Y-107727002D01*
X117113000Y-107862000D01*
X117388000Y-107862000D01*
X117388000Y-112592000D01*
X117113000Y-112592000D01*
X116688322Y-112726998D01*
X116347632Y-113014237D01*
X116145881Y-113425126D01*
X116272046Y-113600000D01*
X117388000Y-113600000D01*
X117388000Y-113854000D01*
X116272046Y-113854000D01*
X116145881Y-114028874D01*
X116347632Y-114439763D01*
X116688322Y-114727002D01*
X117113000Y-114862000D01*
X117388000Y-114862000D01*
X117388000Y-124764374D01*
X117255673Y-124896702D01*
X117159000Y-125130091D01*
X117159000Y-125834250D01*
X117317750Y-125993000D01*
X118683000Y-125993000D01*
X118683000Y-126247000D01*
X117317750Y-126247000D01*
X117159000Y-126405750D01*
X117159000Y-127109909D01*
X117255673Y-127343298D01*
X117434301Y-127521927D01*
X117587779Y-127585500D01*
X117565585Y-127600330D01*
X117240729Y-128086511D01*
X117126655Y-128660000D01*
X117240729Y-129233489D01*
X117565585Y-129719670D01*
X117880365Y-129930000D01*
X117565585Y-130140330D01*
X117240729Y-130626511D01*
X117126655Y-131200000D01*
X117240729Y-131773489D01*
X117565585Y-132259670D01*
X118051766Y-132584526D01*
X118625255Y-132698600D01*
X118994745Y-132698600D01*
X119568234Y-132584526D01*
X120054415Y-132259670D01*
X120379271Y-131773489D01*
X120493345Y-131200000D01*
X120379271Y-130626511D01*
X120054415Y-130140330D01*
X119739634Y-129930000D01*
X120054415Y-129719670D01*
X120210882Y-129485500D01*
X138812500Y-129485500D01*
X139128405Y-129422663D01*
X139128406Y-129422663D01*
X139130000Y-129421597D01*
X139130000Y-135874566D01*
X138360066Y-136644500D01*
X123902791Y-136644500D01*
X123870463Y-136477877D01*
X123730673Y-136265073D01*
X123519640Y-136122623D01*
X123270000Y-136072560D01*
X121970000Y-136072560D01*
X121727877Y-136119537D01*
X121515073Y-136259327D01*
X121372623Y-136470360D01*
X121322560Y-136720000D01*
X121322560Y-136724500D01*
X120210882Y-136724500D01*
X120054415Y-136490330D01*
X120032220Y-136475500D01*
X120185699Y-136411927D01*
X120364327Y-136233298D01*
X120461000Y-135999909D01*
X120461000Y-135295750D01*
X120461000Y-134724250D01*
X120461000Y-134020091D01*
X120364327Y-133786702D01*
X120185699Y-133608073D01*
X119952310Y-133511400D01*
X119699691Y-133511400D01*
X119095750Y-133511400D01*
X118937000Y-133670150D01*
X118937000Y-134883000D01*
X120302250Y-134883000D01*
X120461000Y-134724250D01*
X120461000Y-135295750D01*
X120302250Y-135137000D01*
X118937000Y-135137000D01*
X118937000Y-135157000D01*
X118683000Y-135157000D01*
X118683000Y-135137000D01*
X118683000Y-134883000D01*
X118683000Y-133670150D01*
X118524250Y-133511400D01*
X117920309Y-133511400D01*
X117667690Y-133511400D01*
X117434301Y-133608073D01*
X117255673Y-133786702D01*
X117159000Y-134020091D01*
X117159000Y-134724250D01*
X117317750Y-134883000D01*
X118683000Y-134883000D01*
X118683000Y-135137000D01*
X117317750Y-135137000D01*
X117159000Y-135295750D01*
X117159000Y-135999909D01*
X117255673Y-136233298D01*
X117434301Y-136411927D01*
X117587779Y-136475500D01*
X117565585Y-136490330D01*
X117240729Y-136976511D01*
X117126655Y-137550000D01*
X117240729Y-138123489D01*
X117565585Y-138609670D01*
X117880365Y-138820000D01*
X117565585Y-139030330D01*
X117240729Y-139516511D01*
X117126655Y-140090000D01*
X117240729Y-140663489D01*
X117565585Y-141149670D01*
X118051766Y-141474526D01*
X118625255Y-141588600D01*
X118994745Y-141588600D01*
X119568234Y-141474526D01*
X120054415Y-141149670D01*
X120210882Y-140915500D01*
X121322560Y-140915500D01*
X121322560Y-140920000D01*
X121369537Y-141162123D01*
X121509327Y-141374927D01*
X121720360Y-141517377D01*
X121970000Y-141567440D01*
X123270000Y-141567440D01*
X123512123Y-141520463D01*
X123724927Y-141380673D01*
X123867377Y-141169640D01*
X123902299Y-140995500D01*
X139177000Y-140995500D01*
X139492905Y-140932663D01*
X139492906Y-140932663D01*
X139760717Y-140753717D01*
X141428217Y-139086217D01*
X141607163Y-138818406D01*
X141607163Y-138818405D01*
X141670000Y-138502500D01*
X141670000Y-127668434D01*
X143451167Y-125887266D01*
X143484811Y-125968689D01*
X143788214Y-126272622D01*
X144184832Y-126437313D01*
X144614284Y-126437687D01*
X145011189Y-126273689D01*
X145273000Y-126012334D01*
X145273000Y-126142250D01*
X145431750Y-126301000D01*
X146531000Y-126301000D01*
X146531000Y-125326750D01*
X146372250Y-125168000D01*
X145781691Y-125168000D01*
X145548302Y-125264673D01*
X145480022Y-125332951D01*
X145480187Y-125144216D01*
X145480000Y-125143763D01*
X145480000Y-124762840D01*
X145583340Y-124659500D01*
X150877500Y-124659500D01*
X151193405Y-124596663D01*
X151193406Y-124596663D01*
X151461217Y-124417717D01*
X154925717Y-120953217D01*
X155104663Y-120685406D01*
X155104663Y-120685405D01*
X155116500Y-120625897D01*
X155116500Y-124015566D01*
X154030416Y-125101649D01*
X154027887Y-125099116D01*
X153518816Y-124887731D01*
X152967602Y-124887250D01*
X152458163Y-125097746D01*
X152068056Y-125487173D01*
X152020167Y-125602500D01*
X150516538Y-125602500D01*
X150508463Y-125560877D01*
X150368673Y-125348073D01*
X150157640Y-125205623D01*
X149908000Y-125155560D01*
X148408000Y-125155560D01*
X148165877Y-125202537D01*
X147953073Y-125342327D01*
X147909662Y-125406637D01*
X147767698Y-125264673D01*
X147534309Y-125168000D01*
X146943750Y-125168000D01*
X146785000Y-125326750D01*
X146785000Y-126301000D01*
X146805000Y-126301000D01*
X146805000Y-126555000D01*
X146785000Y-126555000D01*
X146785000Y-127529250D01*
X146943750Y-127688000D01*
X147534309Y-127688000D01*
X147767698Y-127591327D01*
X147909176Y-127449849D01*
X147947327Y-127507927D01*
X148158360Y-127650377D01*
X148408000Y-127700440D01*
X149908000Y-127700440D01*
X150150123Y-127653463D01*
X150362927Y-127513673D01*
X150505377Y-127302640D01*
X150515231Y-127253500D01*
X152262946Y-127253500D01*
X152456113Y-127447004D01*
X152965184Y-127658389D01*
X153516398Y-127658870D01*
X154025837Y-127448374D01*
X154415944Y-127058947D01*
X154457551Y-126958744D01*
X154610157Y-126856777D01*
X155916500Y-125550434D01*
X155916500Y-128740066D01*
X154351446Y-130305119D01*
X154027887Y-129980996D01*
X153518816Y-129769611D01*
X152967602Y-129769130D01*
X152458163Y-129979626D01*
X152068056Y-130369053D01*
X151937901Y-130682500D01*
X150516538Y-130682500D01*
X150508463Y-130640877D01*
X150368673Y-130428073D01*
X150157640Y-130285623D01*
X149908000Y-130235560D01*
X148408000Y-130235560D01*
X148165877Y-130282537D01*
X147953073Y-130422327D01*
X147909662Y-130486637D01*
X147767698Y-130344673D01*
X147534309Y-130248000D01*
X146943750Y-130248000D01*
X146785000Y-130406750D01*
X146785000Y-131381000D01*
X146805000Y-131381000D01*
X146805000Y-131635000D01*
X146785000Y-131635000D01*
X146785000Y-132609250D01*
X146943750Y-132768000D01*
X147534309Y-132768000D01*
X147767698Y-132671327D01*
X147909176Y-132529849D01*
X147947327Y-132587927D01*
X148158360Y-132730377D01*
X148408000Y-132780440D01*
X149908000Y-132780440D01*
X150150123Y-132733463D01*
X150362927Y-132593673D01*
X150505377Y-132382640D01*
X150515231Y-132333500D01*
X152467229Y-132333500D01*
X152965184Y-132540269D01*
X153516398Y-132540750D01*
X154025837Y-132330254D01*
X154376261Y-131980440D01*
X154669060Y-131980440D01*
X154984965Y-131917603D01*
X154984966Y-131917603D01*
X155252777Y-131738657D01*
X156716500Y-130274934D01*
X156716500Y-132321566D01*
X151913033Y-137125033D01*
X151913030Y-137125036D01*
X147436283Y-141601783D01*
X147257337Y-141869594D01*
X147194500Y-142185500D01*
X147194500Y-142499117D01*
X146960330Y-142655585D01*
X146635474Y-143141766D01*
X146531000Y-143666992D01*
X146531000Y-132609250D01*
X146531000Y-131635000D01*
X146531000Y-131381000D01*
X146531000Y-130406750D01*
X146531000Y-127529250D01*
X146531000Y-126555000D01*
X145431750Y-126555000D01*
X145273000Y-126713750D01*
X145273000Y-126926691D01*
X145273000Y-127179310D01*
X145369673Y-127412699D01*
X145548302Y-127591327D01*
X145781691Y-127688000D01*
X146372250Y-127688000D01*
X146531000Y-127529250D01*
X146531000Y-130406750D01*
X146372250Y-130248000D01*
X145781691Y-130248000D01*
X145548302Y-130344673D01*
X145369673Y-130523301D01*
X145273000Y-130756690D01*
X145273000Y-131009309D01*
X145273000Y-131222250D01*
X145431750Y-131381000D01*
X146531000Y-131381000D01*
X146531000Y-131635000D01*
X145431750Y-131635000D01*
X145273000Y-131793750D01*
X145273000Y-132006691D01*
X145273000Y-132259310D01*
X145369673Y-132492699D01*
X145548302Y-132671327D01*
X145781691Y-132768000D01*
X146372250Y-132768000D01*
X146531000Y-132609250D01*
X146531000Y-143666992D01*
X146521400Y-143715255D01*
X146521400Y-144084745D01*
X146635474Y-144658234D01*
X146960330Y-145144415D01*
X147446511Y-145469271D01*
X148020000Y-145583345D01*
X148593489Y-145469271D01*
X149079670Y-145144415D01*
X149290000Y-144829634D01*
X149500330Y-145144415D01*
X149986511Y-145469271D01*
X150560000Y-145583345D01*
X151133489Y-145469271D01*
X151619670Y-145144415D01*
X151634499Y-145122220D01*
X151698073Y-145275699D01*
X151876702Y-145454327D01*
X152110091Y-145551000D01*
X152814250Y-145551000D01*
X152973000Y-145392250D01*
X152973000Y-144027000D01*
X152953000Y-144027000D01*
X152953000Y-143773000D01*
X152973000Y-143773000D01*
X152973000Y-142407750D01*
X152937591Y-142372341D01*
X157969963Y-137339969D01*
X157969966Y-137339967D01*
X157969967Y-137339967D01*
X158624500Y-136685433D01*
X158624500Y-142236560D01*
X158586400Y-142236560D01*
X158344277Y-142283537D01*
X158131473Y-142423327D01*
X157989023Y-142634360D01*
X157938960Y-142884000D01*
X157938960Y-144916000D01*
X157985937Y-145158123D01*
X158125727Y-145370927D01*
X158336760Y-145513377D01*
X158586400Y-145563440D01*
X160313600Y-145563440D01*
X160555723Y-145516463D01*
X160768527Y-145376673D01*
X160910977Y-145165640D01*
X160929483Y-145073354D01*
X161087964Y-145250732D01*
X161615209Y-145504709D01*
X161630974Y-145507358D01*
X161863000Y-145386217D01*
X161863000Y-144027000D01*
X161843000Y-144027000D01*
X161843000Y-143773000D01*
X161863000Y-143773000D01*
X161863000Y-142413783D01*
X161630974Y-142292642D01*
X161615209Y-142295291D01*
X161087964Y-142549268D01*
X160930326Y-142725701D01*
X160914063Y-142641877D01*
X160774273Y-142429073D01*
X160563240Y-142286623D01*
X160313600Y-142236560D01*
X160275500Y-142236560D01*
X160275500Y-137105556D01*
X160425784Y-137105687D01*
X160822689Y-136941689D01*
X161126622Y-136638286D01*
X161291313Y-136241668D01*
X161291687Y-135812216D01*
X161127689Y-135415311D01*
X160824286Y-135111378D01*
X160427668Y-134946687D01*
X160275500Y-134946554D01*
X160275500Y-134565505D01*
X160275500Y-134565500D01*
X160275501Y-134565500D01*
X160212663Y-134249595D01*
X160033717Y-133981784D01*
X160033717Y-133981783D01*
X160033713Y-133981780D01*
X159967500Y-133915566D01*
X159967500Y-132249933D01*
X163120780Y-135403213D01*
X163120783Y-135403217D01*
X163120784Y-135403217D01*
X163704500Y-135986933D01*
X163704500Y-142499117D01*
X163470330Y-142655585D01*
X163263539Y-142965069D01*
X162892036Y-142549268D01*
X162364791Y-142295291D01*
X162349026Y-142292642D01*
X162117000Y-142413783D01*
X162117000Y-143773000D01*
X162137000Y-143773000D01*
X162137000Y-144027000D01*
X162117000Y-144027000D01*
X162117000Y-145386217D01*
X162349026Y-145507358D01*
X162364791Y-145504709D01*
X162892036Y-145250732D01*
X163263539Y-144834930D01*
X163470330Y-145144415D01*
X163956511Y-145469271D01*
X164530000Y-145583345D01*
X165103489Y-145469271D01*
X165589670Y-145144415D01*
X165914526Y-144658234D01*
X166028600Y-144084745D01*
X166028600Y-143715255D01*
X165914526Y-143141766D01*
X165589670Y-142655585D01*
X165355500Y-142499117D01*
X165355500Y-135687881D01*
X165394689Y-135671689D01*
X165698622Y-135368286D01*
X165863313Y-134971668D01*
X165863687Y-134542216D01*
X165699689Y-134145311D01*
X165396286Y-133841378D01*
X164999668Y-133676687D01*
X164570216Y-133676313D01*
X164173311Y-133840311D01*
X164082964Y-133930500D01*
X163982933Y-133930500D01*
X160767500Y-130715066D01*
X160767500Y-126826933D01*
X165724280Y-131783713D01*
X165724283Y-131783717D01*
X165724284Y-131783717D01*
X165992095Y-131962663D01*
X166308000Y-132025501D01*
X166308000Y-132025500D01*
X166308005Y-132025500D01*
X167946560Y-132025500D01*
X167946560Y-132063600D01*
X167993537Y-132305723D01*
X168133327Y-132518527D01*
X168344360Y-132660977D01*
X168594000Y-132711040D01*
X170626000Y-132711040D01*
X170868123Y-132664063D01*
X171080927Y-132524273D01*
X171223377Y-132313240D01*
X171273440Y-132063600D01*
X171273440Y-130336400D01*
X171226463Y-130094277D01*
X171086673Y-129881473D01*
X170875640Y-129739023D01*
X170837037Y-129731281D01*
X170854415Y-129719670D01*
X171179271Y-129233489D01*
X171293345Y-128660000D01*
X171179271Y-128086511D01*
X170854415Y-127600330D01*
X170539634Y-127390000D01*
X170854415Y-127179670D01*
X171179271Y-126693489D01*
X171293345Y-126120000D01*
X171179271Y-125546511D01*
X170854415Y-125060330D01*
X170539634Y-124850000D01*
X170854415Y-124639670D01*
X171179271Y-124153489D01*
X171293345Y-123580000D01*
X171179271Y-123006511D01*
X170854415Y-122520330D01*
X170435500Y-122240419D01*
X170435500Y-118563334D01*
X170839784Y-118563687D01*
X171236689Y-118399689D01*
X171540622Y-118096286D01*
X171631058Y-117878491D01*
X172201280Y-118448713D01*
X172201283Y-118448717D01*
X172361824Y-118555986D01*
X172469094Y-118627663D01*
X172469095Y-118627663D01*
X172785000Y-118690500D01*
X185485000Y-118690500D01*
X185978000Y-118690500D01*
X185978000Y-118929250D01*
X186136750Y-119088000D01*
X187136000Y-119088000D01*
X187136000Y-119068000D01*
X187390000Y-119068000D01*
X187390000Y-119088000D01*
X188389250Y-119088000D01*
X188520658Y-118956591D01*
X189346280Y-119782213D01*
X189346283Y-119782217D01*
X189346284Y-119782217D01*
X189614095Y-119961163D01*
X189930000Y-120024001D01*
X189930000Y-120024000D01*
X189930005Y-120024000D01*
X190150024Y-120024000D01*
X190188360Y-120049877D01*
X190438000Y-120099940D01*
X191200000Y-120099940D01*
X191442123Y-120052963D01*
X191654927Y-119913173D01*
X191797377Y-119702140D01*
X191847440Y-119452500D01*
X191847440Y-118944500D01*
X191801429Y-118707356D01*
X191835000Y-118626309D01*
X191835000Y-118531750D01*
X191676250Y-118373000D01*
X191487975Y-118373000D01*
X191449640Y-118347123D01*
X191200000Y-118297060D01*
X190672000Y-118297060D01*
X190672000Y-118194940D01*
X191200000Y-118194940D01*
X191442123Y-118147963D01*
X191486213Y-118119000D01*
X191676250Y-118119000D01*
X191835000Y-117960250D01*
X191835000Y-117865691D01*
X191800387Y-117782128D01*
X191847440Y-117547500D01*
X191847440Y-117039500D01*
X191800463Y-116797377D01*
X191660673Y-116584573D01*
X191449640Y-116442123D01*
X191230714Y-116398219D01*
X195835499Y-111793433D01*
X196331280Y-112289213D01*
X196331283Y-112289217D01*
X196331284Y-112289217D01*
X196599095Y-112468163D01*
X196915000Y-112531001D01*
X196915000Y-112531000D01*
X196915005Y-112531000D01*
X196975853Y-112531000D01*
X196825878Y-112680714D01*
X196661187Y-113077332D01*
X196660813Y-113506784D01*
X196661000Y-113507236D01*
X196661000Y-114296560D01*
X195899000Y-114296560D01*
X195656877Y-114343537D01*
X195444073Y-114483327D01*
X195301623Y-114694360D01*
X195251560Y-114944000D01*
X195251560Y-115187497D01*
X195202095Y-115197337D01*
X194934283Y-115376283D01*
X194934280Y-115376286D01*
X193888688Y-116421878D01*
X193740000Y-116392060D01*
X192978000Y-116392060D01*
X192735877Y-116439037D01*
X192523073Y-116578827D01*
X192380623Y-116789860D01*
X192330560Y-117039500D01*
X192330560Y-117547500D01*
X192377537Y-117789623D01*
X192517327Y-118002427D01*
X192728360Y-118144877D01*
X192978000Y-118194940D01*
X193740000Y-118194940D01*
X193982123Y-118147963D01*
X194026213Y-118119000D01*
X194184500Y-118119000D01*
X194500405Y-118056163D01*
X194500406Y-118056163D01*
X194768217Y-117877217D01*
X195349590Y-117295842D01*
X195438327Y-117430927D01*
X195649360Y-117573377D01*
X195899000Y-117623440D01*
X199455000Y-117623440D01*
X199532947Y-117608316D01*
X199563197Y-117764223D01*
X199702987Y-117977027D01*
X199914020Y-118119477D01*
X200163660Y-118169540D01*
X202503000Y-118169540D01*
X202503000Y-119979060D01*
X201950500Y-119979060D01*
X201708377Y-120026037D01*
X201549845Y-120130175D01*
X201400140Y-120029123D01*
X201150500Y-119979060D01*
X200550500Y-119979060D01*
X200308377Y-120026037D01*
X200102440Y-120161316D01*
X200102440Y-120024000D01*
X200055463Y-119781877D01*
X199915673Y-119569073D01*
X199704640Y-119426623D01*
X199455000Y-119376560D01*
X195899000Y-119376560D01*
X195749499Y-119405566D01*
X194958717Y-118614783D01*
X194690906Y-118435837D01*
X194375000Y-118373000D01*
X194027975Y-118373000D01*
X193989640Y-118347123D01*
X193740000Y-118297060D01*
X192978000Y-118297060D01*
X192735877Y-118344037D01*
X192523073Y-118483827D01*
X192380623Y-118694860D01*
X192330560Y-118944500D01*
X192330560Y-119452500D01*
X192377537Y-119694623D01*
X192517327Y-119907427D01*
X192728360Y-120049877D01*
X192978000Y-120099940D01*
X193740000Y-120099940D01*
X193982123Y-120052963D01*
X194026213Y-120024000D01*
X194033066Y-120024000D01*
X195251560Y-121242493D01*
X195251560Y-122056000D01*
X195298537Y-122298123D01*
X195438327Y-122510927D01*
X195649360Y-122653377D01*
X195899000Y-122703440D01*
X199455000Y-122703440D01*
X199697123Y-122656463D01*
X199909927Y-122516673D01*
X200052377Y-122305640D01*
X200102440Y-122056000D01*
X200102440Y-121865500D01*
X200214377Y-121865500D01*
X200300860Y-121923877D01*
X200550500Y-121973940D01*
X201150500Y-121973940D01*
X201392623Y-121926963D01*
X201551154Y-121822824D01*
X201700860Y-121923877D01*
X201950500Y-121973940D01*
X202550500Y-121973940D01*
X202792623Y-121926963D01*
X203005427Y-121787173D01*
X203032395Y-121747221D01*
X203032395Y-121747220D01*
X203072905Y-121739163D01*
X203072906Y-121739163D01*
X203340717Y-121560217D01*
X203912217Y-120988717D01*
X204091163Y-120720906D01*
X204091163Y-120720905D01*
X204154000Y-120405000D01*
X204154000Y-118157100D01*
X204780110Y-118157100D01*
X204938860Y-117998350D01*
X204938860Y-116849000D01*
X204918860Y-116849000D01*
X204918860Y-116595000D01*
X204938860Y-116595000D01*
X204938860Y-115445650D01*
X204780110Y-115286900D01*
X204154000Y-115286900D01*
X204154000Y-113569860D01*
X204091163Y-113253955D01*
X204091163Y-113253954D01*
X204015422Y-113140600D01*
X204780110Y-113140600D01*
X204938860Y-112981850D01*
X204938860Y-111832500D01*
X204918860Y-111832500D01*
X204918860Y-111578500D01*
X204938860Y-111578500D01*
X204938860Y-110429150D01*
X204780110Y-110270400D01*
X203639071Y-110270400D01*
X203405682Y-110367073D01*
X203263745Y-110509009D01*
X203225293Y-110450473D01*
X203014260Y-110308023D01*
X202764620Y-110257960D01*
X200163660Y-110257960D01*
X199921537Y-110304937D01*
X199708733Y-110444727D01*
X199566283Y-110655760D01*
X199521313Y-110880000D01*
X197256933Y-110880000D01*
X196978500Y-110601566D01*
X196978500Y-107245440D01*
X197672000Y-107245440D01*
X197914123Y-107198463D01*
X198126927Y-107058673D01*
X198269377Y-106847640D01*
X198319440Y-106598000D01*
X198319440Y-105798000D01*
X198272463Y-105555877D01*
X198199917Y-105445440D01*
X198372000Y-105445440D01*
X198614123Y-105398463D01*
X198826927Y-105258673D01*
X198969377Y-105047640D01*
X199019440Y-104798000D01*
X199019440Y-104633000D01*
X199645053Y-104633000D01*
X200200060Y-105188006D01*
X200200060Y-106196000D01*
X200247037Y-106438123D01*
X200386827Y-106650927D01*
X200597860Y-106793377D01*
X200847500Y-106843440D01*
X202347500Y-106843440D01*
X202589623Y-106796463D01*
X202802427Y-106656673D01*
X202944877Y-106445640D01*
X202946716Y-106436469D01*
X202947037Y-106438123D01*
X203086827Y-106650927D01*
X203297860Y-106793377D01*
X203547500Y-106843440D01*
X204545172Y-106843440D01*
X204368811Y-106916311D01*
X204064878Y-107219714D01*
X203900187Y-107616332D01*
X203899813Y-108045784D01*
X204063811Y-108442689D01*
X204367214Y-108746622D01*
X204763832Y-108911313D01*
X205193284Y-108911687D01*
X205590189Y-108747689D01*
X205894122Y-108444286D01*
X206058813Y-108047668D01*
X206058924Y-107920009D01*
X206579217Y-107399717D01*
X206758163Y-107131906D01*
X206758163Y-107131905D01*
X206821000Y-106816000D01*
X206821001Y-106816000D01*
X206821000Y-106815994D01*
X206821000Y-105421424D01*
X207097714Y-105698622D01*
X207494332Y-105863313D01*
X207923784Y-105863687D01*
X208320689Y-105699689D01*
X208624622Y-105396286D01*
X208789313Y-104999668D01*
X208789687Y-104570216D01*
X208789687Y-149315000D01*
X207001340Y-149315000D01*
X207001340Y-117648410D01*
X207001340Y-117395791D01*
X207001340Y-117007750D01*
X207001340Y-116436250D01*
X207001340Y-116048209D01*
X207001340Y-115795590D01*
X207001340Y-112631910D01*
X207001340Y-112379291D01*
X207001340Y-111991250D01*
X207001340Y-111419750D01*
X207001340Y-111031709D01*
X207001340Y-110779090D01*
X206904667Y-110545701D01*
X206726038Y-110367073D01*
X206492649Y-110270400D01*
X205351610Y-110270400D01*
X205192860Y-110429150D01*
X205192860Y-111578500D01*
X206842590Y-111578500D01*
X207001340Y-111419750D01*
X207001340Y-111991250D01*
X206842590Y-111832500D01*
X205192860Y-111832500D01*
X205192860Y-112981850D01*
X205351610Y-113140600D01*
X206492649Y-113140600D01*
X206726038Y-113043927D01*
X206904667Y-112865299D01*
X207001340Y-112631910D01*
X207001340Y-115795590D01*
X206904667Y-115562201D01*
X206726038Y-115383573D01*
X206492649Y-115286900D01*
X205351610Y-115286900D01*
X205192860Y-115445650D01*
X205192860Y-116595000D01*
X206842590Y-116595000D01*
X207001340Y-116436250D01*
X207001340Y-117007750D01*
X206842590Y-116849000D01*
X205192860Y-116849000D01*
X205192860Y-117998350D01*
X205351610Y-118157100D01*
X206492649Y-118157100D01*
X206726038Y-118060427D01*
X206904667Y-117881799D01*
X207001340Y-117648410D01*
X207001340Y-149315000D01*
X188548000Y-149315000D01*
X188548000Y-120091309D01*
X188548000Y-119500750D01*
X188389250Y-119342000D01*
X187390000Y-119342000D01*
X187390000Y-120441250D01*
X187548750Y-120600000D01*
X187786691Y-120600000D01*
X188039310Y-120600000D01*
X188272699Y-120503327D01*
X188451327Y-120324698D01*
X188548000Y-120091309D01*
X188548000Y-149315000D01*
X187136000Y-149315000D01*
X187136000Y-120441250D01*
X187136000Y-119342000D01*
X186136750Y-119342000D01*
X185978000Y-119500750D01*
X185978000Y-120091309D01*
X186074673Y-120324698D01*
X186253301Y-120503327D01*
X186486690Y-120600000D01*
X186739309Y-120600000D01*
X186977250Y-120600000D01*
X187136000Y-120441250D01*
X187136000Y-149315000D01*
X154598600Y-149315000D01*
X154598600Y-145042310D01*
X154598600Y-144789691D01*
X154598600Y-144185750D01*
X154598600Y-143614250D01*
X154598600Y-143010309D01*
X154598600Y-142757690D01*
X154501927Y-142524301D01*
X154323298Y-142345673D01*
X154089909Y-142249000D01*
X153385750Y-142249000D01*
X153227000Y-142407750D01*
X153227000Y-143773000D01*
X154439850Y-143773000D01*
X154598600Y-143614250D01*
X154598600Y-144185750D01*
X154439850Y-144027000D01*
X153227000Y-144027000D01*
X153227000Y-145392250D01*
X153385750Y-145551000D01*
X154089909Y-145551000D01*
X154323298Y-145454327D01*
X154501927Y-145275699D01*
X154598600Y-145042310D01*
X154598600Y-149315000D01*
X122955975Y-149315000D01*
X122955975Y-145552944D01*
X122955975Y-144787056D01*
X122756385Y-144305182D01*
X122318379Y-143832812D01*
X121732946Y-143564017D01*
X121477000Y-143682633D01*
X121477000Y-145043000D01*
X122836836Y-145043000D01*
X122955975Y-144787056D01*
X122955975Y-145552944D01*
X122836836Y-145297000D01*
X121477000Y-145297000D01*
X121477000Y-146657367D01*
X121732946Y-146775983D01*
X122318379Y-146507188D01*
X122756385Y-146034818D01*
X122955975Y-145552944D01*
X122955975Y-149315000D01*
X121223000Y-149315000D01*
X121223000Y-146657367D01*
X121223000Y-145297000D01*
X121223000Y-145043000D01*
X121223000Y-143682633D01*
X120967054Y-143564017D01*
X120381621Y-143832812D01*
X120380693Y-143833812D01*
X120364327Y-143794301D01*
X120185698Y-143615673D01*
X119952309Y-143519000D01*
X119095750Y-143519000D01*
X118937000Y-143677750D01*
X118937000Y-145043000D01*
X119863164Y-145043000D01*
X120302250Y-145043000D01*
X121223000Y-145043000D01*
X121223000Y-145297000D01*
X120302250Y-145297000D01*
X119863164Y-145297000D01*
X118937000Y-145297000D01*
X118937000Y-146662250D01*
X119095750Y-146821000D01*
X119952309Y-146821000D01*
X120185698Y-146724327D01*
X120364327Y-146545699D01*
X120380693Y-146506187D01*
X120381621Y-146507188D01*
X120967054Y-146775983D01*
X121223000Y-146657367D01*
X121223000Y-149315000D01*
X118683000Y-149315000D01*
X118683000Y-146662250D01*
X118683000Y-145297000D01*
X118683000Y-145043000D01*
X118683000Y-143677750D01*
X118524250Y-143519000D01*
X117667691Y-143519000D01*
X117434302Y-143615673D01*
X117255673Y-143794301D01*
X117159000Y-144027690D01*
X117159000Y-144280309D01*
X117159000Y-144884250D01*
X117317750Y-145043000D01*
X118683000Y-145043000D01*
X118683000Y-145297000D01*
X117317750Y-145297000D01*
X117159000Y-145455750D01*
X117159000Y-146059691D01*
X117159000Y-146312310D01*
X117255673Y-146545699D01*
X117434302Y-146724327D01*
X117667691Y-146821000D01*
X118524250Y-146821000D01*
X118683000Y-146662250D01*
X118683000Y-149315000D01*
X115685000Y-149315000D01*
X115685000Y-55685000D01*
X209315000Y-55685000D01*
X209315000Y-149315000D01*
X209315000Y-149315000D01*
G37*
X209315000Y-149315000D02*
X208789687Y-149315000D01*
X208789687Y-104570216D01*
X208625689Y-104173311D01*
X208535500Y-104082964D01*
X208535500Y-103514000D01*
X208472663Y-103198095D01*
X208293717Y-102930283D01*
X208025905Y-102751337D01*
X207977069Y-102741623D01*
X207797023Y-102561576D01*
X207923784Y-102561687D01*
X208320689Y-102397689D01*
X208624622Y-102094286D01*
X208789313Y-101697668D01*
X208789687Y-101268216D01*
X208625689Y-100871311D01*
X208322286Y-100567378D01*
X207925668Y-100402687D01*
X207496216Y-100402313D01*
X207099311Y-100566311D01*
X207008964Y-100656500D01*
X205932000Y-100656500D01*
X205616095Y-100719337D01*
X205530904Y-100776259D01*
X205396728Y-100802949D01*
X205158277Y-100962276D01*
X204957553Y-101163000D01*
X204242446Y-101163000D01*
X204929069Y-100476377D01*
X204977906Y-100466663D01*
X205245717Y-100287717D01*
X206019856Y-99513577D01*
X206145784Y-99513687D01*
X206542689Y-99349689D01*
X206846622Y-99046286D01*
X207011313Y-98649668D01*
X207011687Y-98220216D01*
X206847689Y-97823311D01*
X206544286Y-97519378D01*
X206147668Y-97354687D01*
X205718216Y-97354313D01*
X205321311Y-97518311D01*
X205017378Y-97821714D01*
X204852687Y-98218332D01*
X204852575Y-98345990D01*
X204078283Y-99120283D01*
X203899337Y-99388094D01*
X203889622Y-99436930D01*
X203499287Y-99827265D01*
X203499287Y-78235000D01*
X203499287Y-69465000D01*
X182500713Y-69465000D01*
X182500713Y-78235000D01*
X203499287Y-78235000D01*
X203499287Y-99827265D01*
X202963553Y-100363000D01*
X201069048Y-100363000D01*
X201181717Y-100287717D01*
X201955856Y-99513577D01*
X202081784Y-99513687D01*
X202478689Y-99349689D01*
X202782622Y-99046286D01*
X202947313Y-98649668D01*
X202947687Y-98220216D01*
X202783689Y-97823311D01*
X202480286Y-97519378D01*
X202083668Y-97354687D01*
X201654216Y-97354313D01*
X201257311Y-97518311D01*
X200953378Y-97821714D01*
X200788687Y-98218332D01*
X200788575Y-98345990D01*
X200014283Y-99120283D01*
X199936000Y-99237441D01*
X199936000Y-98664306D01*
X199963663Y-98622906D01*
X200026500Y-98307000D01*
X199963663Y-97991094D01*
X199784717Y-97723283D01*
X198197217Y-96135783D01*
X197929406Y-95956837D01*
X197613500Y-95894000D01*
X179643000Y-95894000D01*
X179327094Y-95956837D01*
X179059283Y-96135783D01*
X170601643Y-104593422D01*
X170475716Y-104593313D01*
X170078811Y-104757311D01*
X169774878Y-105060714D01*
X169610187Y-105457332D01*
X169609819Y-105879528D01*
X169571668Y-105863687D01*
X169142216Y-105863313D01*
X168745311Y-106027311D01*
X168441378Y-106330714D01*
X168276687Y-106727332D01*
X168276575Y-106854990D01*
X167753066Y-107378500D01*
X163511086Y-107378500D01*
X163441640Y-107331623D01*
X163192000Y-107281560D01*
X162924012Y-107281560D01*
X162998905Y-107266663D01*
X162998906Y-107266663D01*
X163266717Y-107087717D01*
X164684763Y-105669669D01*
X164701537Y-105756123D01*
X164841327Y-105968927D01*
X165052360Y-106111377D01*
X165302000Y-106161440D01*
X166552000Y-106161440D01*
X166794123Y-106114463D01*
X167006927Y-105974673D01*
X167138333Y-105780000D01*
X167364671Y-105780000D01*
X167410214Y-105825622D01*
X167806832Y-105990313D01*
X168236284Y-105990687D01*
X168633189Y-105826689D01*
X168937122Y-105523286D01*
X169101813Y-105126668D01*
X169102187Y-104697216D01*
X168938189Y-104300311D01*
X168634786Y-103996378D01*
X168332317Y-103870781D01*
X168332315Y-103870780D01*
X168264307Y-103825338D01*
X168199799Y-103812507D01*
X167875500Y-103748000D01*
X167136778Y-103748000D01*
X167012673Y-103559073D01*
X166948362Y-103515662D01*
X167090327Y-103373698D01*
X167187000Y-103140309D01*
X167187000Y-102549750D01*
X167187000Y-101978250D01*
X167187000Y-101387691D01*
X167090327Y-101154302D01*
X166911699Y-100975673D01*
X166678310Y-100879000D01*
X166425691Y-100879000D01*
X166212750Y-100879000D01*
X166054000Y-101037750D01*
X166054000Y-102137000D01*
X167028250Y-102137000D01*
X167187000Y-101978250D01*
X167187000Y-102549750D01*
X167028250Y-102391000D01*
X166054000Y-102391000D01*
X166054000Y-102411000D01*
X165800000Y-102411000D01*
X165800000Y-102391000D01*
X165800000Y-102137000D01*
X165800000Y-101037750D01*
X165641250Y-100879000D01*
X165428309Y-100879000D01*
X165175690Y-100879000D01*
X164942301Y-100975673D01*
X164763673Y-101154302D01*
X164667000Y-101387691D01*
X164667000Y-101978250D01*
X164825750Y-102137000D01*
X165800000Y-102137000D01*
X165800000Y-102391000D01*
X164825750Y-102391000D01*
X164667000Y-102549750D01*
X164667000Y-103140309D01*
X164763673Y-103373698D01*
X164905150Y-103515176D01*
X164847073Y-103553327D01*
X164704623Y-103764360D01*
X164669700Y-103938500D01*
X164423005Y-103938500D01*
X164423000Y-103938499D01*
X164107095Y-104001337D01*
X163839283Y-104180283D01*
X163839280Y-104180286D01*
X162341066Y-105678500D01*
X161649791Y-105678500D01*
X161617463Y-105511877D01*
X161477673Y-105299073D01*
X161266640Y-105156623D01*
X161017000Y-105106560D01*
X160548874Y-105106560D01*
X165379934Y-100275500D01*
X168082117Y-100275500D01*
X168238585Y-100509670D01*
X168724766Y-100834526D01*
X169298255Y-100948600D01*
X169667745Y-100948600D01*
X170241234Y-100834526D01*
X170727415Y-100509670D01*
X171052271Y-100023489D01*
X171166345Y-99450000D01*
X171052271Y-98876511D01*
X170727415Y-98390330D01*
X170412634Y-98180000D01*
X170727415Y-97969670D01*
X171052271Y-97483489D01*
X171166345Y-96910000D01*
X171052271Y-96336511D01*
X170727415Y-95850330D01*
X170412634Y-95640000D01*
X170727415Y-95429670D01*
X171052271Y-94943489D01*
X171166345Y-94370000D01*
X171052271Y-93796511D01*
X170727415Y-93310330D01*
X170711632Y-93299784D01*
X170741123Y-93294063D01*
X170953927Y-93154273D01*
X171096377Y-92943240D01*
X171146440Y-92693600D01*
X171146440Y-90966400D01*
X171099463Y-90724277D01*
X170959673Y-90511473D01*
X170748640Y-90369023D01*
X170499000Y-90318960D01*
X168467000Y-90318960D01*
X168224877Y-90365937D01*
X168012073Y-90505727D01*
X167869623Y-90716760D01*
X167819560Y-90966400D01*
X167819560Y-92453006D01*
X166625500Y-93647066D01*
X166625500Y-82138934D01*
X171463717Y-77300717D01*
X171642663Y-77032906D01*
X171642663Y-77032905D01*
X171705500Y-76717000D01*
X171705501Y-76717000D01*
X171705500Y-76716994D01*
X171705500Y-72529882D01*
X171939670Y-72373415D01*
X172264526Y-71887234D01*
X172378600Y-71313745D01*
X172378600Y-70944255D01*
X172264526Y-70370766D01*
X171939670Y-69884585D01*
X171453489Y-69559729D01*
X170880000Y-69445655D01*
X170306511Y-69559729D01*
X169820330Y-69884585D01*
X169610000Y-70199365D01*
X169399670Y-69884585D01*
X168913489Y-69559729D01*
X168340000Y-69445655D01*
X167766511Y-69559729D01*
X167280330Y-69884585D01*
X167265500Y-69906779D01*
X167201927Y-69753301D01*
X167023298Y-69574673D01*
X166789909Y-69478000D01*
X166085750Y-69478000D01*
X165927000Y-69636750D01*
X165927000Y-71002000D01*
X165947000Y-71002000D01*
X165947000Y-71256000D01*
X165927000Y-71256000D01*
X165927000Y-72621250D01*
X166085750Y-72780000D01*
X166789909Y-72780000D01*
X167023298Y-72683327D01*
X167201927Y-72504699D01*
X167265500Y-72351220D01*
X167280330Y-72373415D01*
X167514500Y-72529882D01*
X167514500Y-77772066D01*
X165673000Y-79613566D01*
X165673000Y-72621250D01*
X165673000Y-71256000D01*
X165673000Y-71002000D01*
X165673000Y-69636750D01*
X165514250Y-69478000D01*
X164810091Y-69478000D01*
X164576702Y-69574673D01*
X164398073Y-69753301D01*
X164301400Y-69986690D01*
X164301400Y-70239309D01*
X164301400Y-70843250D01*
X164460150Y-71002000D01*
X165673000Y-71002000D01*
X165673000Y-71256000D01*
X164460150Y-71256000D01*
X164301400Y-71414750D01*
X164301400Y-72018691D01*
X164301400Y-72271310D01*
X164398073Y-72504699D01*
X164576702Y-72683327D01*
X164810091Y-72780000D01*
X165514250Y-72780000D01*
X165673000Y-72621250D01*
X165673000Y-79613566D01*
X164454283Y-80832283D01*
X164275337Y-81100094D01*
X164212500Y-81416000D01*
X164212500Y-94028066D01*
X156695440Y-101545126D01*
X156695440Y-100632000D01*
X156648463Y-100389877D01*
X156508673Y-100177073D01*
X156297640Y-100034623D01*
X156048000Y-99984560D01*
X154548000Y-99984560D01*
X154382340Y-100016701D01*
X154382340Y-96874410D01*
X154382340Y-96621791D01*
X154382340Y-96233750D01*
X154382340Y-95662250D01*
X154382340Y-95274209D01*
X154382340Y-95021590D01*
X154285667Y-94788201D01*
X154107038Y-94609573D01*
X153873649Y-94512900D01*
X152732610Y-94512900D01*
X152573860Y-94671650D01*
X152573860Y-95821000D01*
X154223590Y-95821000D01*
X154382340Y-95662250D01*
X154382340Y-96233750D01*
X154223590Y-96075000D01*
X152573860Y-96075000D01*
X152573860Y-97224350D01*
X152732610Y-97383100D01*
X153873649Y-97383100D01*
X154107038Y-97286427D01*
X154285667Y-97107799D01*
X154382340Y-96874410D01*
X154382340Y-100016701D01*
X154305877Y-100031537D01*
X154093073Y-100171327D01*
X153950623Y-100382360D01*
X153944520Y-100412791D01*
X153886327Y-100272301D01*
X153707698Y-100093673D01*
X153474309Y-99997000D01*
X152883750Y-99997000D01*
X152725000Y-100155750D01*
X152725000Y-101155000D01*
X152745000Y-101155000D01*
X152745000Y-101409000D01*
X152725000Y-101409000D01*
X152725000Y-102408250D01*
X152883750Y-102567000D01*
X153474309Y-102567000D01*
X153516500Y-102549523D01*
X153516500Y-104550603D01*
X153504663Y-104491095D01*
X153504663Y-104491094D01*
X153432986Y-104383824D01*
X153325717Y-104223283D01*
X153325713Y-104223280D01*
X151632481Y-102530048D01*
X151721691Y-102567000D01*
X152312250Y-102567000D01*
X152471000Y-102408250D01*
X152471000Y-101409000D01*
X152471000Y-101155000D01*
X152471000Y-100155750D01*
X152312250Y-99997000D01*
X151721691Y-99997000D01*
X151488302Y-100093673D01*
X151309673Y-100272301D01*
X151213000Y-100505690D01*
X151213000Y-100758309D01*
X151213000Y-100996250D01*
X151371750Y-101155000D01*
X152471000Y-101155000D01*
X152471000Y-101409000D01*
X151371750Y-101409000D01*
X151213000Y-101567750D01*
X151213000Y-101805691D01*
X151213000Y-102058310D01*
X151249950Y-102147517D01*
X149670640Y-100568206D01*
X149670640Y-97395540D01*
X150145620Y-97395540D01*
X150387743Y-97348563D01*
X150600547Y-97208773D01*
X150644263Y-97144009D01*
X150786682Y-97286427D01*
X151020071Y-97383100D01*
X152161110Y-97383100D01*
X152319860Y-97224350D01*
X152319860Y-96075000D01*
X152299860Y-96075000D01*
X152299860Y-95821000D01*
X152319860Y-95821000D01*
X152319860Y-94671650D01*
X152161110Y-94512900D01*
X151020071Y-94512900D01*
X150786682Y-94609573D01*
X150644745Y-94751509D01*
X150606293Y-94692973D01*
X150395260Y-94550523D01*
X150145620Y-94500460D01*
X150115140Y-94500460D01*
X150115140Y-92785440D01*
X150900000Y-92785440D01*
X151142123Y-92738463D01*
X151354927Y-92598673D01*
X151497377Y-92387640D01*
X151547440Y-92138000D01*
X151547440Y-88582000D01*
X151500463Y-88339877D01*
X151409235Y-88201000D01*
X153439292Y-88201000D01*
X153350623Y-88332360D01*
X153300560Y-88582000D01*
X153300560Y-92138000D01*
X153347537Y-92380123D01*
X153487327Y-92592927D01*
X153698360Y-92735377D01*
X153948000Y-92785440D01*
X155980000Y-92785440D01*
X156222123Y-92738463D01*
X156434927Y-92598673D01*
X156577377Y-92387640D01*
X156627440Y-92138000D01*
X156627440Y-90365612D01*
X158910026Y-88083026D01*
X159185327Y-87671008D01*
X159282000Y-87185000D01*
X159282001Y-87185000D01*
X159282000Y-87184994D01*
X159282000Y-76972001D01*
X159409477Y-76783150D01*
X159459540Y-76533510D01*
X159459540Y-73533770D01*
X159447100Y-73469653D01*
X159447100Y-72260539D01*
X159447100Y-70920110D01*
X159447100Y-70348610D01*
X159447100Y-69008181D01*
X159350427Y-68774792D01*
X159171799Y-68596163D01*
X158938410Y-68499490D01*
X158685791Y-68499490D01*
X158297750Y-68499490D01*
X158139000Y-68658240D01*
X158139000Y-70507360D01*
X159288350Y-70507360D01*
X159447100Y-70348610D01*
X159447100Y-70920110D01*
X159288350Y-70761360D01*
X158139000Y-70761360D01*
X158139000Y-72610480D01*
X158297750Y-72769230D01*
X158685791Y-72769230D01*
X158938410Y-72769230D01*
X159171799Y-72672557D01*
X159350427Y-72493928D01*
X159447100Y-72260539D01*
X159447100Y-73469653D01*
X159412563Y-73291647D01*
X159272773Y-73078843D01*
X159061740Y-72936393D01*
X158812100Y-72886330D01*
X157885000Y-72886330D01*
X157885000Y-72610480D01*
X157885000Y-70761360D01*
X157885000Y-70507360D01*
X157885000Y-68658240D01*
X157726250Y-68499490D01*
X157338209Y-68499490D01*
X157085590Y-68499490D01*
X156852201Y-68596163D01*
X156673573Y-68774792D01*
X156576900Y-69008181D01*
X156576900Y-70348610D01*
X156735650Y-70507360D01*
X157885000Y-70507360D01*
X157885000Y-70761360D01*
X156735650Y-70761360D01*
X156576900Y-70920110D01*
X156576900Y-72260539D01*
X156673573Y-72493928D01*
X156852201Y-72672557D01*
X157085590Y-72769230D01*
X157338209Y-72769230D01*
X157726250Y-72769230D01*
X157885000Y-72610480D01*
X157885000Y-72886330D01*
X157211900Y-72886330D01*
X156969777Y-72933307D01*
X156756973Y-73073097D01*
X156614523Y-73284130D01*
X156564460Y-73533770D01*
X156564460Y-73763640D01*
X150328500Y-73763640D01*
X150328500Y-71563310D01*
X150328500Y-71310691D01*
X150328500Y-70579750D01*
X150328500Y-70008250D01*
X150328500Y-69277309D01*
X150328500Y-69024690D01*
X150231827Y-68791301D01*
X150053198Y-68612673D01*
X149819809Y-68516000D01*
X149407750Y-68516000D01*
X149249000Y-68674750D01*
X149249000Y-70167000D01*
X150169750Y-70167000D01*
X150328500Y-70008250D01*
X150328500Y-70579750D01*
X150169750Y-70421000D01*
X149249000Y-70421000D01*
X149249000Y-71913250D01*
X149407750Y-72072000D01*
X149819809Y-72072000D01*
X150053198Y-71975327D01*
X150231827Y-71796699D01*
X150328500Y-71563310D01*
X150328500Y-73763640D01*
X148995000Y-73763640D01*
X148995000Y-71913250D01*
X148995000Y-70421000D01*
X148995000Y-70167000D01*
X148995000Y-68674750D01*
X148836250Y-68516000D01*
X148424191Y-68516000D01*
X148190802Y-68612673D01*
X148012173Y-68791301D01*
X147915500Y-69024690D01*
X147915500Y-69277309D01*
X147915500Y-70008250D01*
X148074250Y-70167000D01*
X148995000Y-70167000D01*
X148995000Y-70421000D01*
X148074250Y-70421000D01*
X147915500Y-70579750D01*
X147915500Y-71310691D01*
X147915500Y-71563310D01*
X148012173Y-71796699D01*
X148190802Y-71975327D01*
X148424191Y-72072000D01*
X148836250Y-72072000D01*
X148995000Y-71913250D01*
X148995000Y-73763640D01*
X148926691Y-73763640D01*
X147852000Y-72688948D01*
X147852000Y-70294000D01*
X147852000Y-68534052D01*
X148496026Y-67890026D01*
X148771327Y-67478008D01*
X148868000Y-66992000D01*
X148868001Y-66992000D01*
X148868000Y-66991994D01*
X148868000Y-66136975D01*
X148893877Y-66098640D01*
X148943940Y-65849000D01*
X148943940Y-62039000D01*
X148896963Y-61796877D01*
X148757173Y-61584073D01*
X148546140Y-61441623D01*
X148296500Y-61391560D01*
X146899500Y-61391560D01*
X146657377Y-61438537D01*
X146444573Y-61578327D01*
X146302123Y-61789360D01*
X146252060Y-62039000D01*
X146252060Y-65849000D01*
X146299037Y-66091123D01*
X146328000Y-66135213D01*
X146328000Y-66465948D01*
X145683974Y-67109974D01*
X145408673Y-67521992D01*
X145311999Y-68008000D01*
X145312000Y-68008005D01*
X145312000Y-70294000D01*
X145260940Y-70037304D01*
X145260940Y-69151000D01*
X145213963Y-68908877D01*
X145074173Y-68696073D01*
X144863140Y-68553623D01*
X144613500Y-68503560D01*
X143470500Y-68503560D01*
X143228377Y-68550537D01*
X143015573Y-68690327D01*
X142873123Y-68901360D01*
X142848528Y-69024000D01*
X140359005Y-69024000D01*
X140359000Y-69023999D01*
X139872992Y-69120673D01*
X139851000Y-69135367D01*
X139851000Y-68915051D01*
X142279281Y-66486770D01*
X142327500Y-66496440D01*
X143724500Y-66496440D01*
X143966623Y-66449463D01*
X144179427Y-66309673D01*
X144321877Y-66098640D01*
X144371940Y-65849000D01*
X144371940Y-62039000D01*
X144324963Y-61796877D01*
X144185173Y-61584073D01*
X143974140Y-61441623D01*
X143724500Y-61391560D01*
X142327500Y-61391560D01*
X142085377Y-61438537D01*
X141872573Y-61578327D01*
X141730123Y-61789360D01*
X141680060Y-62039000D01*
X141680060Y-63493888D01*
X137682974Y-67490974D01*
X137407673Y-67902992D01*
X137310999Y-68389000D01*
X137311000Y-68389005D01*
X137311000Y-72071994D01*
X137310999Y-72072000D01*
X137311000Y-72072005D01*
X137311000Y-85279994D01*
X137310999Y-85280000D01*
X137407673Y-85766008D01*
X137682974Y-86178026D01*
X141940904Y-90435955D01*
X141686745Y-90385400D01*
X141317255Y-90385400D01*
X140743766Y-90499474D01*
X140572365Y-90614000D01*
X138581005Y-90614000D01*
X138581000Y-90613999D01*
X138094992Y-90710673D01*
X137682974Y-90985974D01*
X137682971Y-90985977D01*
X135133948Y-93535000D01*
X134761716Y-93535000D01*
X135049433Y-93342754D01*
X135407325Y-92807131D01*
X135533000Y-92175321D01*
X135533000Y-92029051D01*
X135709662Y-91852388D01*
X135709665Y-91852386D01*
X135709666Y-91852386D01*
X135984967Y-91440368D01*
X136081640Y-90954360D01*
X136081640Y-84441540D01*
X136311510Y-84441540D01*
X136553633Y-84394563D01*
X136766437Y-84254773D01*
X136908887Y-84043740D01*
X136958950Y-83794100D01*
X136958950Y-82193900D01*
X136911973Y-81951777D01*
X136772183Y-81738973D01*
X136561150Y-81596523D01*
X136311510Y-81546460D01*
X136081640Y-81546460D01*
X136081640Y-80240645D01*
X136081640Y-80240640D01*
X136081641Y-80240640D01*
X135984967Y-79754632D01*
X135709666Y-79342615D01*
X135709666Y-79342614D01*
X135709662Y-79342611D01*
X134653026Y-78285974D01*
X134241008Y-78010673D01*
X133755000Y-77913999D01*
X133754994Y-77914000D01*
X125766248Y-77914000D01*
X125594848Y-77799474D01*
X125021359Y-77685400D01*
X124962641Y-77685400D01*
X124389152Y-77799474D01*
X124217751Y-77914000D01*
X123808150Y-77914000D01*
X123776273Y-77865473D01*
X123565240Y-77723023D01*
X123315600Y-77672960D01*
X121588400Y-77672960D01*
X121346277Y-77719937D01*
X121133473Y-77859727D01*
X120991023Y-78070760D01*
X120940960Y-78320400D01*
X120940960Y-80047600D01*
X120987937Y-80289723D01*
X121127727Y-80502527D01*
X121338760Y-80644977D01*
X121430135Y-80663301D01*
X121169312Y-80949053D01*
X120997042Y-81364974D01*
X121118183Y-81597000D01*
X122325000Y-81597000D01*
X122325000Y-81577000D01*
X122579000Y-81577000D01*
X122579000Y-81597000D01*
X123658183Y-81597000D01*
X123785817Y-81597000D01*
X124865000Y-81597000D01*
X124865000Y-81577000D01*
X125119000Y-81577000D01*
X125119000Y-81597000D01*
X126325817Y-81597000D01*
X126446958Y-81364974D01*
X126274688Y-80949053D01*
X125880490Y-80517179D01*
X125757771Y-80459663D01*
X125766248Y-80454000D01*
X133228948Y-80454000D01*
X133541640Y-80766691D01*
X133541640Y-81546460D01*
X133311770Y-81546460D01*
X133069647Y-81593437D01*
X132856843Y-81733227D01*
X132714393Y-81944260D01*
X132664330Y-82193900D01*
X132664330Y-83794100D01*
X132711307Y-84036223D01*
X132851097Y-84249027D01*
X133062130Y-84391477D01*
X133311770Y-84441540D01*
X133541640Y-84441540D01*
X133541640Y-90009380D01*
X133250190Y-90067354D01*
X132714567Y-90425246D01*
X132597946Y-90599781D01*
X132547230Y-90535213D01*
X132547230Y-83920410D01*
X132547230Y-83667791D01*
X132547230Y-83279750D01*
X132547230Y-82708250D01*
X132547230Y-82320209D01*
X132547230Y-82067590D01*
X132450557Y-81834201D01*
X132271928Y-81655573D01*
X132038539Y-81558900D01*
X130698110Y-81558900D01*
X130539360Y-81717650D01*
X130539360Y-82867000D01*
X132388480Y-82867000D01*
X132547230Y-82708250D01*
X132547230Y-83279750D01*
X132388480Y-83121000D01*
X130539360Y-83121000D01*
X130539360Y-84270350D01*
X130698110Y-84429100D01*
X132038539Y-84429100D01*
X132271928Y-84332427D01*
X132450557Y-84153799D01*
X132547230Y-83920410D01*
X132547230Y-90535213D01*
X132419630Y-90372764D01*
X131856477Y-90056074D01*
X131724944Y-90024025D01*
X131469000Y-90143164D01*
X131469000Y-91757000D01*
X131489000Y-91757000D01*
X131489000Y-92011000D01*
X131469000Y-92011000D01*
X131469000Y-92031000D01*
X131215000Y-92031000D01*
X131215000Y-92011000D01*
X131195000Y-92011000D01*
X131195000Y-91757000D01*
X131215000Y-91757000D01*
X131215000Y-90143164D01*
X130959056Y-90024025D01*
X130827523Y-90056074D01*
X130285360Y-90360960D01*
X130285360Y-84270350D01*
X130285360Y-83121000D01*
X130285360Y-82867000D01*
X130285360Y-81717650D01*
X130126610Y-81558900D01*
X128786181Y-81558900D01*
X128552792Y-81655573D01*
X128374163Y-81834201D01*
X128277490Y-82067590D01*
X128277490Y-82320209D01*
X128277490Y-82708250D01*
X128436240Y-82867000D01*
X130285360Y-82867000D01*
X130285360Y-83121000D01*
X128436240Y-83121000D01*
X128277490Y-83279750D01*
X128277490Y-83667791D01*
X128277490Y-83920410D01*
X128374163Y-84153799D01*
X128552792Y-84332427D01*
X128786181Y-84429100D01*
X130126610Y-84429100D01*
X130285360Y-84270350D01*
X130285360Y-90360960D01*
X130264370Y-90372764D01*
X130086053Y-90599781D01*
X129969433Y-90425246D01*
X129433810Y-90067354D01*
X128802000Y-89941679D01*
X128170190Y-90067354D01*
X127634567Y-90425246D01*
X127276675Y-90960869D01*
X127151000Y-91592679D01*
X127151000Y-91738948D01*
X127005948Y-91884000D01*
X126446958Y-91884000D01*
X126446958Y-82083026D01*
X126325817Y-81851000D01*
X125119000Y-81851000D01*
X125119000Y-83058469D01*
X125351027Y-83178968D01*
X125880490Y-82930821D01*
X126274688Y-82498947D01*
X126446958Y-82083026D01*
X126446958Y-91884000D01*
X125320001Y-91884000D01*
X125131150Y-91756523D01*
X124881510Y-91706460D01*
X124865000Y-91706460D01*
X124865000Y-83058469D01*
X124865000Y-81851000D01*
X123785817Y-81851000D01*
X123658183Y-81851000D01*
X122579000Y-81851000D01*
X122579000Y-83058469D01*
X122811027Y-83178968D01*
X123340490Y-82930821D01*
X123722000Y-82512847D01*
X124103510Y-82930821D01*
X124632973Y-83178968D01*
X124865000Y-83058469D01*
X124865000Y-91706460D01*
X122325000Y-91706460D01*
X122325000Y-83058469D01*
X122325000Y-81851000D01*
X121118183Y-81851000D01*
X120997042Y-82083026D01*
X121169312Y-82498947D01*
X121563510Y-82930821D01*
X122092973Y-83178968D01*
X122325000Y-83058469D01*
X122325000Y-91706460D01*
X121881770Y-91706460D01*
X121639647Y-91753437D01*
X121426843Y-91893227D01*
X121284393Y-92104260D01*
X121234330Y-92353900D01*
X121234330Y-93954100D01*
X121281307Y-94196223D01*
X121421097Y-94409027D01*
X121632130Y-94551477D01*
X121881770Y-94601540D01*
X122365640Y-94601540D01*
X122365640Y-95613519D01*
X121713580Y-96265580D01*
X121493338Y-96595193D01*
X121480507Y-96659700D01*
X121416000Y-96984000D01*
X121416000Y-98294221D01*
X121227073Y-98418327D01*
X121183662Y-98482637D01*
X121117230Y-98416205D01*
X121117230Y-94080410D01*
X121117230Y-93827791D01*
X121117230Y-93439750D01*
X121117230Y-92868250D01*
X121117230Y-92480209D01*
X121117230Y-92227590D01*
X121020557Y-91994201D01*
X120841928Y-91815573D01*
X120608539Y-91718900D01*
X119268110Y-91718900D01*
X119109360Y-91877650D01*
X119109360Y-93027000D01*
X120958480Y-93027000D01*
X121117230Y-92868250D01*
X121117230Y-93439750D01*
X120958480Y-93281000D01*
X119109360Y-93281000D01*
X119109360Y-94430350D01*
X119268110Y-94589100D01*
X120608539Y-94589100D01*
X120841928Y-94492427D01*
X121020557Y-94313799D01*
X121117230Y-94080410D01*
X121117230Y-98416205D01*
X121041698Y-98340673D01*
X120808309Y-98244000D01*
X120217750Y-98244000D01*
X120059000Y-98402750D01*
X120059000Y-99377000D01*
X120079000Y-99377000D01*
X120079000Y-99631000D01*
X120059000Y-99631000D01*
X120059000Y-100605250D01*
X120217750Y-100764000D01*
X120808309Y-100764000D01*
X121041698Y-100667327D01*
X121183176Y-100525849D01*
X121221327Y-100583927D01*
X121432360Y-100726377D01*
X121682000Y-100776440D01*
X123182000Y-100776440D01*
X123424123Y-100729463D01*
X123636927Y-100589673D01*
X123779377Y-100378640D01*
X123829440Y-100129000D01*
X123829440Y-98879000D01*
X123782463Y-98636877D01*
X123642673Y-98424073D01*
X123448000Y-98292666D01*
X123448000Y-97404840D01*
X124100060Y-96752780D01*
X124100061Y-96752780D01*
X124320302Y-96423167D01*
X124320302Y-96423166D01*
X124333132Y-96358659D01*
X124397639Y-96034360D01*
X124397640Y-96034360D01*
X124397640Y-94601540D01*
X124881510Y-94601540D01*
X125123633Y-94554563D01*
X125322390Y-94424000D01*
X127531994Y-94424000D01*
X127531999Y-94424000D01*
X127628673Y-94910008D01*
X127903974Y-95322026D01*
X128284971Y-95703022D01*
X128284974Y-95703026D01*
X128696992Y-95978327D01*
X129183000Y-96075000D01*
X135659994Y-96075000D01*
X135660000Y-96075001D01*
X135660000Y-96075000D01*
X136146008Y-95978327D01*
X136558026Y-95703026D01*
X139107051Y-93154000D01*
X140572365Y-93154000D01*
X140257585Y-93364330D01*
X139932729Y-93850511D01*
X139818655Y-94424000D01*
X139932729Y-94997489D01*
X140257585Y-95483670D01*
X140273367Y-95494215D01*
X140243877Y-95499937D01*
X140031073Y-95639727D01*
X139888623Y-95850760D01*
X139838560Y-96100400D01*
X139838560Y-97827600D01*
X139885537Y-98069723D01*
X140025327Y-98282527D01*
X140232000Y-98422033D01*
X140232000Y-101758948D01*
X137342974Y-104647974D01*
X137067673Y-105059992D01*
X136970999Y-105546000D01*
X137067673Y-106032008D01*
X137342974Y-106444026D01*
X137754992Y-106719327D01*
X138241000Y-106816001D01*
X138727008Y-106719327D01*
X139139026Y-106444026D01*
X142400022Y-103183028D01*
X142400025Y-103183026D01*
X142400026Y-103183026D01*
X142675327Y-102771008D01*
X142772000Y-102285000D01*
X142772000Y-98420261D01*
X142972927Y-98288273D01*
X143115377Y-98077240D01*
X143165440Y-97827600D01*
X143165440Y-96100400D01*
X143118463Y-95858277D01*
X143010550Y-95694000D01*
X143152994Y-95694000D01*
X143153000Y-95694001D01*
X143153000Y-95694000D01*
X143639008Y-95597327D01*
X144051026Y-95322026D01*
X145067026Y-94306026D01*
X145342327Y-93894008D01*
X145439000Y-93408000D01*
X145439001Y-93408000D01*
X145439000Y-93407994D01*
X145439000Y-90868000D01*
X145342327Y-90381992D01*
X145067026Y-89969974D01*
X145067022Y-89969971D01*
X139851000Y-84753948D01*
X139851000Y-72598051D01*
X140885051Y-71564000D01*
X142847700Y-71564000D01*
X142870037Y-71679123D01*
X143009827Y-71891927D01*
X143220860Y-72034377D01*
X143470500Y-72084440D01*
X144613500Y-72084440D01*
X144855623Y-72037463D01*
X145068427Y-71897673D01*
X145210877Y-71686640D01*
X145260940Y-71437000D01*
X145260940Y-70550695D01*
X145312000Y-70294000D01*
X145312000Y-73214994D01*
X145311999Y-73215000D01*
X145408673Y-73701008D01*
X145683974Y-74113026D01*
X147502611Y-75931662D01*
X147502614Y-75931666D01*
X147914632Y-76206967D01*
X148400640Y-76303640D01*
X156564460Y-76303640D01*
X156564460Y-76533510D01*
X156611437Y-76775633D01*
X156742000Y-76974390D01*
X156742000Y-86169000D01*
X152629480Y-86169000D01*
X152629480Y-84587850D01*
X152629480Y-77590150D01*
X152582503Y-77348027D01*
X152442713Y-77135223D01*
X152231680Y-76992773D01*
X151982040Y-76942710D01*
X141181960Y-76942710D01*
X140939837Y-76989687D01*
X140727033Y-77129477D01*
X140584583Y-77340510D01*
X140534520Y-77590150D01*
X140534520Y-84587850D01*
X140581497Y-84829973D01*
X140721287Y-85042777D01*
X140932320Y-85185227D01*
X141181960Y-85235290D01*
X151982040Y-85235290D01*
X152224163Y-85188313D01*
X152436967Y-85048523D01*
X152579417Y-84837490D01*
X152629480Y-84587850D01*
X152629480Y-86169000D01*
X151678456Y-86169000D01*
X151666189Y-86139311D01*
X151362786Y-85835378D01*
X150966168Y-85670687D01*
X150536716Y-85670313D01*
X150139811Y-85834311D01*
X149835878Y-86137714D01*
X149671187Y-86534332D01*
X149670813Y-86963784D01*
X149834811Y-87360689D01*
X150138214Y-87664622D01*
X150292238Y-87728578D01*
X150467080Y-87903421D01*
X150513682Y-87934560D01*
X148868000Y-87934560D01*
X148625877Y-87981537D01*
X148413073Y-88121327D01*
X148270623Y-88332360D01*
X148220560Y-88582000D01*
X148220560Y-90227388D01*
X147947114Y-90500834D01*
X147671813Y-90912852D01*
X147575139Y-91398860D01*
X147575140Y-91398865D01*
X147575140Y-94500460D01*
X147544660Y-94500460D01*
X147302537Y-94547437D01*
X147089733Y-94687227D01*
X146947283Y-94898260D01*
X146897220Y-95147900D01*
X146897220Y-96748100D01*
X146944197Y-96990223D01*
X147083987Y-97203027D01*
X147295020Y-97345477D01*
X147544660Y-97395540D01*
X148019640Y-97395540D01*
X148019640Y-100910140D01*
X148082477Y-101226046D01*
X148261423Y-101493857D01*
X151916500Y-105148933D01*
X151916500Y-105434913D01*
X151869623Y-105504360D01*
X151819560Y-105754000D01*
X151819560Y-106689000D01*
X151195000Y-106689000D01*
X151195000Y-107281560D01*
X150292000Y-107281560D01*
X150049877Y-107328537D01*
X149973817Y-107378500D01*
X147407500Y-107378500D01*
X147407500Y-107365040D01*
X147699600Y-107365040D01*
X147941723Y-107318063D01*
X148154527Y-107178273D01*
X148296977Y-106967240D01*
X148347040Y-106717600D01*
X148347040Y-104482400D01*
X148300063Y-104240277D01*
X148160273Y-104027473D01*
X147949240Y-103885023D01*
X147699600Y-103834960D01*
X145464400Y-103834960D01*
X145222277Y-103881937D01*
X145009473Y-104021727D01*
X144867023Y-104232760D01*
X144816960Y-104482400D01*
X144816960Y-106717600D01*
X144863937Y-106959723D01*
X145003727Y-107172527D01*
X145214760Y-107314977D01*
X145464400Y-107365040D01*
X145756500Y-107365040D01*
X145756500Y-107378500D01*
X137155933Y-107378500D01*
X132507717Y-102730283D01*
X132239906Y-102551337D01*
X131924000Y-102488500D01*
X131507100Y-102488500D01*
X131507100Y-101400110D01*
X131507100Y-100828610D01*
X131507100Y-99488181D01*
X131410427Y-99254792D01*
X131231799Y-99076163D01*
X130998410Y-98979490D01*
X130745791Y-98979490D01*
X130357750Y-98979490D01*
X130199000Y-99138240D01*
X130199000Y-100987360D01*
X131348350Y-100987360D01*
X131507100Y-100828610D01*
X131507100Y-101400110D01*
X131348350Y-101241360D01*
X130199000Y-101241360D01*
X130199000Y-101261360D01*
X129945000Y-101261360D01*
X129945000Y-101241360D01*
X129945000Y-100987360D01*
X129945000Y-99138240D01*
X129786250Y-98979490D01*
X129398209Y-98979490D01*
X129145590Y-98979490D01*
X128912201Y-99076163D01*
X128733573Y-99254792D01*
X128636900Y-99488181D01*
X128636900Y-100828610D01*
X128795650Y-100987360D01*
X129945000Y-100987360D01*
X129945000Y-101241360D01*
X128795650Y-101241360D01*
X128636900Y-101400110D01*
X128636900Y-102488500D01*
X125165389Y-102488500D01*
X125152463Y-102421877D01*
X125012673Y-102209073D01*
X124801640Y-102066623D01*
X124552000Y-102016560D01*
X123052000Y-102016560D01*
X122809877Y-102063537D01*
X122597073Y-102203327D01*
X122454623Y-102414360D01*
X122452783Y-102423530D01*
X122452463Y-102421877D01*
X122312673Y-102209073D01*
X122101640Y-102066623D01*
X121852000Y-102016560D01*
X120352000Y-102016560D01*
X120109877Y-102063537D01*
X119897073Y-102203327D01*
X119805000Y-102339728D01*
X119805000Y-100605250D01*
X119805000Y-99631000D01*
X119805000Y-99377000D01*
X119805000Y-98402750D01*
X119646250Y-98244000D01*
X119055691Y-98244000D01*
X118855360Y-98326979D01*
X118855360Y-94430350D01*
X118855360Y-93281000D01*
X118855360Y-93027000D01*
X118855360Y-91877650D01*
X118696610Y-91718900D01*
X117356181Y-91718900D01*
X117122792Y-91815573D01*
X116944163Y-91994201D01*
X116847490Y-92227590D01*
X116847490Y-92480209D01*
X116847490Y-92868250D01*
X117006240Y-93027000D01*
X118855360Y-93027000D01*
X118855360Y-93281000D01*
X117006240Y-93281000D01*
X116847490Y-93439750D01*
X116847490Y-93827791D01*
X116847490Y-94080410D01*
X116944163Y-94313799D01*
X117122792Y-94492427D01*
X117356181Y-94589100D01*
X118696610Y-94589100D01*
X118855360Y-94430350D01*
X118855360Y-98326979D01*
X118822302Y-98340673D01*
X118643673Y-98519301D01*
X118547000Y-98752690D01*
X118547000Y-99005309D01*
X118547000Y-99218250D01*
X118705750Y-99377000D01*
X119805000Y-99377000D01*
X119805000Y-99631000D01*
X118705750Y-99631000D01*
X118547000Y-99789750D01*
X118547000Y-100002691D01*
X118547000Y-100255310D01*
X118643673Y-100488699D01*
X118822302Y-100667327D01*
X119055691Y-100764000D01*
X119646250Y-100764000D01*
X119805000Y-100605250D01*
X119805000Y-102339728D01*
X119754623Y-102414360D01*
X119704560Y-102664000D01*
X119704560Y-103571006D01*
X118361283Y-104914283D01*
X118182337Y-105182094D01*
X118119500Y-105498000D01*
X118119500Y-105656371D01*
X117917000Y-105592000D01*
X117642000Y-105592000D01*
X117642000Y-106600000D01*
X117662000Y-106600000D01*
X117662000Y-106854000D01*
X117642000Y-106854000D01*
X117642000Y-107862000D01*
X117917000Y-107862000D01*
X118119500Y-107797628D01*
X118119500Y-110578000D01*
X118182337Y-110893906D01*
X118361283Y-111161717D01*
X118660283Y-111460717D01*
X118905000Y-111624232D01*
X118905000Y-111654002D01*
X119000184Y-111654002D01*
X119030681Y-111660068D01*
X118905000Y-111785750D01*
X118905000Y-111853310D01*
X119001673Y-112086699D01*
X119172089Y-112257114D01*
X119113771Y-112425869D01*
X119262437Y-112600000D01*
X120088000Y-112600000D01*
X120088000Y-112580000D01*
X120342000Y-112580000D01*
X120342000Y-112600000D01*
X121167563Y-112600000D01*
X121316229Y-112425869D01*
X121257910Y-112257114D01*
X121428327Y-112086699D01*
X121525000Y-111853310D01*
X121525000Y-111785750D01*
X121366250Y-111627000D01*
X121208943Y-111627000D01*
X121344927Y-111537673D01*
X121487377Y-111326640D01*
X121492586Y-111300663D01*
X121525000Y-111268250D01*
X121525000Y-111200690D01*
X121516668Y-111180576D01*
X121537440Y-111077000D01*
X121537440Y-111052500D01*
X126403066Y-111052500D01*
X127324560Y-111973993D01*
X127324560Y-112854000D01*
X127371537Y-113096123D01*
X127511327Y-113308927D01*
X127722360Y-113451377D01*
X127972000Y-113501440D01*
X129472000Y-113501440D01*
X129714123Y-113454463D01*
X129926927Y-113314673D01*
X130069377Y-113103640D01*
X130071216Y-113094469D01*
X130071537Y-113096123D01*
X130211327Y-113308927D01*
X130422360Y-113451377D01*
X130672000Y-113501440D01*
X132172000Y-113501440D01*
X132414123Y-113454463D01*
X132626927Y-113314673D01*
X132769377Y-113103640D01*
X132819440Y-112854000D01*
X132819440Y-111967993D01*
X133357933Y-111429500D01*
X135657874Y-111429500D01*
X135621900Y-111516351D01*
X135621900Y-112657390D01*
X135780650Y-112816140D01*
X136930000Y-112816140D01*
X136930000Y-112796140D01*
X137184000Y-112796140D01*
X137184000Y-112816140D01*
X138333350Y-112816140D01*
X138492100Y-112657390D01*
X138492100Y-111516351D01*
X138456125Y-111429500D01*
X143364709Y-111429500D01*
X143146382Y-111575382D01*
X139065904Y-115655860D01*
X138504540Y-115655860D01*
X138504540Y-115244380D01*
X138457563Y-115002257D01*
X138317773Y-114789453D01*
X138253009Y-114745736D01*
X138395427Y-114603318D01*
X138492100Y-114369929D01*
X138492100Y-113228890D01*
X138333350Y-113070140D01*
X137184000Y-113070140D01*
X137184000Y-113090140D01*
X136930000Y-113090140D01*
X136930000Y-113070140D01*
X135780650Y-113070140D01*
X135621900Y-113228890D01*
X135621900Y-114369929D01*
X135718573Y-114603318D01*
X135860509Y-114745254D01*
X135801973Y-114783707D01*
X135659523Y-114994740D01*
X135609460Y-115244380D01*
X135609460Y-117845340D01*
X135656437Y-118087463D01*
X135796227Y-118300267D01*
X136007260Y-118442717D01*
X136256900Y-118492780D01*
X137857100Y-118492780D01*
X138099223Y-118445803D01*
X138312027Y-118306013D01*
X138454477Y-118094980D01*
X138504540Y-117845340D01*
X138504540Y-117433860D01*
X139282706Y-117433860D01*
X138042066Y-118674500D01*
X131321040Y-118674500D01*
X131321040Y-118484000D01*
X131274063Y-118241877D01*
X131134273Y-118029073D01*
X130923240Y-117886623D01*
X130673600Y-117836560D01*
X128946400Y-117836560D01*
X128704277Y-117883537D01*
X128491473Y-118023327D01*
X128349023Y-118234360D01*
X128341281Y-118272962D01*
X128329670Y-118255585D01*
X127843489Y-117930729D01*
X127270000Y-117816655D01*
X126696511Y-117930729D01*
X126210330Y-118255585D01*
X126000000Y-118570365D01*
X125789670Y-118255585D01*
X125303489Y-117930729D01*
X124730000Y-117816655D01*
X124156511Y-117930729D01*
X123670330Y-118255585D01*
X123460000Y-118570365D01*
X123249670Y-118255585D01*
X122763489Y-117930729D01*
X122190000Y-117816655D01*
X121616511Y-117930729D01*
X121316229Y-118131371D01*
X121316229Y-113028131D01*
X121167563Y-112854000D01*
X120342000Y-112854000D01*
X120342000Y-113819734D01*
X120512938Y-113946268D01*
X120886821Y-113762552D01*
X121174568Y-113438049D01*
X121316229Y-113028131D01*
X121316229Y-118131371D01*
X121130330Y-118255585D01*
X120805474Y-118741766D01*
X120691400Y-119315255D01*
X120691400Y-119684745D01*
X120805474Y-120258234D01*
X121130330Y-120744415D01*
X121364500Y-120900882D01*
X121364500Y-121880000D01*
X121427337Y-122195906D01*
X121606283Y-122463717D01*
X123052283Y-123909717D01*
X123320095Y-124088663D01*
X123636000Y-124151501D01*
X123636000Y-124151500D01*
X123636005Y-124151500D01*
X138368000Y-124151500D01*
X138683905Y-124088663D01*
X138683906Y-124088663D01*
X138951717Y-123909717D01*
X145831934Y-117029500D01*
X149972913Y-117029500D01*
X150042360Y-117076377D01*
X150292000Y-117126440D01*
X151195000Y-117126440D01*
X151195000Y-117484000D01*
X151195000Y-117867919D01*
X151819560Y-117853724D01*
X151819560Y-118654000D01*
X151843853Y-118779212D01*
X149646565Y-120976500D01*
X143702000Y-120976500D01*
X143386094Y-121039337D01*
X143118283Y-121218283D01*
X138355783Y-125980783D01*
X138176837Y-126248594D01*
X138114000Y-126564500D01*
X138114000Y-127834500D01*
X120210882Y-127834500D01*
X120054415Y-127600330D01*
X120032220Y-127585500D01*
X120185699Y-127521927D01*
X120364327Y-127343298D01*
X120461000Y-127109909D01*
X120461000Y-126405750D01*
X120461000Y-125834250D01*
X120461000Y-125130091D01*
X120364327Y-124896702D01*
X120185699Y-124718073D01*
X120088000Y-124677604D01*
X120088000Y-113819734D01*
X120088000Y-112854000D01*
X119262437Y-112854000D01*
X119113771Y-113028131D01*
X119255432Y-113438049D01*
X119543179Y-113762552D01*
X119917062Y-113946268D01*
X120088000Y-113819734D01*
X120088000Y-124677604D01*
X119952310Y-124621400D01*
X119699691Y-124621400D01*
X119095750Y-124621400D01*
X118937000Y-124780150D01*
X118937000Y-125993000D01*
X120302250Y-125993000D01*
X120461000Y-125834250D01*
X120461000Y-126405750D01*
X120302250Y-126247000D01*
X118937000Y-126247000D01*
X118937000Y-126267000D01*
X118884119Y-126267000D01*
X118884119Y-114028874D01*
X118884119Y-113425126D01*
X118682368Y-113014237D01*
X118341678Y-112726998D01*
X117917000Y-112592000D01*
X117642000Y-112592000D01*
X117642000Y-113600000D01*
X118757954Y-113600000D01*
X118884119Y-113425126D01*
X118884119Y-114028874D01*
X118757954Y-113854000D01*
X117642000Y-113854000D01*
X117642000Y-114862000D01*
X117917000Y-114862000D01*
X118341678Y-114727002D01*
X118682368Y-114439763D01*
X118884119Y-114028874D01*
X118884119Y-126267000D01*
X118683000Y-126267000D01*
X118683000Y-126247000D01*
X118683000Y-125993000D01*
X118683000Y-124780150D01*
X118524250Y-124621400D01*
X117920309Y-124621400D01*
X117667690Y-124621400D01*
X117434301Y-124718073D01*
X117388000Y-124764374D01*
X117388000Y-114862000D01*
X117388000Y-113854000D01*
X117388000Y-113600000D01*
X117388000Y-112592000D01*
X117388000Y-107862000D01*
X117388000Y-106854000D01*
X117388000Y-106600000D01*
X117388000Y-105592000D01*
X117113000Y-105592000D01*
X116688322Y-105726998D01*
X116347632Y-106014237D01*
X116145881Y-106425126D01*
X116272046Y-106600000D01*
X117388000Y-106600000D01*
X117388000Y-106854000D01*
X116272046Y-106854000D01*
X116145881Y-107028874D01*
X116347632Y-107439763D01*
X116688322Y-107727002D01*
X117113000Y-107862000D01*
X117388000Y-107862000D01*
X117388000Y-112592000D01*
X117113000Y-112592000D01*
X116688322Y-112726998D01*
X116347632Y-113014237D01*
X116145881Y-113425126D01*
X116272046Y-113600000D01*
X117388000Y-113600000D01*
X117388000Y-113854000D01*
X116272046Y-113854000D01*
X116145881Y-114028874D01*
X116347632Y-114439763D01*
X116688322Y-114727002D01*
X117113000Y-114862000D01*
X117388000Y-114862000D01*
X117388000Y-124764374D01*
X117255673Y-124896702D01*
X117159000Y-125130091D01*
X117159000Y-125834250D01*
X117317750Y-125993000D01*
X118683000Y-125993000D01*
X118683000Y-126247000D01*
X117317750Y-126247000D01*
X117159000Y-126405750D01*
X117159000Y-127109909D01*
X117255673Y-127343298D01*
X117434301Y-127521927D01*
X117587779Y-127585500D01*
X117565585Y-127600330D01*
X117240729Y-128086511D01*
X117126655Y-128660000D01*
X117240729Y-129233489D01*
X117565585Y-129719670D01*
X117880365Y-129930000D01*
X117565585Y-130140330D01*
X117240729Y-130626511D01*
X117126655Y-131200000D01*
X117240729Y-131773489D01*
X117565585Y-132259670D01*
X118051766Y-132584526D01*
X118625255Y-132698600D01*
X118994745Y-132698600D01*
X119568234Y-132584526D01*
X120054415Y-132259670D01*
X120379271Y-131773489D01*
X120493345Y-131200000D01*
X120379271Y-130626511D01*
X120054415Y-130140330D01*
X119739634Y-129930000D01*
X120054415Y-129719670D01*
X120210882Y-129485500D01*
X138812500Y-129485500D01*
X139128405Y-129422663D01*
X139128406Y-129422663D01*
X139130000Y-129421597D01*
X139130000Y-135874566D01*
X138360066Y-136644500D01*
X123902791Y-136644500D01*
X123870463Y-136477877D01*
X123730673Y-136265073D01*
X123519640Y-136122623D01*
X123270000Y-136072560D01*
X121970000Y-136072560D01*
X121727877Y-136119537D01*
X121515073Y-136259327D01*
X121372623Y-136470360D01*
X121322560Y-136720000D01*
X121322560Y-136724500D01*
X120210882Y-136724500D01*
X120054415Y-136490330D01*
X120032220Y-136475500D01*
X120185699Y-136411927D01*
X120364327Y-136233298D01*
X120461000Y-135999909D01*
X120461000Y-135295750D01*
X120461000Y-134724250D01*
X120461000Y-134020091D01*
X120364327Y-133786702D01*
X120185699Y-133608073D01*
X119952310Y-133511400D01*
X119699691Y-133511400D01*
X119095750Y-133511400D01*
X118937000Y-133670150D01*
X118937000Y-134883000D01*
X120302250Y-134883000D01*
X120461000Y-134724250D01*
X120461000Y-135295750D01*
X120302250Y-135137000D01*
X118937000Y-135137000D01*
X118937000Y-135157000D01*
X118683000Y-135157000D01*
X118683000Y-135137000D01*
X118683000Y-134883000D01*
X118683000Y-133670150D01*
X118524250Y-133511400D01*
X117920309Y-133511400D01*
X117667690Y-133511400D01*
X117434301Y-133608073D01*
X117255673Y-133786702D01*
X117159000Y-134020091D01*
X117159000Y-134724250D01*
X117317750Y-134883000D01*
X118683000Y-134883000D01*
X118683000Y-135137000D01*
X117317750Y-135137000D01*
X117159000Y-135295750D01*
X117159000Y-135999909D01*
X117255673Y-136233298D01*
X117434301Y-136411927D01*
X117587779Y-136475500D01*
X117565585Y-136490330D01*
X117240729Y-136976511D01*
X117126655Y-137550000D01*
X117240729Y-138123489D01*
X117565585Y-138609670D01*
X117880365Y-138820000D01*
X117565585Y-139030330D01*
X117240729Y-139516511D01*
X117126655Y-140090000D01*
X117240729Y-140663489D01*
X117565585Y-141149670D01*
X118051766Y-141474526D01*
X118625255Y-141588600D01*
X118994745Y-141588600D01*
X119568234Y-141474526D01*
X120054415Y-141149670D01*
X120210882Y-140915500D01*
X121322560Y-140915500D01*
X121322560Y-140920000D01*
X121369537Y-141162123D01*
X121509327Y-141374927D01*
X121720360Y-141517377D01*
X121970000Y-141567440D01*
X123270000Y-141567440D01*
X123512123Y-141520463D01*
X123724927Y-141380673D01*
X123867377Y-141169640D01*
X123902299Y-140995500D01*
X139177000Y-140995500D01*
X139492905Y-140932663D01*
X139492906Y-140932663D01*
X139760717Y-140753717D01*
X141428217Y-139086217D01*
X141607163Y-138818406D01*
X141607163Y-138818405D01*
X141670000Y-138502500D01*
X141670000Y-127668434D01*
X143451167Y-125887266D01*
X143484811Y-125968689D01*
X143788214Y-126272622D01*
X144184832Y-126437313D01*
X144614284Y-126437687D01*
X145011189Y-126273689D01*
X145273000Y-126012334D01*
X145273000Y-126142250D01*
X145431750Y-126301000D01*
X146531000Y-126301000D01*
X146531000Y-125326750D01*
X146372250Y-125168000D01*
X145781691Y-125168000D01*
X145548302Y-125264673D01*
X145480022Y-125332951D01*
X145480187Y-125144216D01*
X145480000Y-125143763D01*
X145480000Y-124762840D01*
X145583340Y-124659500D01*
X150877500Y-124659500D01*
X151193405Y-124596663D01*
X151193406Y-124596663D01*
X151461217Y-124417717D01*
X154925717Y-120953217D01*
X155104663Y-120685406D01*
X155104663Y-120685405D01*
X155116500Y-120625897D01*
X155116500Y-124015566D01*
X154030416Y-125101649D01*
X154027887Y-125099116D01*
X153518816Y-124887731D01*
X152967602Y-124887250D01*
X152458163Y-125097746D01*
X152068056Y-125487173D01*
X152020167Y-125602500D01*
X150516538Y-125602500D01*
X150508463Y-125560877D01*
X150368673Y-125348073D01*
X150157640Y-125205623D01*
X149908000Y-125155560D01*
X148408000Y-125155560D01*
X148165877Y-125202537D01*
X147953073Y-125342327D01*
X147909662Y-125406637D01*
X147767698Y-125264673D01*
X147534309Y-125168000D01*
X146943750Y-125168000D01*
X146785000Y-125326750D01*
X146785000Y-126301000D01*
X146805000Y-126301000D01*
X146805000Y-126555000D01*
X146785000Y-126555000D01*
X146785000Y-127529250D01*
X146943750Y-127688000D01*
X147534309Y-127688000D01*
X147767698Y-127591327D01*
X147909176Y-127449849D01*
X147947327Y-127507927D01*
X148158360Y-127650377D01*
X148408000Y-127700440D01*
X149908000Y-127700440D01*
X150150123Y-127653463D01*
X150362927Y-127513673D01*
X150505377Y-127302640D01*
X150515231Y-127253500D01*
X152262946Y-127253500D01*
X152456113Y-127447004D01*
X152965184Y-127658389D01*
X153516398Y-127658870D01*
X154025837Y-127448374D01*
X154415944Y-127058947D01*
X154457551Y-126958744D01*
X154610157Y-126856777D01*
X155916500Y-125550434D01*
X155916500Y-128740066D01*
X154351446Y-130305119D01*
X154027887Y-129980996D01*
X153518816Y-129769611D01*
X152967602Y-129769130D01*
X152458163Y-129979626D01*
X152068056Y-130369053D01*
X151937901Y-130682500D01*
X150516538Y-130682500D01*
X150508463Y-130640877D01*
X150368673Y-130428073D01*
X150157640Y-130285623D01*
X149908000Y-130235560D01*
X148408000Y-130235560D01*
X148165877Y-130282537D01*
X147953073Y-130422327D01*
X147909662Y-130486637D01*
X147767698Y-130344673D01*
X147534309Y-130248000D01*
X146943750Y-130248000D01*
X146785000Y-130406750D01*
X146785000Y-131381000D01*
X146805000Y-131381000D01*
X146805000Y-131635000D01*
X146785000Y-131635000D01*
X146785000Y-132609250D01*
X146943750Y-132768000D01*
X147534309Y-132768000D01*
X147767698Y-132671327D01*
X147909176Y-132529849D01*
X147947327Y-132587927D01*
X148158360Y-132730377D01*
X148408000Y-132780440D01*
X149908000Y-132780440D01*
X150150123Y-132733463D01*
X150362927Y-132593673D01*
X150505377Y-132382640D01*
X150515231Y-132333500D01*
X152467229Y-132333500D01*
X152965184Y-132540269D01*
X153516398Y-132540750D01*
X154025837Y-132330254D01*
X154376261Y-131980440D01*
X154669060Y-131980440D01*
X154984965Y-131917603D01*
X154984966Y-131917603D01*
X155252777Y-131738657D01*
X156716500Y-130274934D01*
X156716500Y-132321566D01*
X151913033Y-137125033D01*
X151913030Y-137125036D01*
X147436283Y-141601783D01*
X147257337Y-141869594D01*
X147194500Y-142185500D01*
X147194500Y-142499117D01*
X146960330Y-142655585D01*
X146635474Y-143141766D01*
X146531000Y-143666992D01*
X146531000Y-132609250D01*
X146531000Y-131635000D01*
X146531000Y-131381000D01*
X146531000Y-130406750D01*
X146531000Y-127529250D01*
X146531000Y-126555000D01*
X145431750Y-126555000D01*
X145273000Y-126713750D01*
X145273000Y-126926691D01*
X145273000Y-127179310D01*
X145369673Y-127412699D01*
X145548302Y-127591327D01*
X145781691Y-127688000D01*
X146372250Y-127688000D01*
X146531000Y-127529250D01*
X146531000Y-130406750D01*
X146372250Y-130248000D01*
X145781691Y-130248000D01*
X145548302Y-130344673D01*
X145369673Y-130523301D01*
X145273000Y-130756690D01*
X145273000Y-131009309D01*
X145273000Y-131222250D01*
X145431750Y-131381000D01*
X146531000Y-131381000D01*
X146531000Y-131635000D01*
X145431750Y-131635000D01*
X145273000Y-131793750D01*
X145273000Y-132006691D01*
X145273000Y-132259310D01*
X145369673Y-132492699D01*
X145548302Y-132671327D01*
X145781691Y-132768000D01*
X146372250Y-132768000D01*
X146531000Y-132609250D01*
X146531000Y-143666992D01*
X146521400Y-143715255D01*
X146521400Y-144084745D01*
X146635474Y-144658234D01*
X146960330Y-145144415D01*
X147446511Y-145469271D01*
X148020000Y-145583345D01*
X148593489Y-145469271D01*
X149079670Y-145144415D01*
X149290000Y-144829634D01*
X149500330Y-145144415D01*
X149986511Y-145469271D01*
X150560000Y-145583345D01*
X151133489Y-145469271D01*
X151619670Y-145144415D01*
X151634499Y-145122220D01*
X151698073Y-145275699D01*
X151876702Y-145454327D01*
X152110091Y-145551000D01*
X152814250Y-145551000D01*
X152973000Y-145392250D01*
X152973000Y-144027000D01*
X152953000Y-144027000D01*
X152953000Y-143773000D01*
X152973000Y-143773000D01*
X152973000Y-142407750D01*
X152937591Y-142372341D01*
X157969963Y-137339969D01*
X157969966Y-137339967D01*
X157969967Y-137339967D01*
X158624500Y-136685433D01*
X158624500Y-142236560D01*
X158586400Y-142236560D01*
X158344277Y-142283537D01*
X158131473Y-142423327D01*
X157989023Y-142634360D01*
X157938960Y-142884000D01*
X157938960Y-144916000D01*
X157985937Y-145158123D01*
X158125727Y-145370927D01*
X158336760Y-145513377D01*
X158586400Y-145563440D01*
X160313600Y-145563440D01*
X160555723Y-145516463D01*
X160768527Y-145376673D01*
X160910977Y-145165640D01*
X160929483Y-145073354D01*
X161087964Y-145250732D01*
X161615209Y-145504709D01*
X161630974Y-145507358D01*
X161863000Y-145386217D01*
X161863000Y-144027000D01*
X161843000Y-144027000D01*
X161843000Y-143773000D01*
X161863000Y-143773000D01*
X161863000Y-142413783D01*
X161630974Y-142292642D01*
X161615209Y-142295291D01*
X161087964Y-142549268D01*
X160930326Y-142725701D01*
X160914063Y-142641877D01*
X160774273Y-142429073D01*
X160563240Y-142286623D01*
X160313600Y-142236560D01*
X160275500Y-142236560D01*
X160275500Y-137105556D01*
X160425784Y-137105687D01*
X160822689Y-136941689D01*
X161126622Y-136638286D01*
X161291313Y-136241668D01*
X161291687Y-135812216D01*
X161127689Y-135415311D01*
X160824286Y-135111378D01*
X160427668Y-134946687D01*
X160275500Y-134946554D01*
X160275500Y-134565505D01*
X160275500Y-134565500D01*
X160275501Y-134565500D01*
X160212663Y-134249595D01*
X160033717Y-133981784D01*
X160033717Y-133981783D01*
X160033713Y-133981780D01*
X159967500Y-133915566D01*
X159967500Y-132249933D01*
X163120780Y-135403213D01*
X163120783Y-135403217D01*
X163120784Y-135403217D01*
X163704500Y-135986933D01*
X163704500Y-142499117D01*
X163470330Y-142655585D01*
X163263539Y-142965069D01*
X162892036Y-142549268D01*
X162364791Y-142295291D01*
X162349026Y-142292642D01*
X162117000Y-142413783D01*
X162117000Y-143773000D01*
X162137000Y-143773000D01*
X162137000Y-144027000D01*
X162117000Y-144027000D01*
X162117000Y-145386217D01*
X162349026Y-145507358D01*
X162364791Y-145504709D01*
X162892036Y-145250732D01*
X163263539Y-144834930D01*
X163470330Y-145144415D01*
X163956511Y-145469271D01*
X164530000Y-145583345D01*
X165103489Y-145469271D01*
X165589670Y-145144415D01*
X165914526Y-144658234D01*
X166028600Y-144084745D01*
X166028600Y-143715255D01*
X165914526Y-143141766D01*
X165589670Y-142655585D01*
X165355500Y-142499117D01*
X165355500Y-135687881D01*
X165394689Y-135671689D01*
X165698622Y-135368286D01*
X165863313Y-134971668D01*
X165863687Y-134542216D01*
X165699689Y-134145311D01*
X165396286Y-133841378D01*
X164999668Y-133676687D01*
X164570216Y-133676313D01*
X164173311Y-133840311D01*
X164082964Y-133930500D01*
X163982933Y-133930500D01*
X160767500Y-130715066D01*
X160767500Y-126826933D01*
X165724280Y-131783713D01*
X165724283Y-131783717D01*
X165724284Y-131783717D01*
X165992095Y-131962663D01*
X166308000Y-132025501D01*
X166308000Y-132025500D01*
X166308005Y-132025500D01*
X167946560Y-132025500D01*
X167946560Y-132063600D01*
X167993537Y-132305723D01*
X168133327Y-132518527D01*
X168344360Y-132660977D01*
X168594000Y-132711040D01*
X170626000Y-132711040D01*
X170868123Y-132664063D01*
X171080927Y-132524273D01*
X171223377Y-132313240D01*
X171273440Y-132063600D01*
X171273440Y-130336400D01*
X171226463Y-130094277D01*
X171086673Y-129881473D01*
X170875640Y-129739023D01*
X170837037Y-129731281D01*
X170854415Y-129719670D01*
X171179271Y-129233489D01*
X171293345Y-128660000D01*
X171179271Y-128086511D01*
X170854415Y-127600330D01*
X170539634Y-127390000D01*
X170854415Y-127179670D01*
X171179271Y-126693489D01*
X171293345Y-126120000D01*
X171179271Y-125546511D01*
X170854415Y-125060330D01*
X170539634Y-124850000D01*
X170854415Y-124639670D01*
X171179271Y-124153489D01*
X171293345Y-123580000D01*
X171179271Y-123006511D01*
X170854415Y-122520330D01*
X170435500Y-122240419D01*
X170435500Y-118563334D01*
X170839784Y-118563687D01*
X171236689Y-118399689D01*
X171540622Y-118096286D01*
X171631058Y-117878491D01*
X172201280Y-118448713D01*
X172201283Y-118448717D01*
X172361824Y-118555986D01*
X172469094Y-118627663D01*
X172469095Y-118627663D01*
X172785000Y-118690500D01*
X185485000Y-118690500D01*
X185978000Y-118690500D01*
X185978000Y-118929250D01*
X186136750Y-119088000D01*
X187136000Y-119088000D01*
X187136000Y-119068000D01*
X187390000Y-119068000D01*
X187390000Y-119088000D01*
X188389250Y-119088000D01*
X188520658Y-118956591D01*
X189346280Y-119782213D01*
X189346283Y-119782217D01*
X189346284Y-119782217D01*
X189614095Y-119961163D01*
X189930000Y-120024001D01*
X189930000Y-120024000D01*
X189930005Y-120024000D01*
X190150024Y-120024000D01*
X190188360Y-120049877D01*
X190438000Y-120099940D01*
X191200000Y-120099940D01*
X191442123Y-120052963D01*
X191654927Y-119913173D01*
X191797377Y-119702140D01*
X191847440Y-119452500D01*
X191847440Y-118944500D01*
X191801429Y-118707356D01*
X191835000Y-118626309D01*
X191835000Y-118531750D01*
X191676250Y-118373000D01*
X191487975Y-118373000D01*
X191449640Y-118347123D01*
X191200000Y-118297060D01*
X190672000Y-118297060D01*
X190672000Y-118194940D01*
X191200000Y-118194940D01*
X191442123Y-118147963D01*
X191486213Y-118119000D01*
X191676250Y-118119000D01*
X191835000Y-117960250D01*
X191835000Y-117865691D01*
X191800387Y-117782128D01*
X191847440Y-117547500D01*
X191847440Y-117039500D01*
X191800463Y-116797377D01*
X191660673Y-116584573D01*
X191449640Y-116442123D01*
X191230714Y-116398219D01*
X195835499Y-111793433D01*
X196331280Y-112289213D01*
X196331283Y-112289217D01*
X196331284Y-112289217D01*
X196599095Y-112468163D01*
X196915000Y-112531001D01*
X196915000Y-112531000D01*
X196915005Y-112531000D01*
X196975853Y-112531000D01*
X196825878Y-112680714D01*
X196661187Y-113077332D01*
X196660813Y-113506784D01*
X196661000Y-113507236D01*
X196661000Y-114296560D01*
X195899000Y-114296560D01*
X195656877Y-114343537D01*
X195444073Y-114483327D01*
X195301623Y-114694360D01*
X195251560Y-114944000D01*
X195251560Y-115187497D01*
X195202095Y-115197337D01*
X194934283Y-115376283D01*
X194934280Y-115376286D01*
X193888688Y-116421878D01*
X193740000Y-116392060D01*
X192978000Y-116392060D01*
X192735877Y-116439037D01*
X192523073Y-116578827D01*
X192380623Y-116789860D01*
X192330560Y-117039500D01*
X192330560Y-117547500D01*
X192377537Y-117789623D01*
X192517327Y-118002427D01*
X192728360Y-118144877D01*
X192978000Y-118194940D01*
X193740000Y-118194940D01*
X193982123Y-118147963D01*
X194026213Y-118119000D01*
X194184500Y-118119000D01*
X194500405Y-118056163D01*
X194500406Y-118056163D01*
X194768217Y-117877217D01*
X195349590Y-117295842D01*
X195438327Y-117430927D01*
X195649360Y-117573377D01*
X195899000Y-117623440D01*
X199455000Y-117623440D01*
X199532947Y-117608316D01*
X199563197Y-117764223D01*
X199702987Y-117977027D01*
X199914020Y-118119477D01*
X200163660Y-118169540D01*
X202503000Y-118169540D01*
X202503000Y-119979060D01*
X201950500Y-119979060D01*
X201708377Y-120026037D01*
X201549845Y-120130175D01*
X201400140Y-120029123D01*
X201150500Y-119979060D01*
X200550500Y-119979060D01*
X200308377Y-120026037D01*
X200102440Y-120161316D01*
X200102440Y-120024000D01*
X200055463Y-119781877D01*
X199915673Y-119569073D01*
X199704640Y-119426623D01*
X199455000Y-119376560D01*
X195899000Y-119376560D01*
X195749499Y-119405566D01*
X194958717Y-118614783D01*
X194690906Y-118435837D01*
X194375000Y-118373000D01*
X194027975Y-118373000D01*
X193989640Y-118347123D01*
X193740000Y-118297060D01*
X192978000Y-118297060D01*
X192735877Y-118344037D01*
X192523073Y-118483827D01*
X192380623Y-118694860D01*
X192330560Y-118944500D01*
X192330560Y-119452500D01*
X192377537Y-119694623D01*
X192517327Y-119907427D01*
X192728360Y-120049877D01*
X192978000Y-120099940D01*
X193740000Y-120099940D01*
X193982123Y-120052963D01*
X194026213Y-120024000D01*
X194033066Y-120024000D01*
X195251560Y-121242493D01*
X195251560Y-122056000D01*
X195298537Y-122298123D01*
X195438327Y-122510927D01*
X195649360Y-122653377D01*
X195899000Y-122703440D01*
X199455000Y-122703440D01*
X199697123Y-122656463D01*
X199909927Y-122516673D01*
X200052377Y-122305640D01*
X200102440Y-122056000D01*
X200102440Y-121865500D01*
X200214377Y-121865500D01*
X200300860Y-121923877D01*
X200550500Y-121973940D01*
X201150500Y-121973940D01*
X201392623Y-121926963D01*
X201551154Y-121822824D01*
X201700860Y-121923877D01*
X201950500Y-121973940D01*
X202550500Y-121973940D01*
X202792623Y-121926963D01*
X203005427Y-121787173D01*
X203032395Y-121747221D01*
X203032395Y-121747220D01*
X203072905Y-121739163D01*
X203072906Y-121739163D01*
X203340717Y-121560217D01*
X203912217Y-120988717D01*
X204091163Y-120720906D01*
X204091163Y-120720905D01*
X204154000Y-120405000D01*
X204154000Y-118157100D01*
X204780110Y-118157100D01*
X204938860Y-117998350D01*
X204938860Y-116849000D01*
X204918860Y-116849000D01*
X204918860Y-116595000D01*
X204938860Y-116595000D01*
X204938860Y-115445650D01*
X204780110Y-115286900D01*
X204154000Y-115286900D01*
X204154000Y-113569860D01*
X204091163Y-113253955D01*
X204091163Y-113253954D01*
X204015422Y-113140600D01*
X204780110Y-113140600D01*
X204938860Y-112981850D01*
X204938860Y-111832500D01*
X204918860Y-111832500D01*
X204918860Y-111578500D01*
X204938860Y-111578500D01*
X204938860Y-110429150D01*
X204780110Y-110270400D01*
X203639071Y-110270400D01*
X203405682Y-110367073D01*
X203263745Y-110509009D01*
X203225293Y-110450473D01*
X203014260Y-110308023D01*
X202764620Y-110257960D01*
X200163660Y-110257960D01*
X199921537Y-110304937D01*
X199708733Y-110444727D01*
X199566283Y-110655760D01*
X199521313Y-110880000D01*
X197256933Y-110880000D01*
X196978500Y-110601566D01*
X196978500Y-107245440D01*
X197672000Y-107245440D01*
X197914123Y-107198463D01*
X198126927Y-107058673D01*
X198269377Y-106847640D01*
X198319440Y-106598000D01*
X198319440Y-105798000D01*
X198272463Y-105555877D01*
X198199917Y-105445440D01*
X198372000Y-105445440D01*
X198614123Y-105398463D01*
X198826927Y-105258673D01*
X198969377Y-105047640D01*
X199019440Y-104798000D01*
X199019440Y-104633000D01*
X199645053Y-104633000D01*
X200200060Y-105188006D01*
X200200060Y-106196000D01*
X200247037Y-106438123D01*
X200386827Y-106650927D01*
X200597860Y-106793377D01*
X200847500Y-106843440D01*
X202347500Y-106843440D01*
X202589623Y-106796463D01*
X202802427Y-106656673D01*
X202944877Y-106445640D01*
X202946716Y-106436469D01*
X202947037Y-106438123D01*
X203086827Y-106650927D01*
X203297860Y-106793377D01*
X203547500Y-106843440D01*
X204545172Y-106843440D01*
X204368811Y-106916311D01*
X204064878Y-107219714D01*
X203900187Y-107616332D01*
X203899813Y-108045784D01*
X204063811Y-108442689D01*
X204367214Y-108746622D01*
X204763832Y-108911313D01*
X205193284Y-108911687D01*
X205590189Y-108747689D01*
X205894122Y-108444286D01*
X206058813Y-108047668D01*
X206058924Y-107920009D01*
X206579217Y-107399717D01*
X206758163Y-107131906D01*
X206758163Y-107131905D01*
X206821000Y-106816000D01*
X206821001Y-106816000D01*
X206821000Y-106815994D01*
X206821000Y-105421424D01*
X207097714Y-105698622D01*
X207494332Y-105863313D01*
X207923784Y-105863687D01*
X208320689Y-105699689D01*
X208624622Y-105396286D01*
X208789313Y-104999668D01*
X208789687Y-104570216D01*
X208789687Y-149315000D01*
X207001340Y-149315000D01*
X207001340Y-117648410D01*
X207001340Y-117395791D01*
X207001340Y-117007750D01*
X207001340Y-116436250D01*
X207001340Y-116048209D01*
X207001340Y-115795590D01*
X207001340Y-112631910D01*
X207001340Y-112379291D01*
X207001340Y-111991250D01*
X207001340Y-111419750D01*
X207001340Y-111031709D01*
X207001340Y-110779090D01*
X206904667Y-110545701D01*
X206726038Y-110367073D01*
X206492649Y-110270400D01*
X205351610Y-110270400D01*
X205192860Y-110429150D01*
X205192860Y-111578500D01*
X206842590Y-111578500D01*
X207001340Y-111419750D01*
X207001340Y-111991250D01*
X206842590Y-111832500D01*
X205192860Y-111832500D01*
X205192860Y-112981850D01*
X205351610Y-113140600D01*
X206492649Y-113140600D01*
X206726038Y-113043927D01*
X206904667Y-112865299D01*
X207001340Y-112631910D01*
X207001340Y-115795590D01*
X206904667Y-115562201D01*
X206726038Y-115383573D01*
X206492649Y-115286900D01*
X205351610Y-115286900D01*
X205192860Y-115445650D01*
X205192860Y-116595000D01*
X206842590Y-116595000D01*
X207001340Y-116436250D01*
X207001340Y-117007750D01*
X206842590Y-116849000D01*
X205192860Y-116849000D01*
X205192860Y-117998350D01*
X205351610Y-118157100D01*
X206492649Y-118157100D01*
X206726038Y-118060427D01*
X206904667Y-117881799D01*
X207001340Y-117648410D01*
X207001340Y-149315000D01*
X188548000Y-149315000D01*
X188548000Y-120091309D01*
X188548000Y-119500750D01*
X188389250Y-119342000D01*
X187390000Y-119342000D01*
X187390000Y-120441250D01*
X187548750Y-120600000D01*
X187786691Y-120600000D01*
X188039310Y-120600000D01*
X188272699Y-120503327D01*
X188451327Y-120324698D01*
X188548000Y-120091309D01*
X188548000Y-149315000D01*
X187136000Y-149315000D01*
X187136000Y-120441250D01*
X187136000Y-119342000D01*
X186136750Y-119342000D01*
X185978000Y-119500750D01*
X185978000Y-120091309D01*
X186074673Y-120324698D01*
X186253301Y-120503327D01*
X186486690Y-120600000D01*
X186739309Y-120600000D01*
X186977250Y-120600000D01*
X187136000Y-120441250D01*
X187136000Y-149315000D01*
X154598600Y-149315000D01*
X154598600Y-145042310D01*
X154598600Y-144789691D01*
X154598600Y-144185750D01*
X154598600Y-143614250D01*
X154598600Y-143010309D01*
X154598600Y-142757690D01*
X154501927Y-142524301D01*
X154323298Y-142345673D01*
X154089909Y-142249000D01*
X153385750Y-142249000D01*
X153227000Y-142407750D01*
X153227000Y-143773000D01*
X154439850Y-143773000D01*
X154598600Y-143614250D01*
X154598600Y-144185750D01*
X154439850Y-144027000D01*
X153227000Y-144027000D01*
X153227000Y-145392250D01*
X153385750Y-145551000D01*
X154089909Y-145551000D01*
X154323298Y-145454327D01*
X154501927Y-145275699D01*
X154598600Y-145042310D01*
X154598600Y-149315000D01*
X122955975Y-149315000D01*
X122955975Y-145552944D01*
X122955975Y-144787056D01*
X122756385Y-144305182D01*
X122318379Y-143832812D01*
X121732946Y-143564017D01*
X121477000Y-143682633D01*
X121477000Y-145043000D01*
X122836836Y-145043000D01*
X122955975Y-144787056D01*
X122955975Y-145552944D01*
X122836836Y-145297000D01*
X121477000Y-145297000D01*
X121477000Y-146657367D01*
X121732946Y-146775983D01*
X122318379Y-146507188D01*
X122756385Y-146034818D01*
X122955975Y-145552944D01*
X122955975Y-149315000D01*
X121223000Y-149315000D01*
X121223000Y-146657367D01*
X121223000Y-145297000D01*
X121223000Y-145043000D01*
X121223000Y-143682633D01*
X120967054Y-143564017D01*
X120381621Y-143832812D01*
X120380693Y-143833812D01*
X120364327Y-143794301D01*
X120185698Y-143615673D01*
X119952309Y-143519000D01*
X119095750Y-143519000D01*
X118937000Y-143677750D01*
X118937000Y-145043000D01*
X119863164Y-145043000D01*
X120302250Y-145043000D01*
X121223000Y-145043000D01*
X121223000Y-145297000D01*
X120302250Y-145297000D01*
X119863164Y-145297000D01*
X118937000Y-145297000D01*
X118937000Y-146662250D01*
X119095750Y-146821000D01*
X119952309Y-146821000D01*
X120185698Y-146724327D01*
X120364327Y-146545699D01*
X120380693Y-146506187D01*
X120381621Y-146507188D01*
X120967054Y-146775983D01*
X121223000Y-146657367D01*
X121223000Y-149315000D01*
X118683000Y-149315000D01*
X118683000Y-146662250D01*
X118683000Y-145297000D01*
X118683000Y-145043000D01*
X118683000Y-143677750D01*
X118524250Y-143519000D01*
X117667691Y-143519000D01*
X117434302Y-143615673D01*
X117255673Y-143794301D01*
X117159000Y-144027690D01*
X117159000Y-144280309D01*
X117159000Y-144884250D01*
X117317750Y-145043000D01*
X118683000Y-145043000D01*
X118683000Y-145297000D01*
X117317750Y-145297000D01*
X117159000Y-145455750D01*
X117159000Y-146059691D01*
X117159000Y-146312310D01*
X117255673Y-146545699D01*
X117434302Y-146724327D01*
X117667691Y-146821000D01*
X118524250Y-146821000D01*
X118683000Y-146662250D01*
X118683000Y-149315000D01*
X115685000Y-149315000D01*
X115685000Y-55685000D01*
X209315000Y-55685000D01*
X209315000Y-149315000D01*
M02*
